<?xml version="1.0" encoding="UTF-8"?>
<svg version="1.1" xmlns="http://www.w3.org/2000/svg" width="640" height="436">
<path d="M0 0 C0.88606934 0.00149048 1.77213867 0.00298096 2.68505859 0.0045166 C15.83437488 0.04432341 28.60388507 0.53891478 41.5 3.3125 C42.1820752 3.44640137 42.86415039 3.58030273 43.56689453 3.71826172 C68.53462448 8.67098526 91.42159677 21.01345192 111.5 36.3125 C112.05042969 36.73160645 112.60085938 37.15071289 113.16796875 37.58251953 C121.08371886 43.72121365 128.14757338 50.76763051 135.25 57.8125 C136.56339355 59.11175415 136.56339355 59.11175415 137.90332031 60.43725586 C145.90212135 68.47615682 152.9476721 77.17671117 159.8125 86.1875 C162.66796296 89.93040958 165.54502093 93.64751451 168.5 97.3125 C169.20125 96.34570312 169.9025 95.37890625 170.625 94.3828125 C176.08133626 86.88385275 181.57570384 79.4520364 187.5 72.3125 C188.12696777 71.55018066 188.12696777 71.55018066 188.76660156 70.77246094 C200.14859342 56.98227066 212.36901081 44.22151604 226.78369141 33.58007812 C228.48567589 32.32307906 230.17044998 31.0452368 231.85546875 29.765625 C258.7977808 9.60661957 287.76313676 0.15054271 321.27246094 -0.03759766 C323.3956207 -0.05397907 325.51872958 -0.08102523 327.64160156 -0.11962891 C372.14532129 -0.92156055 413.54230326 17.08475781 445.65625 47.53515625 C470.9897144 72.27704249 488.25999776 105.99513017 488.76795959 141.82380676 C488.9396936 157.07863858 488.75501212 171.53981708 484.5 186.3125 C484.30696289 187.03646973 484.11392578 187.76043945 483.91503906 188.50634766 C478.74817478 207.62544232 468.87973891 225.89874557 456.5 241.3125 C455.83701904 242.14249512 455.83701904 242.14249512 455.16064453 242.98925781 C441.62367817 259.77951712 426.02844716 273.31059752 407.5 284.3125 C406.91669922 284.65909668 406.33339844 285.00569336 405.73242188 285.36279297 C371.02650902 305.63965589 330.71365673 310.06276129 292.08374023 300.00439453 C238.01145381 285.18522267 196.73757966 248.67678881 166.5 202.3125 C165.74976563 203.38886719 164.99953125 204.46523437 164.2265625 205.57421875 C152.19786079 222.76853561 139.73519344 239.47954236 124.66015625 254.1484375 C122.82257014 255.98934655 121.18620028 257.84884409 119.5625 259.875 C97.63804437 286.02511886 59.12312114 299.52571988 26.16601562 302.84765625 C-16.85843314 306.49959885 -63.12437061 295.31488623 -97.1875 267.9375 C-98.97089666 266.41038404 -100.74148756 264.86820589 -102.5 263.3125 C-103.47582031 262.46945312 -104.45164063 261.62640625 -105.45703125 260.7578125 C-128.56824313 240.47601379 -149.10939174 208.73287456 -151.73669434 177.49859619 C-152.05667719 171.08308407 -152.07004799 164.67182712 -152.02148438 158.24975586 C-152.00005646 154.88386822 -152.02137448 151.52011968 -152.046875 148.15429688 C-152.06357068 135.64220604 -151.1763485 124.29095997 -147.5 112.3125 C-147.22833008 111.39573486 -146.95666016 110.47896973 -146.67675781 109.53442383 C-145.97387116 107.30425175 -145.20502842 105.12318197 -144.375 102.9375 C-144.08133545 102.15842285 -143.7876709 101.3793457 -143.48510742 100.57666016 C-135.43091958 79.92266729 -123.39977368 61.53719647 -107.89208984 45.73974609 C-106.59055886 44.40534586 -105.31939514 43.04151391 -104.05078125 41.67578125 C-87.30848594 24.04794304 -65.37649396 12.07876592 -42.3125 5 C-41.5299585 4.75749512 -40.74741699 4.51499023 -39.94116211 4.26513672 C-26.72091004 0.39332534 -13.66180914 -0.05659565 0 0 Z M242.5 91.3125 C241.79359375 91.96605469 241.0871875 92.61960938 240.359375 93.29296875 C234.54179469 98.83858901 229.74770712 105.15978634 224.87597656 111.52636719 C223.58664309 113.20003001 222.27857242 114.85639047 220.9609375 116.5078125 C214.64267799 124.51094121 209.00408908 132.87512898 203.62158203 141.53515625 C202.66464447 143.05159192 201.64852459 144.53041077 200.62109375 146 C199.18008688 148.97239047 199.64388341 150.1630269 200.5 153.3125 C201.5372937 155.6249471 201.5372937 155.6249471 202.87109375 157.90234375 C203.35803711 158.76239014 203.84498047 159.62243652 204.34667969 160.50854492 C205.13413574 161.86556519 205.13413574 161.86556519 205.9375 163.25 C206.47665039 164.18497314 207.01580078 165.11994629 207.57128906 166.08325195 C212.11137207 173.85069532 217.03534667 181.17214378 222.5 188.3125 C223.16386719 189.18777344 223.82773437 190.06304687 224.51171875 190.96484375 C229.80050168 197.7555123 235.60919887 204.04682971 241.5 210.3125 C242.08265625 210.94929687 242.6653125 211.58609375 243.265625 212.2421875 C263.4866534 233.58660637 295.90674887 250.42883977 325.51953125 251.55078125 C357.31188578 252.16412973 382.57847899 240.44549007 405.5625 218.5625 C425.23953056 198.08396107 436.21721317 172.84042004 435.77734375 144.37109375 C434.86926763 120.65720529 422.44525555 99.35285952 405.5 83.3125 C381.72304715 61.9858982 350.68124257 51.09202593 318.82177734 52.18066406 C287.93115589 53.93470566 264.2179338 70.63024801 242.5 91.3125 Z M-74.09228516 87.71386719 C-93.20036812 109.41343833 -100.73208861 135.9287945 -99.6953125 164.36669922 C-98.19248752 187.03305704 -83.42367535 209.1379292 -66.76953125 223.765625 C-40.30950255 245.09386005 -7.14277945 251.68773136 26.10791016 249.11035156 C44.20070571 247.00515252 61.61915625 238.89746275 75.5 227.3125 C76.11617187 226.81878906 76.73234375 226.32507813 77.3671875 225.81640625 C81.25722351 222.62657672 84.51489901 219.12623635 87.765625 215.29296875 C89.35268797 213.48071441 91.00083622 211.84087624 92.75 210.1875 C106.61906557 196.47253516 117.73923026 178.84323947 128.1875 162.5 C128.78796143 161.56285156 129.38842285 160.62570313 130.00708008 159.66015625 C130.56548584 158.77585937 131.1238916 157.8915625 131.69921875 156.98046875 C132.19252686 156.19953857 132.68583496 155.4186084 133.1940918 154.61401367 C134.56583883 152.1964666 135.69711648 149.97793346 136.5 147.3125 C135.27884807 144.61540108 134.07811542 142.48631929 132.4375 140.0625 C131.98431396 139.36793701 131.53112793 138.67337402 131.06420898 137.95776367 C125.62661031 129.7642098 119.63698846 121.98951066 113.5 114.3125 C113.05076172 113.74466797 112.60152344 113.17683594 112.13867188 112.59179688 C89.34321952 83.94957201 59.80381992 59.40283795 22.5 54.3125 C16.84251082 53.71308533 11.18442959 53.47426735 5.5 53.3125 C4.75282715 53.28526855 4.0056543 53.25803711 3.23583984 53.22998047 C-28.14690713 52.16445479 -52.94743981 64.88664887 -74.09228516 87.71386719 Z " fill="#00979C" transform="translate(151.5,-0.3125)"/>
<path d="M0 0 C8.58 0 17.16 0 26 0 C33.00062978 15.05135403 39.88593972 30.14272215 46.625 45.3125 C46.97788086 46.10611938 47.33076172 46.89973877 47.69433594 47.71740723 C48.70637978 49.99462377 49.7168473 52.27253136 50.7265625 54.55078125 C51.02817291 55.23000137 51.32978333 55.9092215 51.64053345 56.60902405 C53.16292474 60.05141692 54.60134786 63.50336966 56 67 C56.33 44.89 56.66 22.78 57 0 C63.6 0 70.2 0 77 0 C77 34.65 77 69.3 77 105 C68.42 105 59.84 105 51 105 C48.65560923 99.79805738 46.31168008 94.5959107 43.96875 89.39331055 C43.17797449 87.63766852 42.38697241 85.88212852 41.59570312 84.12670898 C34.67606184 68.7748638 27.83923913 53.38828804 21 38 C20.67 60.11 20.34 82.22 20 105 C13.4 105 6.8 105 0 105 C0 70.35 0 35.7 0 0 Z " fill="#00979C" transform="translate(466,327)"/>
<path d="M0 0 C55.09032258 0 55.09032258 0 67 10.81640625 C78.29849015 22.86975242 80.74668341 38.55082191 80.29296875 54.51953125 C79.49223208 70.18626521 75.23993105 83.21375317 63.875 94.1875 C46.40336953 109.08374776 21.06039005 105 0 105 C0 70.35 0 35.7 0 0 Z M21 18 C21 40.77 21 63.54 21 87 C36.97227577 87.08822927 36.97227577 87.08822927 50 79 C57.7762199 66.95256498 58.95263458 52.88258893 56.3515625 38.921875 C54.53719555 31.75745167 52.06747794 25.53632531 46 21 C37.51186043 16.8182421 37.51186043 16.8182421 21 18 Z " fill="#00979C" transform="translate(194,327)"/>
<path d="M0 0 C10.53020684 7.69515115 14.4440721 21.11826448 16.40234375 33.453125 C18.74549937 51.29962533 16.79943887 71.72520877 6.80859375 87.09765625 C0.1660562 95.52342536 -10.40894112 100.71775692 -20.9375 102.3125 C-33.42310422 103.16341929 -43.88300169 101.04803153 -53.9375 93.3125 C-65.2670986 82.00494342 -68.16608315 67.47643505 -68.25976562 52.02734375 C-68.25654297 50.84269531 -68.25332031 49.65804687 -68.25 48.4375 C-68.26611328 47.26058594 -68.28222656 46.08367187 -68.29882812 44.87109375 C-68.30694299 30.11827004 -65.03099184 14.921803 -54.62109375 3.8359375 C-39.39906005 -9.93806051 -17.34179505 -10.37617404 0 0 Z M-39.25 18.4375 C-47.91642879 29.57668701 -47.05424325 46.44166454 -45.4765625 59.765625 C-44.37446624 67.3269637 -42.85284989 74.02365268 -36.9375 79.3125 C-31.83620125 83.10881535 -26.06937015 83.1349565 -19.9375 82.3125 C-13.30961385 79.05881043 -10.02797909 74.21229507 -7.55078125 67.47265625 C-3.65158842 53.73855666 -3.87278291 34.54936756 -10.2265625 21.70703125 C-13.35794752 16.44061099 -16.00047556 13.9027744 -21.9375 12.3125 C-28.60153412 11.46177224 -34.6647441 13.53366553 -39.25 18.4375 Z " fill="#00979C" transform="translate(620.9375,331.6875)"/>
<path d="M0 0 C52.22699387 0 52.22699387 0 61.15625 7.91015625 C67.32021283 14.24161807 69.92117285 20.6599384 70.4375 29.4375 C70.13021211 36.67156915 67.72637098 43.61950172 62.75 48.9375 C59.18876809 52.15110624 55.37553522 54.08090561 51 56 C51.39509766 56.3599707 51.79019531 56.71994141 52.19726562 57.09082031 C58.70940731 63.71087749 62.31503437 71.91595896 66.2734375 80.19189453 C67.50774939 82.76616203 68.76802473 85.32653657 70.03125 87.88671875 C70.82448777 89.52267664 71.61621021 91.15937034 72.40625 92.796875 C72.78317993 93.56046326 73.16010986 94.32405151 73.54846191 95.11077881 C75.44875354 99.13034762 76.11396463 100.54414147 75 105 C67.41 105 59.82 105 52 105 C50.96359375 102.68742187 49.9271875 100.37484375 48.859375 97.9921875 C47.84455109 95.73769705 46.82788225 93.48404728 45.81103516 91.23046875 C45.10890851 89.67176698 44.40868311 88.11220726 43.71044922 86.55175781 C42.70266335 84.30041307 41.68793077 82.05230992 40.671875 79.8046875 C40.36441345 79.1138205 40.0569519 78.42295349 39.74017334 77.71115112 C36.7169957 71.05802918 34.13942018 65.7683466 27 63 C25.35 62.67 23.7 62.34 22 62 C21.67 76.19 21.34 90.38 21 105 C14.07 105 7.14 105 0 105 C0 70.35 0 35.7 0 0 Z M21 18 C21 26.91 21 35.82 21 45 C33.75596057 45.35378923 33.75596057 45.35378923 44.5 40 C47.2469131 36.3374492 47.40136951 32.71135981 47.34375 28.2890625 C46.73801338 24.25540726 45.03216157 22.70257879 42 20 C37.35503995 18.00833835 33.10230168 17.75059498 28.125 17.875 C24.598125 17.936875 24.598125 17.936875 21 18 Z " fill="#00979C" transform="translate(107,327)"/>
<path d="M0 0 C9.57 0 19.14 0 29 0 C30.99805288 4.66212339 32.64811703 8.81019682 34.04956055 13.60839844 C34.2322197 14.22929352 34.41487885 14.8501886 34.60307312 15.48989868 C35.20172656 17.52854698 35.79422863 19.56892781 36.38671875 21.609375 C36.81127843 23.05938012 37.23623893 24.50926793 37.66157532 25.95904541 C38.78184596 29.78128039 39.89697798 33.60499524 41.01092529 37.42907715 C42.33405496 41.96794307 43.66311969 46.50507339 44.99131966 51.04245758 C46.0755035 54.7467274 47.15865783 58.45129027 48.23922729 62.15661621 C50.2800026 69.15090571 52.33428381 76.1405641 54.42822266 83.11914062 C54.8034053 84.37245178 55.17858795 85.62576294 55.56513977 86.91705322 C56.26664994 89.25581051 56.97153138 91.59356016 57.68034363 93.93011475 C57.98797134 94.95638977 58.29559906 95.98266479 58.61254883 97.04003906 C59.01682854 98.37666595 59.01682854 98.37666595 59.42927551 99.74029541 C60 102 60 102 60 105 C52.41 105 44.82 105 37 105 C34 97 34 97 31 86 C13.675 85.505 13.675 85.505 -4 85 C-4.33 87.31 -4.66 89.62 -5 92 C-6.20743837 96.37878254 -7.61669692 100.67160003 -9 105 C-15.93 105 -22.86 105 -30 105 C-29.25153413 99.76073894 -28.27632013 95.05401006 -26.76269531 90.03955078 C-26.53649506 89.27579636 -26.3102948 88.51204193 -26.07723999 87.72514343 C-25.33220139 85.21378568 -24.58019767 82.70457183 -23.828125 80.1953125 C-23.30300703 78.43013351 -22.77833619 76.66482145 -22.25408936 74.89938354 C-20.87284225 70.25219401 -19.48571811 65.60677932 -18.09729004 60.96173096 C-16.70209198 56.29060143 -15.31211445 51.61791975 -13.921875 46.9453125 C-12.34962024 41.66177414 -10.77689886 36.37838001 -9.20001221 31.09622192 C-6.1081432 20.73810292 -3.04395091 10.37231472 0 0 Z M14 25 C11.07228964 32.2197906 9.01594568 39.67136931 6.9284668 47.16552734 C6.30786407 49.39162907 5.68067336 51.6158016 5.05273438 53.83984375 C4.65586165 55.25509949 4.2593635 56.67046033 3.86328125 58.0859375 C3.58210197 59.0827504 3.58210197 59.0827504 3.29524231 60.09970093 C2.32346173 63.49891697 2.32346173 63.49891697 2 67 C9.92 67 17.84 67 26 67 C24.7760991 60.88049551 23.55163246 54.98654963 21.8359375 49.0234375 C21.63900299 48.32731354 21.44206848 47.63118958 21.23916626 46.91397095 C20.62136841 44.73327501 19.9982996 42.55412896 19.375 40.375 C18.95016768 38.87900649 18.52568582 37.38291342 18.1015625 35.88671875 C17.07174234 32.25665273 16.03719873 28.62796434 15 25 C14.67 25 14.34 25 14 25 Z " fill="#00979C" transform="translate(37,327)"/>
<path d="M0 0 C6.93 0 13.86 0 21 0 C21.01458252 2.23531494 21.02916504 4.47062988 21.04418945 6.77368164 C21.09461257 14.17381635 21.1612212 21.57374234 21.23571491 28.97367191 C21.28036967 33.45858513 21.31963648 37.94340853 21.34643555 42.4284668 C21.3725175 46.75990134 21.41295422 51.09098936 21.46318626 55.42220879 C21.47982198 57.07149368 21.49135674 58.72083847 21.49761391 60.37019539 C21.50729117 62.68734867 21.53539201 65.00362202 21.56762695 67.32055664 C21.57873001 68.6373793 21.58983307 69.95420197 21.60127258 71.31092834 C22.15134374 76.40024958 23.6070147 80.28198479 26.875 84.3125 C31.55808871 88.03142338 36.13805314 88.62694619 42 88 C45.34796415 87.50078979 48.12918921 86.83591566 51 85 C57.00375125 75.73036453 55.13755131 61.12982663 55.09765625 50.5859375 C55.09578705 49.12049407 55.09436552 47.65505 55.09336853 46.18960571 C55.08958288 42.36580628 55.07978719 38.54204591 55.06866455 34.71826172 C55.05836462 30.80306527 55.05385267 26.8878624 55.04882812 22.97265625 C55.03816066 15.31508445 55.02059674 7.65755271 55 0 C62.26 0 69.52 0 77 0 C77.06808154 9.31076095 77.12299117 18.62135352 77.15543652 27.9323082 C77.17101747 32.25688764 77.19211533 36.58128629 77.22631836 40.90576172 C77.25918454 45.08792113 77.27690976 49.26990788 77.28463173 53.45218658 C77.29012677 55.03879764 77.30085557 56.62540046 77.31719017 58.21193695 C77.45718264 72.38734737 76.38929933 84.87177073 66.5 95.75 C65.675 96.4925 64.85 97.235 64 98 C63.2575 98.680625 62.515 99.36125 61.75 100.0625 C51.4316505 107.33224624 40.23923675 107.95899469 28 107 C18.95494065 105.34090624 11.21233283 101.24476735 5.40625 94.015625 C0.4522014 86.5845521 -0.35986022 79.16841659 -0.65234375 70.4375 C-0.69101059 69.39956299 -0.72967743 68.36162598 -0.76951599 67.29223633 C-1.19590537 53.85895706 -0.86254144 40.43262462 -0.5625 27 C-0.50909057 24.36329484 -0.45635267 21.72657598 -0.40429688 19.08984375 C-0.27723896 12.72637875 -0.14121156 6.363166 0 0 Z " fill="#00979C" transform="translate(286,327)"/>
<path d="M0 0 C9.57 0 19.14 0 29 0 C29 9.9 29 19.8 29 30 C39.23 30 49.46 30 60 30 C60 39.57 60 49.14 60 59 C49.77 59 39.54 59 29 59 C29 69.23 29 79.46 29 90 C19.43 90 9.86 90 0 90 C0 79.77 0 69.54 0 59 C-9.57 59 -19.14 59 -29 59 C-29 49.43 -29 39.86 -29 30 C-19.43 30 -9.86 30 0 30 C0 20.1 0 10.2 0 0 Z " fill="#00979B" transform="translate(461,102)"/>
<path d="M0 0 C22.11 0 44.22 0 67 0 C67 5.94 67 11.88 67 18 C59.41 18 51.82 18 44 18 C44 41.1 44 64.2 44 88 C51.59 88 59.18 88 67 88 C67 93.94 67 99.88 67 106 C44.89 106 22.78 106 0 106 C0 100.06 0 94.12 0 88 C7.26 88 14.52 88 22 88 C22 64.9 22 41.8 22 18 C14.74 18 7.48 18 0 18 C0 12.06 0 6.12 0 0 Z " fill="#00969C" transform="translate(380,326)"/>
<path d="M0 0 C35.64 0 71.28 0 108 0 C108 7.59 108 15.18 108 23 C72.36 23 36.72 23 0 23 C0 15.41 0 7.82 0 0 Z " fill="#00979B" transform="translate(104,135)"/>
<path d="M0 0 C5.94 0 11.88 0 18 0 C20 4 20 4 20 7 C20.66 7 21.32 7 22 7 C22.144375 6.030625 22.28875 5.06125 22.4375 4.0625 C23 1 23 1 24 0 C25.65 0 27.3 0 29 0 C29 5.28 29 10.56 29 16 C27.68 16 26.36 16 25 16 C24.67 15.34 24.34 14.68 24 14 C23.67 14.66 23.34 15.32 23 16 C21.68 16 20.36 16 19 16 C18.67 15.34 18.34 14.68 18 14 C17.67 14.66 17.34 15.32 17 16 C15.68 16 14.36 16 13 16 C13 12.04 13 8.08 13 4 C11.68 4 10.36 4 9 4 C9 7.96 9 11.92 9 16 C7.68 16 6.36 16 5 16 C5 12.04 5 8.08 5 4 C3.35 4 1.7 4 0 4 C0 2.68 0 1.36 0 0 Z " fill="#00979B" transform="translate(600,11)"/>
</svg>
