<?xml version="1.0" encoding="UTF-8"?>
<svg version="1.1" xmlns="http://www.w3.org/2000/svg" width="1279" height="1280">
<path d="M0 0 C1.3638275 -0.00424107 1.3638275 -0.00424107 2.75520706 -0.00856781 C7.58257576 -0.02348043 12.40991528 -0.0327556 17.23730469 -0.03710938 C21.15634636 -0.04146234 25.07516394 -0.05524119 28.99414062 -0.078125 C52.48218431 -0.2124659 75.4564235 0.3158256 98.7890625 3.203125 C100.47745914 3.39537259 102.16607529 3.58570987 103.85498047 3.7734375 C169.41392027 11.22183004 234.15922817 30.06237762 293.7890625 58.203125 C294.90168457 58.72664551 296.01430664 59.25016602 297.16064453 59.78955078 C311.18422167 66.40313872 325.14453979 73.09634024 338.55322266 80.90185547 C341.00391381 82.3281695 343.4651121 83.73550793 345.92578125 85.14453125 C377.40746572 103.32238231 407.45994437 124.57696669 435.09423828 148.21166992 C438.54943523 151.16653571 442.0562208 154.04360818 445.6015625 156.890625 C449.53023672 160.08480795 453.15995522 163.41366768 456.64453125 167.0859375 C458.43919752 168.85772096 460.26212668 170.47244105 462.1796875 172.10546875 C467.89890524 177.0723838 473.19968108 182.46448132 478.54370117 187.82739258 C480.34768335 189.63673433 482.15694915 191.44066819 483.96679688 193.24414062 C489.78863784 199.06262592 495.46552275 204.91914789 500.7890625 211.203125 C502.24351767 212.81080873 503.70127145 214.41552215 505.1640625 216.015625 C509.00834495 220.28057808 512.68433155 224.6517335 516.29296875 229.1171875 C518.10104406 231.35252317 519.92019013 233.57500705 521.75390625 235.7890625 C539.82128638 257.67838842 555.95247227 281.02106691 570.7890625 305.203125 C571.28841309 306.01491211 571.78776367 306.82669922 572.30224609 307.66308594 C587.11872451 331.88587638 600.59083417 357.10253992 611.7890625 383.203125 C612.22879395 384.2255127 612.66852539 385.24790039 613.12158203 386.30126953 C638.77275004 446.46123129 654.40604469 509.3974742 661.84375 574.30078125 C661.96668427 575.364356 661.96668427 575.364356 662.09210205 576.44941711 C662.34238323 578.6992075 662.57033229 580.95004452 662.7890625 583.203125 C662.87937744 584.11505615 662.96969238 585.0269873 663.06274414 585.96655273 C663.93852703 595.85341243 663.97129683 605.71568672 663.9921875 615.6328125 C663.99501488 616.55306339 663.99784225 617.47331429 664.00075531 618.42145157 C664.01566916 623.30717493 664.02494361 628.19286945 664.02929688 633.07861328 C664.03365043 637.04615635 664.04743143 641.01347814 664.0703125 644.98095703 C664.20374209 668.60312764 663.74561421 691.74059452 660.7890625 715.203125 C660.58747515 716.90274431 660.38655072 718.60244248 660.18652344 720.30224609 C659.69447764 724.36131419 659.13164111 728.40737573 658.5390625 732.453125 C658.38466202 733.51435074 658.38466202 733.51435074 658.22714233 734.59701538 C649.01140034 797.46471447 630.47969393 858.97938039 602.7890625 916.203125 C602.22461426 917.37439941 601.66016602 918.54567383 601.07861328 919.75244141 C592.72649519 937.02980931 583.76256463 953.79455083 573.7890625 970.203125 C573.22944824 971.1297998 572.66983398 972.05647461 572.09326172 973.01123047 C565.03320035 984.67968698 557.66344431 996.06895027 549.7890625 1007.203125 C549.3652832 1007.80705078 548.94150391 1008.41097656 548.50488281 1009.03320312 C532.67044617 1031.59818817 515.21648773 1053.09483272 496.46875 1073.3046875 C494.75180217 1075.16179433 493.04740575 1077.03063269 491.359375 1078.9140625 C485.30478893 1085.64766757 478.99500453 1092.10293089 472.6015625 1098.515625 C471.75795166 1099.36382813 470.91434082 1100.21203125 470.04516602 1101.0859375 C465.67478564 1105.44559038 461.23773903 1109.65777427 456.5559082 1113.68139648 C454.14455755 1115.7582168 451.81401434 1117.91879935 449.4765625 1120.078125 C445.06553077 1124.09693093 440.55170892 1127.93177824 435.90625 1131.67578125 C433.57668308 1133.55360416 431.27648853 1135.46336617 428.984375 1137.38671875 C401.03909313 1160.78616398 370.37231328 1181.05765882 338.7890625 1199.203125 C337.92071777 1199.70344238 337.05237305 1200.20375977 336.15771484 1200.71923828 C323.93628751 1207.7153077 311.39611434 1213.94339282 298.62988281 1219.87988281 C295.92463466 1221.13997606 293.22770886 1222.41654807 290.53125 1223.6953125 C223.43119352 1255.20010538 150.42498159 1272.6728532 76.7890625 1279.203125 C75.40061378 1279.33305344 75.40061378 1279.33305344 73.9841156 1279.46560669 C64.96571099 1280.24602243 55.98525548 1280.38397038 46.94140625 1280.40625 C45.75242831 1280.41049107 45.75242831 1280.41049107 44.53943062 1280.41481781 C40.32226369 1280.42972503 36.10513006 1280.43900083 31.88793945 1280.44335938 C28.48808746 1280.44769019 25.08849697 1280.46138118 21.6887207 1280.484375 C-48.1477275 1280.94661294 -115.9522402 1269.1777478 -182.2109375 1247.203125 C-183.16930511 1246.88538116 -183.16930511 1246.88538116 -184.14703369 1246.56121826 C-212.08905924 1237.25880382 -238.86517363 1225.31905733 -265.2109375 1212.203125 C-266.15420898 1211.73616211 -267.09748047 1211.26919922 -268.06933594 1210.78808594 C-284.6856325 1202.51157131 -300.47487888 1193.02037676 -316.2109375 1183.203125 C-316.98356934 1182.72182129 -317.75620117 1182.24051758 -318.55224609 1181.74462891 C-339.82503629 1168.43407489 -360.1587433 1153.63404796 -379.47851562 1137.63134766 C-381.95404627 1135.5905001 -384.46091965 1133.58885364 -386.9609375 1131.578125 C-391.95745057 1127.4907519 -396.69659629 1123.15903817 -401.42578125 1118.76953125 C-403.73740766 1116.63946315 -406.0770673 1114.56360742 -408.4609375 1112.515625 C-411.87920579 1109.55642166 -415.04007985 1106.3922773 -418.2109375 1103.171875 C-420.14984752 1101.26326045 -422.14793301 1099.47601948 -424.2109375 1097.703125 C-430.47814303 1092.29444077 -436.10417815 1086.4089471 -441.49609375 1080.13671875 C-443.17098049 1078.24817903 -444.91041337 1076.47156852 -446.7109375 1074.703125 C-450.423025 1071.04020422 -453.81829672 1067.16120591 -457.2109375 1063.203125 C-458.10641039 1062.171562 -459.00227369 1061.14033782 -459.8984375 1060.109375 C-467.23024958 1051.64968542 -474.32180813 1043.02671343 -481.2109375 1034.203125 C-481.73929199 1033.53265137 -482.26764648 1032.86217773 -482.81201172 1032.17138672 C-501.49330865 1008.35536703 -518.46807954 982.63221173 -533.2109375 956.203125 C-533.72060059 955.29900879 -534.23026367 954.39489258 -534.75537109 953.46337891 C-574.10046846 883.42403814 -599.72092246 806.77777426 -610.5859375 727.203125 C-610.70763306 726.31470917 -610.82932861 725.42629333 -610.95471191 724.51095581 C-611.66229087 719.27780455 -612.31553974 714.04066696 -612.91433716 708.79394531 C-613.10708738 707.11026152 -613.30586964 705.42725346 -613.51168823 703.74511719 C-615.81228864 684.57225597 -615.55158203 665.27888532 -615.52661133 646.00048828 C-615.52199116 642.14978317 -615.52887187 638.29939474 -615.54711914 634.44873047 C-615.65642213 611.15529652 -615.10171938 588.34041092 -612.2109375 565.203125 C-612.00971852 563.50200677 -611.8089047 561.80084052 -611.60864258 560.09960938 C-611.11616896 556.04207296 -610.55330257 551.99741637 -609.9609375 547.953125 C-609.85800385 547.24564117 -609.75507019 546.53815735 -609.64901733 545.80923462 C-600.724707 484.92961615 -582.7618061 426.14862875 -557.2109375 370.203125 C-556.79344238 369.28692383 -556.37594727 368.37072266 -555.94580078 367.42675781 C-549.64218503 353.6793245 -542.62955176 340.3790328 -535.2109375 327.203125 C-534.7454248 326.37538574 -534.27991211 325.54764648 -533.80029297 324.69482422 C-513.98821534 289.6242797 -490.85327567 256.41537262 -464.61572266 225.84619141 C-463.19494568 224.18442063 -461.78590997 222.51328522 -460.37890625 220.83984375 C-448.82658808 207.14574883 -436.4171814 194.32150248 -423.7734375 181.640625 C-423.25906128 181.12356995 -422.74468506 180.60651489 -422.21472168 180.0737915 C-416.3931639 174.22921535 -410.48860653 168.56161951 -404.2109375 163.203125 C-402.60325377 161.74866983 -400.99854035 160.29091605 -399.3984375 158.828125 C-395.13348442 154.98384255 -390.762329 151.30785595 -386.296875 147.69921875 C-384.06153933 145.89114344 -381.83905545 144.07199737 -379.625 142.23828125 C-369.43644751 133.82829198 -358.94778999 125.89900822 -348.2109375 118.203125 C-347.29860352 117.54876465 -346.38626953 116.8944043 -345.44628906 116.22021484 C-333.11589889 107.41671306 -320.60558681 99.14659446 -307.50292969 91.53955078 C-305.33546308 90.27573397 -303.18137718 88.99226287 -301.03125 87.69921875 C-221.84285221 40.21277249 -134.09854008 13.20210898 -42.71484375 2.3671875 C-41.41200188 2.21143501 -41.41200188 2.21143501 -40.08283997 2.05253601 C-26.69907487 0.50472545 -13.45816641 0.02870598 0 0 Z " fill="#10969C" transform="translate(615.2109375,-0.203125)"/>
<path d="M0 0 C0.88913086 0.18111328 1.77826172 0.36222656 2.69433594 0.54882812 C22.56807295 4.63411868 40.81526263 11.79331799 59.0625 20.5625 C59.6931839 20.86546997 60.3238678 21.16843994 60.97366333 21.48059082 C72.17571642 26.89087908 82.74581589 32.94836161 93 40 C93.62326172 40.42200684 94.24652344 40.84401367 94.88867188 41.27880859 C108.1518678 50.2910717 120.54662873 60.49661085 132.25390625 71.44140625 C134.89964603 73.90649808 137.59756077 76.29917 140.3125 78.6875 C143.95983529 81.95611836 147.20955154 85.37144344 150.36328125 89.11328125 C151.95615725 90.9494605 153.62512156 92.62669033 155.375 94.3125 C159.10514546 97.98449174 162.3496255 101.98878631 165.625 106.06640625 C167.97147313 108.96476368 170.38765018 111.79212257 172.8125 114.625 C177.57821391 120.31093811 181.84738184 126.28898241 186.06567383 132.38916016 C186.79113403 133.43789307 186.79113403 133.43789307 187.53125 134.5078125 C187.95986328 135.13316895 188.38847656 135.75852539 188.83007812 136.40283203 C190.04524152 138.14697115 190.04524152 138.14697115 192 140 C192.53367187 139.21238281 193.06734375 138.42476562 193.6171875 137.61328125 C204.70602918 121.40208536 216.94378965 106.31030117 230.3046875 91.91796875 C232.96611039 89.03668918 235.5762328 86.1141955 238.1875 83.1875 C241.54062575 79.49801054 244.95644218 76.11907439 248.7734375 72.91796875 C251.02491753 70.97853595 253.17398548 68.94894324 255.32568359 66.90014648 C296.06894763 28.34771231 349.50431497 3.24752123 405 -4 C405.68980957 -4.09498779 406.37961914 -4.18997559 407.09033203 -4.2878418 C414.89351647 -5.22432382 422.72668017 -5.18609393 430.57373047 -5.18530273 C432.96730866 -5.18747039 435.3604103 -5.20562903 437.75390625 -5.22460938 C452.99769392 -5.28166073 467.85308261 -3.69927224 482.8125 -0.75 C484.45436279 -0.42902344 484.45436279 -0.42902344 486.12939453 -0.1015625 C493.28604803 1.34326153 500.34835484 3.01724975 507.375 5 C508.17526611 5.22461914 508.97553223 5.44923828 509.80004883 5.68066406 C547.32167193 16.77448838 579.91034332 39.41937334 608 66 C608.680625 66.63808594 609.36125 67.27617187 610.0625 67.93359375 C615.18776116 72.88089445 619.59469084 78.41350339 624 84 C624.73347656 84.928125 625.46695313 85.85625 626.22265625 86.8125 C646.63375583 113.3073312 661.53115498 144.13038649 668 177 C668.286832 178.35566552 668.57460125 179.71113305 668.86328125 181.06640625 C680.42026413 237.54865495 667.80585251 298.40231104 636.3125 346.4375 C628.28794504 358.38482175 618.89413456 369.56439539 609 380 C608.53158691 380.49564453 608.06317383 380.99128906 607.58056641 381.50195312 C599.63896098 389.84659566 591.24137447 397.13623559 582 404 C581.44763672 404.41846191 580.89527344 404.83692383 580.32617188 405.26806641 C560.96610697 419.91382979 539.07126095 431.45641348 516 439 C515.33500488 439.22848633 514.67000977 439.45697266 513.98486328 439.69238281 C498.05206048 445.13629638 481.69272945 448.87809008 465 451 C464.32200851 451.08692108 463.64401703 451.17384216 462.94548035 451.26339722 C457.51828145 451.91528519 452.16300363 452.18686117 446.69921875 452.23828125 C445.83322052 452.2480751 444.96722229 452.25786896 444.07498169 452.26795959 C424.04159662 452.44764174 404.70132311 452.05670714 385 448 C383.48647949 447.69449219 383.48647949 447.69449219 381.94238281 447.3828125 C344.13404227 439.48219829 308.75557315 422.17747083 278 399 C277.41766602 398.56187988 276.83533203 398.12375977 276.23535156 397.67236328 C268.75378986 392.00507008 261.65587962 386.04267928 254.80859375 379.625 C252.17782248 377.16619848 249.50555675 374.76513974 246.8125 372.375 C239.3695248 365.68347903 232.49616935 358.60651656 226 351 C225.11930539 349.99407683 224.23772269 348.98893081 223.35546875 347.984375 C214.46710293 337.81074732 206.2826299 327.14603083 198.25 316.2890625 C197.83451904 315.72912598 197.41903809 315.16918945 196.9909668 314.59228516 C195.89150274 313.10674454 194.79899266 311.61606419 193.70703125 310.125 C192.17293138 307.91262052 192.17293138 307.91262052 190 307 C189.74863281 307.71542969 189.49726562 308.43085937 189.23828125 309.16796875 C184.59783085 319.78098622 174.81808338 329.24590037 167.49121094 338.17236328 C166.21318207 339.73872283 164.95246693 341.31918148 163.6953125 342.90234375 C152.46063691 356.99868199 139.71754095 370.30521509 126 382 C125.05382812 382.82371094 124.10765625 383.64742187 123.1328125 384.49609375 C97.73814827 406.47521724 68.49163319 424.74688249 36.87719727 436.28710938 C35.1018234 436.96133121 33.36323389 437.73019114 31.62890625 438.50390625 C27.14377531 440.35299683 22.61541575 441.66995722 17.9375 442.9375 C16.98085449 443.19692383 16.02420898 443.45634766 15.03857422 443.72363281 C4.80569564 446.42274476 -5.53641349 448.43219154 -16 450 C-17.17336914 450.18022705 -18.34673828 450.3604541 -19.55566406 450.54614258 C-29.2606331 451.91124376 -38.76914174 452.28156022 -48.56347656 452.20581055 C-50.99815414 452.18751387 -53.43244803 452.18530233 -55.8671875 452.18554688 C-71.10440262 452.15448604 -85.83733276 451.43117437 -100.8125 448.3125 C-101.77706116 448.1156662 -101.77706116 448.1156662 -102.7611084 447.91485596 C-139.34870606 440.42399226 -173.88761375 424.44040661 -203 401 C-203.82322754 400.34813721 -203.82322754 400.34813721 -204.66308594 399.68310547 C-219.50208884 387.88119382 -232.80867346 374.29628742 -244 359 C-244.84604192 357.87216154 -245.69239736 356.74455819 -246.5390625 355.6171875 C-271.7378683 321.64301662 -289.00133676 278.3521867 -289.203125 235.76171875 C-289.20882507 234.80086868 -289.21452515 233.84001862 -289.22039795 232.85005188 C-289.22979558 230.82216472 -289.23636094 228.79426265 -289.24023438 226.76635742 C-289.24985275 223.7339237 -289.28089067 220.7021946 -289.3125 217.66992188 C-289.40068774 201.48185601 -287.88336304 185.69394635 -283.75 170 C-283.53802979 169.18426514 -283.32605957 168.36853027 -283.10766602 167.52807617 C-274.10859271 133.90640416 -257.7833179 101.9732099 -234.1171875 76.30078125 C-232.19792507 74.21508832 -230.3429487 72.09043777 -228.5 69.9375 C-221.34099174 61.76046763 -213.49294182 54.76043015 -205 48 C-204.20980469 47.34257812 -203.41960937 46.68515625 -202.60546875 46.0078125 C-183.98182048 30.62708806 -161.26506537 17.0565146 -138.07421875 10.01953125 C-135.43282946 9.14354319 -132.9287819 8.14865279 -130.36328125 7.078125 C-124.85237201 4.85148982 -119.26876624 3.33955897 -113.5 1.9375 C-112.4569873 1.68073486 -111.41397461 1.42396973 -110.33935547 1.15942383 C-101.29917386 -1.01865818 -92.22303874 -2.80440055 -83 -4 C-82.32831787 -4.0928125 -81.65663574 -4.185625 -80.96459961 -4.28125 C-54.09510773 -7.51155807 -26.37082659 -5.59809043 0 0 Z " fill="#FDFEFE" transform="translate(448,416)"/>
<path d="M0 0 C0.69786621 0.12358887 1.39573242 0.24717773 2.11474609 0.37451172 C33.57046944 6.19181093 62.31082833 19.72856083 87 40 C87.80147461 40.65718018 87.80147461 40.65718018 88.61914062 41.32763672 C106.13142049 55.74981975 122.01335196 71.24350359 135.73388672 89.34863281 C136.93509746 90.91534886 138.17174342 92.45470901 139.41015625 93.9921875 C149.87338555 107.09249086 158.59920987 121.54138584 166.9375 136.0625 C167.36869141 136.79364014 167.79988281 137.52478027 168.24414062 138.27807617 C169.79502341 141.0493311 170.99548551 143.27881083 171.015625 146.49609375 C169.53258953 150.15234658 167.74969734 153.56483387 165.8125 157 C165.37397705 157.78109131 164.9354541 158.56218262 164.48364258 159.36694336 C152.46653076 180.39325631 137.90060782 199.77545719 122 218 C121.26523437 218.84691406 120.53046875 219.69382812 119.7734375 220.56640625 C110.31077657 231.28502036 100.29007237 241.211795 89 250 C88.02933594 250.78761719 87.05867188 251.57523438 86.05859375 252.38671875 C52.60461704 279.05778654 13.34874 293.16655699 -29.375 293.1875 C-30.68210937 293.19974609 -31.98921875 293.21199219 -33.3359375 293.22460938 C-74.60556952 293.28602252 -112.73362008 275.01010317 -141.9375 246.5 C-159.60976494 228.7820542 -172.89320104 205.86325325 -179.125 181.625 C-179.38925781 180.635 -179.65351563 179.645 -179.92578125 178.625 C-187.38142971 149.93778408 -184.72953451 115.75923525 -172 89 C-171.42031206 87.71235699 -170.84089411 86.4245924 -170.26171875 85.13671875 C-153.48482192 48.85850968 -120.8745798 21.35706736 -83.85693359 7.17919922 C-57.0804349 -2.56681031 -28.0780338 -4.99944418 0 0 Z " fill="#139BA1" transform="translate(423,494)"/>
<path d="M0 0 C1.05832031 0.56589844 2.11664062 1.13179687 3.20703125 1.71484375 C36.15232714 20.06576217 61.48996213 51.69406135 72.08984375 87.78515625 C72.54037109 89.37650391 72.54037109 89.37650391 73 91 C73.43505859 92.48306641 73.43505859 92.48306641 73.87890625 93.99609375 C75.98317701 101.65075984 76.76964932 109.08461654 77 117 C77.03254883 117.92651367 77.06509766 118.85302734 77.09863281 119.80761719 C77.88852735 145.06030612 74.23129625 167.34026839 63 190 C62.53352051 190.95495361 62.53352051 190.95495361 62.05761719 191.92919922 C54.86980055 206.532484 45.1629128 218.26028016 34 230 C33.03707031 231.05960938 33.03707031 231.05960938 32.0546875 232.140625 C8.28636984 257.45233991 -31.36005641 273.67559351 -65.7277832 275.16113281 C-69.92289736 275.20721236 -74.11712821 275.24666338 -78.3125 275.25 C-79.07321808 275.25067474 -79.83393616 275.25134949 -80.6177063 275.25204468 C-92.32849707 275.23554822 -103.55908115 274.69243645 -115 272 C-115.79921875 271.81775879 -116.5984375 271.63551758 -117.421875 271.44775391 C-127.34385311 269.14251171 -136.74582383 266.30919654 -146 262 C-147.31463192 261.41820257 -148.6297721 260.83755279 -149.9453125 260.2578125 C-164.35605039 253.80541619 -177.46557031 245.59667273 -190 236 C-191.2065625 235.08347656 -191.2065625 235.08347656 -192.4375 234.1484375 C-206.77709393 222.98009992 -220.49899966 210.00170959 -231.80078125 195.7578125 C-234.07536417 192.9054936 -236.43869993 190.14506241 -238.8125 187.375 C-251.69387801 171.92133443 -262.74147731 154.67533116 -272.75 137.25 C-273.41443115 136.12380249 -273.41443115 136.12380249 -274.09228516 134.97485352 C-276.98858088 129.81329529 -276.98858088 129.81329529 -277.03515625 126.49609375 C-275.49655512 122.78603292 -273.66372802 119.30707711 -271.6875 115.8125 C-271.02089355 114.62708618 -271.02089355 114.62708618 -270.34082031 113.41772461 C-255.40815528 87.26483539 -236.61132479 63.84679894 -216 42 C-215.36578125 41.32324219 -214.7315625 40.64648438 -214.078125 39.94921875 C-209.99783941 35.72320868 -205.51924544 32.05754056 -200.94140625 28.3828125 C-198.98894799 26.80113981 -197.05866854 25.19166873 -195.15234375 23.5546875 C-140.92202834 -23.01185521 -63.29148055 -34.48342045 0 0 Z " fill="#16949A" transform="translate(962,512)"/>
<path d="M0 0 C15.18 0 30.36 0 46 0 C46 16.17 46 32.34 46 49 C61.84 49 77.68 49 94 49 C94 63.85 94 78.7 94 94 C78.16 94 62.32 94 46 94 C46 110.17 46 126.34 46 143 C30.82 143 15.64 143 0 143 C0 126.83 0 110.66 0 94 C-15.84 94 -31.68 94 -48 94 C-48 78.82 -48 63.64 -48 48 C-32.16 48 -16.32 48 0 48 C0 32.16 0 16.32 0 0 Z " fill="#FCFEFE" transform="translate(853,569)"/>
<path d="M0 0 C47.19 0 94.38 0 143 0 C143 15.18 143 30.36 143 46 C95.81 46 48.62 46 0 46 C0 30.82 0 15.64 0 0 Z " fill="#FBFDFD" transform="translate(330,617)"/>
<path d="M0 0 C1.3638275 -0.00424107 1.3638275 -0.00424107 2.75520706 -0.00856781 C7.58257576 -0.02348043 12.40991528 -0.0327556 17.23730469 -0.03710938 C21.15634636 -0.04146234 25.07516394 -0.05524119 28.99414062 -0.078125 C52.48218431 -0.2124659 75.4564235 0.3158256 98.7890625 3.203125 C100.47745914 3.39537259 102.16607529 3.58570987 103.85498047 3.7734375 C169.41392027 11.22183004 234.15922817 30.06237762 293.7890625 58.203125 C294.90168457 58.72664551 296.01430664 59.25016602 297.16064453 59.78955078 C311.18422167 66.40313872 325.14453979 73.09634024 338.55322266 80.90185547 C341.00391381 82.3281695 343.4651121 83.73550793 345.92578125 85.14453125 C377.40746572 103.32238231 407.45994437 124.57696669 435.09423828 148.21166992 C438.54943523 151.16653571 442.0562208 154.04360818 445.6015625 156.890625 C449.53023672 160.08480795 453.15995522 163.41366768 456.64453125 167.0859375 C458.43919752 168.85772096 460.26212668 170.47244105 462.1796875 172.10546875 C467.89890524 177.0723838 473.19968108 182.46448132 478.54370117 187.82739258 C480.34768335 189.63673433 482.15694915 191.44066819 483.96679688 193.24414062 C489.78863784 199.06262592 495.46552275 204.91914789 500.7890625 211.203125 C502.24351767 212.81080873 503.70127145 214.41552215 505.1640625 216.015625 C509.41333221 220.72988214 513.45127657 225.58735585 517.43505859 230.52685547 C519.63393603 233.24908635 521.84380079 235.96237844 524.05175781 238.67724609 C526.63259521 241.85112996 529.21093036 245.02704355 531.7890625 248.203125 C531.4590625 248.863125 531.1290625 249.523125 530.7890625 250.203125 C526.73816849 245.74283213 522.77316044 241.24600538 519.0390625 236.515625 C510.57700893 225.83889335 501.52159087 215.71010202 492.22851562 205.75585938 C489.95364535 203.30196267 487.7201169 200.81063786 485.4765625 198.328125 C477.06680925 189.15052471 468.38506275 180.03074235 458.86328125 171.99609375 C456.57825076 170.0208979 454.37557879 167.97132406 452.16918945 165.90917969 C445.91213006 160.06456456 439.47195324 154.55990687 432.7890625 149.203125 C431.56131153 148.19676068 430.33482884 147.18884779 429.109375 146.1796875 C395.66081158 118.68488568 358.88021878 93.05653258 319.7890625 74.203125 C319.7890625 73.543125 319.7890625 72.883125 319.7890625 72.203125 C318.8196875 71.97625 317.8503125 71.749375 316.8515625 71.515625 C312.93020156 70.40536016 309.69880538 68.53848838 306.19140625 66.5 C302.95266141 64.75160441 299.59681424 63.46873267 296.1484375 62.1953125 C293.7890625 61.203125 293.7890625 61.203125 291.37109375 59.734375 C288.56050221 58.06757941 285.79055958 56.95956382 282.7265625 55.828125 C277.31216206 53.79314154 271.96861977 51.63547516 266.63671875 49.39453125 C256.66912245 45.22427491 246.6111553 41.40996218 236.33984375 38.05859375 C234.99988594 37.62018913 234.99988594 37.62018913 233.63285828 37.17292786 C231.74472372 36.55599086 229.85627476 35.94001535 227.9675293 35.32495117 C225.1534402 34.40753751 222.34133965 33.48421056 219.52929688 32.56054688 C210.24016419 29.52319177 200.92901485 26.59640719 191.53515625 23.8984375 C190.70575027 23.6593718 189.8763443 23.42030609 189.02180481 23.17399597 C182.47718579 21.32274402 175.87812449 19.78949653 169.21891785 18.4099884 C163.88216685 17.29622935 163.88216685 17.29622935 162.7890625 16.203125 C160.35549883 15.72159736 157.93234228 15.29366914 155.484375 14.8984375 C154.3656324 14.71296356 154.3656324 14.71296356 153.22428894 14.52374268 C150.78821449 14.12102002 148.35121149 13.7242891 145.9140625 13.328125 C144.23588778 13.05310116 142.55774651 12.77787305 140.87963867 12.50244141 C137.60715123 11.96606233 134.33425219 11.43229811 131.06103516 10.90039062 C127.8159943 10.37233502 124.57323472 9.83244398 121.33203125 9.28125 C111.31399237 7.59893345 101.24338267 6.32882607 91.1640625 5.078125 C90.47776764 4.99149597 89.79147278 4.90486694 89.0843811 4.81561279 C73.21688053 2.8242385 57.41712007 2.04254858 41.43359375 2 C40.69228399 1.99717262 39.95097424 1.99434525 39.18720055 1.99143219 C35.25573779 1.97660304 31.32431011 1.96727421 27.39282227 1.96289062 C24.22180501 1.95853383 21.05106411 1.94472712 17.88012695 1.921875 C-1.90590325 1.78224664 -21.23540873 2.44231425 -40.89710999 4.81016541 C-45.48225328 5.3538799 -50.07366351 5.83150647 -54.6660614 6.30941772 C-74.47426002 7.6803859 -74.47426002 7.6803859 -93.2109375 13.203125 C-95.31188724 13.47885592 -97.41701385 13.72291476 -99.5234375 13.953125 C-119.1693964 16.35959171 -138.55811046 22.44758354 -157.390625 28.37109375 C-159.88769511 29.10776402 -162.34774788 29.69209833 -164.8984375 30.203125 C-169.03141006 31.0538097 -172.71908112 32.5675641 -176.6015625 34.1953125 C-180.12516955 35.5562266 -183.71198755 36.48723124 -187.375 37.39453125 C-191.07233978 38.44873143 -194.63154728 39.80991377 -198.2109375 41.203125 C-198.99807129 41.50919678 -199.78520508 41.81526855 -200.59619141 42.13061523 C-203.13775622 43.12575823 -205.6747324 44.13190706 -208.2109375 45.140625 C-209.48710938 45.64239258 -209.48710938 45.64239258 -210.7890625 46.15429688 C-215.4576644 48.01242907 -219.98126801 49.99960274 -224.43408203 52.33056641 C-226.28374734 53.23887965 -228.14398916 53.9544114 -230.0859375 54.640625 C-234.01132646 56.05131166 -237.64238284 57.87860921 -241.328125 59.82421875 C-243.74717481 60.98129813 -246.13274312 61.9554375 -248.6328125 62.9140625 C-255.49969588 65.63175438 -262.03294756 69.00239618 -268.5859375 72.390625 C-269.25513214 72.73538879 -269.92432678 73.08015259 -270.61380005 73.43536377 C-284.22186947 80.47005907 -297.29813736 88.24749362 -310.27929688 96.37158203 C-312.81471018 97.95558192 -315.35982096 99.52085732 -317.9140625 101.07421875 C-327.65542166 107.02174532 -336.97267198 113.50523295 -346.2109375 120.203125 C-347.41000732 121.07106689 -347.41000732 121.07106689 -348.63330078 121.95654297 C-358.0495989 128.78913455 -367.29858796 135.72185226 -376.2109375 143.203125 C-377.98056723 144.64210643 -379.75143851 146.07956214 -381.5234375 147.515625 C-385.7458865 150.97527027 -389.93056002 154.47594472 -394.0859375 158.015625 C-394.60196533 158.45237549 -395.11799316 158.88912598 -395.6496582 159.33911133 C-407.35324944 169.35939408 -418.33551496 180.14120428 -429.22363281 191.03051758 C-431.46660271 193.27128464 -433.7174941 195.50388971 -435.96875 197.73632812 C-442.82633311 204.56776522 -449.46239553 211.37166384 -455.45654297 218.9831543 C-457.71300964 221.8384356 -460.14090985 224.44150467 -462.6484375 227.078125 C-467.77226476 232.57101869 -472.36247611 238.40498947 -476.86132812 244.41650391 C-478.27738519 246.29108885 -479.71755451 248.14491906 -481.1640625 249.99609375 C-500.62992162 274.98148642 -517.86210098 301.51289398 -533.2109375 329.203125 C-533.7354248 330.14381836 -534.25991211 331.08451172 -534.80029297 332.05371094 C-546.11780725 352.40415867 -556.22938355 373.1884534 -565.2734375 394.640625 C-565.55147217 395.29725128 -565.82950684 395.95387756 -566.1159668 396.63040161 C-568.96345728 403.37792347 -571.61798611 410.0919529 -573.60864258 417.14868164 C-574.37648084 419.76779755 -575.40610924 422.21505383 -576.5234375 424.703125 C-605.07314722 491.94408312 -613.41607861 570.6651672 -613.4609375 642.890625 C-613.46194458 644.03688354 -613.46295166 645.18314209 -613.46398926 646.36413574 C-613.45239811 666.05612541 -612.59456834 685.49589437 -610.44525146 705.06762695 C-610.20554518 707.25226968 -609.97275327 709.43757667 -609.74072266 711.62304688 C-607.95391266 728.29025499 -605.7434321 744.80548382 -602.2109375 761.203125 C-602.00774902 762.17717285 -601.80456055 763.1512207 -601.59521484 764.15478516 C-595.30661059 794.26400239 -587.1320862 823.54926227 -577.09921265 852.61317444 C-575.85545826 856.2343237 -574.70772174 859.86128884 -573.671875 863.546875 C-572.36329196 868.03708318 -570.50074082 872.1617783 -568.51416016 876.38964844 C-567.2268392 879.16879545 -566.0395006 881.97050729 -564.87890625 884.8046875 C-554.06003407 911.14142722 -541.70748846 936.68683125 -527.2109375 961.203125 C-526.45369385 962.49863281 -526.45369385 962.49863281 -525.68115234 963.8203125 C-518.61488417 975.9066935 -511.14387621 987.66760133 -503.2109375 999.203125 C-502.47641357 1000.27191895 -502.47641357 1000.27191895 -501.72705078 1001.36230469 C-494.70572823 1011.53430973 -487.35768045 1021.4299445 -479.77490234 1031.18945312 C-478.26548409 1033.13289392 -476.76326015 1035.08172098 -475.26171875 1037.03125 C-470.51682826 1043.1625548 -465.64774535 1049.06731043 -460.390625 1054.7734375 C-458.06471369 1057.36612 -455.88755942 1060.04673049 -453.7109375 1062.765625 C-450.22693708 1067.07510287 -446.55125474 1071.0119022 -442.546875 1074.83984375 C-440.62004204 1076.78923161 -438.84231513 1078.76704268 -437.05859375 1080.84375 C-432.69037839 1085.87855127 -427.99549328 1090.56482378 -423.2734375 1095.265625 C-421.99049805 1096.55436523 -421.99049805 1096.55436523 -420.68164062 1097.86914062 C-416.26006761 1102.2839683 -411.7758372 1106.55223165 -407.03588867 1110.62329102 C-404.23026698 1113.05207737 -401.54147009 1115.60169759 -398.8359375 1118.140625 C-394.26025193 1122.39780048 -389.58875442 1126.43592902 -384.66015625 1130.28515625 C-382.03587527 1132.3402152 -379.46720728 1134.45416384 -376.8984375 1136.578125 C-360.40024611 1150.08083471 -343.11382582 1162.62945227 -325.2109375 1174.203125 C-324.48825684 1174.67073242 -323.76557617 1175.13833984 -323.02099609 1175.62011719 C-299.68930395 1190.65907066 -275.25685382 1205.75487515 -249.7109375 1216.703125 C-247.20795212 1217.77583302 -244.86459016 1218.88505847 -242.4609375 1220.140625 C-239.32066246 1221.74107405 -236.16295847 1222.97851063 -232.8359375 1224.140625 C-229.25190647 1225.39895283 -225.9375127 1226.7940382 -222.5859375 1228.578125 C-217.55025518 1231.18333604 -212.35813845 1233.00245082 -207.0065918 1234.83154297 C-201.73700522 1236.63907707 -196.56763122 1238.62793034 -191.3984375 1240.703125 C-183.37395292 1243.89365657 -175.22269746 1246.4012571 -166.93359375 1248.8046875 C-162.89536452 1249.98058888 -158.93035436 1251.31050277 -154.9609375 1252.703125 C-139.89339363 1257.78556116 -124.27191939 1261.20454275 -108.63427734 1263.99829102 C-107.40765381 1264.21763306 -107.40765381 1264.21763306 -106.15625 1264.44140625 C-105.43969238 1264.56555908 -104.72313477 1264.68971191 -103.98486328 1264.81762695 C-102.2109375 1265.203125 -102.2109375 1265.203125 -100.2109375 1266.203125 C-98.075016 1266.47718417 -95.93897289 1266.64757743 -93.79296875 1266.82421875 C-91.2109375 1267.203125 -91.2109375 1267.203125 -87.81640625 1268.1796875 C-84.408972 1269.14691152 -81.22153184 1269.71000303 -77.7109375 1270.140625 C-76.37364657 1270.30687914 -75.03641041 1270.47357426 -73.69921875 1270.640625 C-72.97686035 1270.72957031 -72.25450195 1270.81851562 -71.51025391 1270.91015625 C-69.10901695 1271.21611127 -66.71304425 1271.55058359 -64.31640625 1271.890625 C-58.28995805 1272.73631498 -52.25385689 1273.4853366 -46.2109375 1274.203125 C-44.52315186 1274.40687744 -44.52315186 1274.40687744 -42.80126953 1274.61474609 C-19.46276565 1277.32330753 3.8897883 1277.66157621 27.35839844 1277.82470703 C28.62605042 1277.83667618 29.89370239 1277.84864532 31.19976807 1277.86097717 C33.6116101 1277.88295006 36.02354726 1277.89648614 38.43548584 1277.90061951 C40.04426605 1277.91609581 40.04426605 1277.91609581 41.68554688 1277.93188477 C43.09725159 1277.93829735 43.09725159 1277.93829735 44.53747559 1277.94483948 C46.7890625 1278.203125 46.7890625 1278.203125 48.7890625 1280.203125 C-19.77803222 1280.85866963 -19.77803222 1280.85866963 -49.2109375 1277.203125 C-49.91343628 1277.11826843 -50.61593506 1277.03341187 -51.33972168 1276.94598389 C-96.02311784 1271.54520409 -139.5089526 1261.3651905 -182.2109375 1247.203125 C-183.16930511 1246.88538116 -183.16930511 1246.88538116 -184.14703369 1246.56121826 C-212.08905924 1237.25880382 -238.86517363 1225.31905733 -265.2109375 1212.203125 C-266.15420898 1211.73616211 -267.09748047 1211.26919922 -268.06933594 1210.78808594 C-284.6856325 1202.51157131 -300.47487888 1193.02037676 -316.2109375 1183.203125 C-316.98356934 1182.72182129 -317.75620117 1182.24051758 -318.55224609 1181.74462891 C-339.82503629 1168.43407489 -360.1587433 1153.63404796 -379.47851562 1137.63134766 C-381.95404627 1135.5905001 -384.46091965 1133.58885364 -386.9609375 1131.578125 C-391.95745057 1127.4907519 -396.69659629 1123.15903817 -401.42578125 1118.76953125 C-403.73740766 1116.63946315 -406.0770673 1114.56360742 -408.4609375 1112.515625 C-411.87920579 1109.55642166 -415.04007985 1106.3922773 -418.2109375 1103.171875 C-420.14984752 1101.26326045 -422.14793301 1099.47601948 -424.2109375 1097.703125 C-430.47814303 1092.29444077 -436.10417815 1086.4089471 -441.49609375 1080.13671875 C-443.17098049 1078.24817903 -444.91041337 1076.47156852 -446.7109375 1074.703125 C-450.423025 1071.04020422 -453.81829672 1067.16120591 -457.2109375 1063.203125 C-458.10641039 1062.171562 -459.00227369 1061.14033782 -459.8984375 1060.109375 C-467.23024958 1051.64968542 -474.32180813 1043.02671343 -481.2109375 1034.203125 C-481.73929199 1033.53265137 -482.26764648 1032.86217773 -482.81201172 1032.17138672 C-501.49330865 1008.35536703 -518.46807954 982.63221173 -533.2109375 956.203125 C-533.72060059 955.29900879 -534.23026367 954.39489258 -534.75537109 953.46337891 C-574.10046846 883.42403814 -599.72092246 806.77777426 -610.5859375 727.203125 C-610.70763306 726.31470917 -610.82932861 725.42629333 -610.95471191 724.51095581 C-611.66229087 719.27780455 -612.31553974 714.04066696 -612.91433716 708.79394531 C-613.10708738 707.11026152 -613.30586964 705.42725346 -613.51168823 703.74511719 C-615.81228864 684.57225597 -615.55158203 665.27888532 -615.52661133 646.00048828 C-615.52199116 642.14978317 -615.52887187 638.29939474 -615.54711914 634.44873047 C-615.65642213 611.15529652 -615.10171938 588.34041092 -612.2109375 565.203125 C-612.00971852 563.50200677 -611.8089047 561.80084052 -611.60864258 560.09960938 C-611.11616896 556.04207296 -610.55330257 551.99741637 -609.9609375 547.953125 C-609.85800385 547.24564117 -609.75507019 546.53815735 -609.64901733 545.80923462 C-600.724707 484.92961615 -582.7618061 426.14862875 -557.2109375 370.203125 C-556.79344238 369.28692383 -556.37594727 368.37072266 -555.94580078 367.42675781 C-549.64218503 353.6793245 -542.62955176 340.3790328 -535.2109375 327.203125 C-534.7454248 326.37538574 -534.27991211 325.54764648 -533.80029297 324.69482422 C-513.98821534 289.6242797 -490.85327567 256.41537262 -464.61572266 225.84619141 C-463.19494568 224.18442063 -461.78590997 222.51328522 -460.37890625 220.83984375 C-448.82658808 207.14574883 -436.4171814 194.32150248 -423.7734375 181.640625 C-423.25906128 181.12356995 -422.74468506 180.60651489 -422.21472168 180.0737915 C-416.3931639 174.22921535 -410.48860653 168.56161951 -404.2109375 163.203125 C-402.60325377 161.74866983 -400.99854035 160.29091605 -399.3984375 158.828125 C-395.13348442 154.98384255 -390.762329 151.30785595 -386.296875 147.69921875 C-384.06153933 145.89114344 -381.83905545 144.07199737 -379.625 142.23828125 C-369.43644751 133.82829198 -358.94778999 125.89900822 -348.2109375 118.203125 C-347.29860352 117.54876465 -346.38626953 116.8944043 -345.44628906 116.22021484 C-333.11589889 107.41671306 -320.60558681 99.14659446 -307.50292969 91.53955078 C-305.33546308 90.27573397 -303.18137718 88.99226287 -301.03125 87.69921875 C-221.84285221 40.21277249 -134.09854008 13.20210898 -42.71484375 2.3671875 C-41.41200188 2.21143501 -41.41200188 2.21143501 -40.08283997 2.05253601 C-26.69907487 0.50472545 -13.45816641 0.02870598 0 0 Z " fill="#77C4C6" transform="translate(615.2109375,-0.203125)"/>
<path d="M0 0 C0.66 0 1.32 0 2 0 C2.29543701 0.63164063 2.59087402 1.26328125 2.89526367 1.9140625 C17.33005227 32.6610206 33.73635724 62.00761955 53 90 C53.48678223 90.70817871 53.97356445 91.41635742 54.47509766 92.14599609 C61.4993404 102.32246902 68.84997883 112.22260022 76.43603516 121.98632812 C77.94545341 123.92976892 79.44767735 125.87859598 80.94921875 127.828125 C85.69410924 133.9594298 90.56319215 139.86418543 95.8203125 145.5703125 C98.14622381 148.162995 100.32337808 150.84360549 102.5 153.5625 C105.98400042 157.87197787 109.65968276 161.8087772 113.6640625 165.63671875 C115.59089546 167.58610661 117.36862237 169.56391768 119.15234375 171.640625 C123.52055911 176.67542627 128.21544422 181.36169878 132.9375 186.0625 C133.79279297 186.92166016 134.64808594 187.78082031 135.52929688 188.66601562 C139.95086989 193.0808433 144.4351003 197.34910665 149.17504883 201.42016602 C151.98067052 203.84895237 154.66946741 206.39857259 157.375 208.9375 C161.95068557 213.19467548 166.62218308 217.23280402 171.55078125 221.08203125 C174.17506223 223.1370902 176.74373022 225.25103884 179.3125 227.375 C195.81069139 240.87770971 213.09711168 253.42632727 231 265 C231.72268066 265.46760742 232.44536133 265.93521484 233.18994141 266.41699219 C256.52163355 281.45594566 280.95408368 296.55175015 306.5 307.5 C309.00298538 308.57270802 311.34634734 309.68193347 313.75 310.9375 C316.89027504 312.53794905 320.04797903 313.77538563 323.375 314.9375 C326.95903103 316.19582783 330.2734248 317.5909132 333.625 319.375 C338.66068232 321.98021104 343.85279905 323.79932582 349.2043457 325.62841797 C354.47393228 327.43595207 359.64330628 329.42480534 364.8125 331.5 C372.83698458 334.69053157 380.98824004 337.1981321 389.27734375 339.6015625 C393.31557298 340.77746388 397.28058314 342.10737777 401.25 343.5 C416.31754387 348.58243616 431.93901811 352.00141775 447.57666016 354.79516602 C448.39440918 354.94139404 449.2121582 355.08762207 450.0546875 355.23828125 C451.12952393 355.4245105 451.12952393 355.4245105 452.22607422 355.61450195 C454 356 454 356 456 357 C458.1359215 357.27405917 460.27196461 357.44445243 462.41796875 357.62109375 C465 358 465 358 468.39453125 358.9765625 C471.8019655 359.94378652 474.98940566 360.50687803 478.5 360.9375 C479.83729093 361.10375414 481.17452709 361.27044926 482.51171875 361.4375 C483.23407715 361.52644531 483.95643555 361.61539062 484.70068359 361.70703125 C487.10192055 362.01298627 489.49789325 362.34745859 491.89453125 362.6875 C497.92097945 363.53318998 503.95708061 364.2822116 510 365 C511.12519043 365.13583496 512.25038086 365.27166992 513.40966797 365.41162109 C536.74817185 368.12018253 560.1007258 368.45845121 583.56933594 368.62158203 C585.4708139 368.63953575 585.4708139 368.63953575 587.41070557 368.65785217 C589.8225476 368.67982506 592.23448476 368.69336114 594.64642334 368.69749451 C595.71894348 368.70781204 596.79146362 368.71812958 597.89648438 368.72875977 C598.83762085 368.73303482 599.77875732 368.73730988 600.74841309 368.74171448 C603 369 603 369 605 371 C536.43290528 371.65554463 536.43290528 371.65554463 507 368 C505.94625183 367.87271515 505.94625183 367.87271515 504.87121582 367.74285889 C460.18781966 362.34207909 416.7019849 352.1620655 374 338 C373.36108826 337.78817078 372.72217651 337.57634155 372.06390381 337.35809326 C344.12187826 328.05567882 317.34576387 316.11593233 291 303 C290.05672852 302.53303711 289.11345703 302.06607422 288.14160156 301.58496094 C271.525305 293.30844631 255.73605862 283.81725176 240 274 C239.22736816 273.51869629 238.45473633 273.03739258 237.65869141 272.54150391 C216.38590121 259.23094989 196.0521942 244.43092296 176.73242188 228.42822266 C174.25689123 226.3873751 171.75001785 224.38572864 169.25 222.375 C164.25348693 218.2876269 159.51434121 213.95591317 154.78515625 209.56640625 C152.47352984 207.43633815 150.1338702 205.36048242 147.75 203.3125 C144.33173171 200.35329666 141.17085765 197.1891523 138 193.96875 C136.06108998 192.06013545 134.06300449 190.27289448 132 188.5 C125.73279447 183.09131577 120.10675935 177.2058221 114.71484375 170.93359375 C113.03995701 169.04505403 111.30052413 167.26844352 109.5 165.5 C105.7879125 161.83707922 102.39264078 157.95808091 99 154 C98.10452711 152.968437 97.20866381 151.93721282 96.3125 150.90625 C88.98068792 142.44656042 81.88912937 133.82358843 75 125 C74.47164551 124.32952637 73.94329102 123.65905273 73.39892578 122.96826172 C54.72534467 99.16207861 37.69964822 73.44168005 23 47 C22.195625 45.55608887 22.195625 45.55608887 21.375 44.08300781 C15.44648796 33.38904251 9.71164014 22.59595391 4.1875 11.6875 C3.76057861 10.85138184 3.33365723 10.01526367 2.89379883 9.15380859 C2.5098999 8.38504395 2.12600098 7.6162793 1.73046875 6.82421875 C1.22616333 5.82007935 1.22616333 5.82007935 0.71166992 4.7956543 C0 3 0 3 0 0 Z " fill="#85C6C8" transform="translate(59,909)"/>
<path d="M0 0 C-4.0275174 9.57606532 -15.89618777 16.25094998 -23.98486328 22.45166016 C-25.34384344 23.495839 -26.69891738 24.54511893 -28.05029297 25.59912109 C-51.99585256 44.26120175 -77.68961669 60.88394453 -104 76 C-105.30251709 76.75047607 -105.30251709 76.75047607 -106.63134766 77.51611328 C-118.85277499 84.5121827 -131.39294816 90.74026782 -144.15917969 96.67675781 C-146.86442784 97.93685106 -149.56135364 99.21342307 -152.2578125 100.4921875 C-223.9225932 134.14020795 -307.6334524 156.76835328 -387.1875 157.1875 C-388.43917969 157.20167969 -389.69085937 157.21585938 -390.98046875 157.23046875 C-394 157 -394 157 -396 155 C-394.77369873 154.91435791 -393.54739746 154.82871582 -392.28393555 154.74047852 C-387.73824204 154.42198397 -383.19292529 154.09836689 -378.64770508 153.77319336 C-376.67970534 153.63312047 -374.71160593 153.49444072 -372.7434082 153.35717773 C-369.9159051 153.15974432 -367.0887972 152.95731885 -364.26171875 152.75390625 C-363.38037766 152.6934462 -362.49903656 152.63298615 -361.59098816 152.57069397 C-360.77036392 152.51070724 -359.94973969 152.45072052 -359.10424805 152.38891602 C-358.38254929 152.33784195 -357.66085052 152.28676788 -356.9172821 152.23414612 C-354.78224173 152.03791008 -354.78224173 152.03791008 -352 151 C-349.33349648 150.69942315 -346.67150186 150.43426634 -344 150.1875 C-313.10984965 147.09848496 -283.00662894 140.81795966 -253 133 C-251.82228027 132.69989014 -250.64456055 132.39978027 -249.43115234 132.09057617 C-239.77340855 129.58844112 -230.32804384 126.61642109 -220.875 123.4375 C-220.09720184 123.17677704 -219.31940369 122.91605408 -218.51803589 122.64743042 C-175.39225238 108.16135823 -133.80348562 90.13987122 -94.76806641 66.65966797 C-92.09866677 65.05915829 -89.41717628 63.48139814 -86.73046875 61.91015625 C-75.13294658 55.09691788 -63.98138924 47.76440976 -53 40 C-51.83525146 39.17749756 -51.83525146 39.17749756 -50.64697266 38.33837891 C-40.5368611 31.17398143 -30.64653046 23.77723389 -21 16 C-20.00097656 15.195625 -19.00195312 14.39125 -17.97265625 13.5625 C-13.05176941 9.56638888 -8.23159601 5.49923875 -3.55859375 1.21484375 C-2 0 -2 0 0 0 Z " fill="#4D9DA0" transform="translate(1058,1123)"/>
<path d="M0 0 C2.98467764 1.11925412 5.80450757 2.40091548 8.625 3.875 C11.80830464 5.4965706 15.00236663 6.76088921 18.375 7.9375 C21.95903103 9.19582783 25.2734248 10.5909132 28.625 12.375 C33.66068232 14.98021104 38.85279905 16.79932582 44.2043457 18.62841797 C49.47393228 20.43595207 54.64330628 22.42480534 59.8125 24.5 C67.83698458 27.69053157 75.98824004 30.1981321 84.27734375 32.6015625 C88.31557298 33.77746388 92.28058314 35.10737777 96.25 36.5 C111.31754387 41.58243616 126.93901811 45.00141775 142.57666016 47.79516602 C143.39440918 47.94139404 144.2121582 48.08762207 145.0546875 48.23828125 C145.77124512 48.36243408 146.48780273 48.48658691 147.22607422 48.61450195 C149 49 149 49 151 50 C153.1359215 50.27405917 155.27196461 50.44445243 157.41796875 50.62109375 C160 51 160 51 163.39453125 51.9765625 C166.8019655 52.94378652 169.98940566 53.50687803 173.5 53.9375 C174.83729093 54.10375414 176.17452709 54.27044926 177.51171875 54.4375 C178.59525635 54.57091797 178.59525635 54.57091797 179.70068359 54.70703125 C182.10192055 55.01298627 184.49789325 55.34745859 186.89453125 55.6875 C192.92097945 56.53318998 198.95708061 57.2822116 205 58 C206.12519043 58.13583496 207.25038086 58.27166992 208.40966797 58.41162109 C231.74817185 61.12018253 255.1007258 61.45845121 278.56933594 61.62158203 C279.83698792 61.63355118 281.10463989 61.64552032 282.41070557 61.65785217 C284.8225476 61.67982506 287.23448476 61.69336114 289.64642334 61.69749451 C290.71894348 61.70781204 291.79146362 61.71812958 292.89648438 61.72875977 C293.83762085 61.73303482 294.77875732 61.73730988 295.74841309 61.74171448 C298 62 298 62 300 64 C231.43290528 64.65554463 231.43290528 64.65554463 202 61 C201.29750122 60.91514343 200.59500244 60.83028687 199.87121582 60.74285889 C155.18781966 55.34207909 111.7019849 45.1620655 69 31 C68.04163239 30.68225616 68.04163239 30.68225616 67.06390381 30.35809326 C44.05535344 22.69812349 22.03388494 13.07511951 0 3 C0 2.01 0 1.02 0 0 Z " fill="#6AAFB2" transform="translate(364,1216)"/>
<path d="M0 0 C0.33 0 0.66 0 1 0 C4.23311718 17.73679016 7.24765563 35.46003132 9.3125 53.375 C9.39326782 54.07067078 9.47403564 54.76634155 9.55725098 55.48309326 C10.0751774 59.98509991 10.57774069 64.48791033 11 69 C11.08661896 69.88311859 11.17323792 70.76623718 11.26248169 71.67611694 C12.14062503 81.59381494 12.18216936 91.48172082 12.203125 101.4296875 C12.20736607 102.81006384 12.20736607 102.81006384 12.21169281 104.21832657 C12.22660666 109.10404993 12.23588111 113.98974445 12.24023438 118.87548828 C12.24458793 122.84303135 12.25836893 126.81035314 12.28125 130.77783203 C12.41467959 154.40000264 11.95655171 177.53746952 9 201 C8.79841265 202.69961931 8.59748822 204.39931748 8.39746094 206.09912109 C7.90541514 210.15818919 7.34257861 214.20425073 6.75 218.25 C6.64706635 218.95748383 6.54413269 219.66496765 6.43807983 220.39389038 C1.00548026 257.453851 -7.713037 293.76281917 -19.5 329.3125 C-19.76138763 330.10510223 -20.02277527 330.89770447 -20.29208374 331.71432495 C-21.02852041 333.93415838 -21.77690042 336.14947917 -22.53125 338.36328125 C-22.75166458 339.02484222 -22.97207916 339.6864032 -23.19917297 340.36801147 C-24.76727453 344.88363726 -24.76727453 344.88363726 -27 346 C-26.41358928 338.93220762 -23.8973256 332.59278257 -21.5625 325.9375 C-17.34938185 313.71885719 -13.80469195 301.38448659 -10.5625 288.875 C-10.35376251 288.06988983 -10.14502502 287.26477966 -9.92996216 286.43527222 C-8.76787226 281.93796993 -7.62333076 277.43647882 -6.48962402 272.9319458 C-6.05147007 271.20308926 -5.60215654 269.47706989 -5.15136719 267.75146484 C-3.10794399 259.85857796 -1.54461992 251.90154694 -0.125 243.875 C0.00217407 243.15900635 0.12934814 242.4430127 0.26037598 241.70532227 C2.49124244 229.01869865 4.22583443 216.28932932 5.75 203.5 C5.85068787 202.66563416 5.95137573 201.83126831 6.05511475 200.97161865 C9.05383969 175.88412131 10.4109112 150.9535512 10.375 125.6875 C10.37486216 124.63371784 10.37486216 124.63371784 10.37472153 123.55864716 C10.36892126 89.0922297 7.62663954 55.25403647 2.35173035 21.19146729 C1.26063969 14.13851743 0.47008612 7.12142897 0 0 Z " fill="#3BA2A4" transform="translate(1267,514)"/>
<path d="M0 0 C1.19447573 3.58342719 0.76728072 4.2519517 -0.640625 7.64453125 C-1.04192627 8.61213379 -1.44322754 9.57973633 -1.85668945 10.57666016 C-2.31648193 11.6444873 -2.77627441 12.71231445 -3.25 13.8125 C-3.73235107 14.93962402 -4.21470215 16.06674805 -4.71166992 17.22802734 C-15.79680034 42.62502542 -28.51873426 67.37767849 -43 91 C-44.1213005 92.85273947 -45.24239335 94.70560463 -46.36328125 96.55859375 C-52.89500714 107.28989972 -59.74686663 117.74425469 -67 128 C-67.4237793 128.60392578 -67.84755859 129.20785156 -68.28417969 129.83007812 C-86.13191361 155.26412785 -105.88499634 180.12236668 -128 202 C-127.53870238 197.33759905 -125.8933916 195.50655583 -122.5 192.375 C-118.00501764 188.06544366 -114.07967822 183.55773816 -110.19921875 178.6953125 C-108.13166588 176.16136671 -105.97719246 173.76852195 -103.75 171.375 C-97.89281125 164.94538094 -92.76134961 157.96309592 -87.53417969 151.02197266 C-86.20876882 149.27514693 -84.8670736 147.54472492 -83.5078125 145.82421875 C-49.8293171 103.01737696 -22.46824909 53.69803137 -2.00024414 3.29858398 C-1 1 -1 1 0 0 Z " fill="#309699" transform="translate(1232,879)"/>
<path d="M0 0 C-4.0275174 9.57606532 -15.89618777 16.25094998 -23.98486328 22.45166016 C-25.34384344 23.495839 -26.69891738 24.54511893 -28.05029297 25.59912109 C-51.99585256 44.26120175 -77.68961669 60.88394453 -104 76 C-105.30251709 76.75047607 -105.30251709 76.75047607 -106.63134766 77.51611328 C-122.59869706 86.65650922 -139.15708029 94.61002985 -156 102 C-156.33 101.01 -156.66 100.02 -157 99 C-156.23147705 98.63350342 -155.4629541 98.26700684 -154.67114258 97.8894043 C-107.12155758 75.17571758 -62.11923411 49.15118346 -21 16 C-20.00097656 15.195625 -19.00195312 14.39125 -17.97265625 13.5625 C-13.05176941 9.56638888 -8.23159601 5.49923875 -3.55859375 1.21484375 C-2 0 -2 0 0 0 Z " fill="#3E989B" transform="translate(1058,1123)"/>
<path d="M0 0 C2.98467764 1.11925412 5.80450757 2.40091548 8.625 3.875 C11.80830464 5.4965706 15.00236663 6.76088921 18.375 7.9375 C21.95903103 9.19582783 25.2734248 10.5909132 28.625 12.375 C33.66068232 14.98021104 38.85279905 16.79932582 44.2043457 18.62841797 C49.47393228 20.43595207 54.64330628 22.42480534 59.8125 24.5 C67.83698458 27.69053157 75.98824004 30.1981321 84.27734375 32.6015625 C88.31557298 33.77746388 92.28058314 35.10737777 96.25 36.5 C104.88703466 39.43925519 113.73312775 41.51888305 122.59375 43.66796875 C126.76290613 44.6806637 130.88668346 45.78102558 135 47 C135 47.33 135 47.66 135 48 C128.2786443 48.4500053 122.33795624 46.79428147 115.875 45.0625 C114.69067383 44.74893555 113.50634766 44.43537109 112.28613281 44.11230469 C73.41256557 33.66088306 36.55455384 19.69924895 0 3 C0 2.01 0 1.02 0 0 Z " fill="#7FBBBE" transform="translate(364,1216)"/>
<path d="M0 0 C-6.45770201 3.24767813 -13.02752984 4.29549614 -20.125 5.4375 C-21.41656006 5.64922852 -22.70812012 5.86095703 -24.03881836 6.07910156 C-47.33909277 9.80643291 -71.57160134 13.06307482 -95.1875 13.1875 C-97.06501953 13.20876953 -97.06501953 13.20876953 -98.98046875 13.23046875 C-102 13 -102 13 -104 11 C-102.77369873 10.91435791 -101.54739746 10.82871582 -100.28393555 10.74047852 C-95.73824204 10.42198397 -91.19292529 10.09836689 -86.64770508 9.77319336 C-84.67970534 9.63312047 -82.71160593 9.49444072 -80.7434082 9.35717773 C-77.9159051 9.15974432 -75.0887972 8.95731885 -72.26171875 8.75390625 C-71.38037766 8.6934462 -70.49903656 8.63298615 -69.59098816 8.57069397 C-68.3600518 8.48071388 -68.3600518 8.48071388 -67.10424805 8.38891602 C-66.02169991 8.31230492 -66.02169991 8.31230492 -64.9172821 8.23414612 C-62.78224173 8.03791008 -62.78224173 8.03791008 -60 7 C-57.33349387 6.69942286 -54.67154779 6.43382275 -52 6.1875 C-43.60934906 5.3596114 -35.27720666 4.23667568 -26.9375 3 C-25.24463867 2.75092896 -25.24463867 2.75092896 -23.51757812 2.49682617 C-17.66361257 1.61622151 -11.88866161 0.6199456 -6.12329102 -0.73046875 C-3.80174962 -1.02516597 -2.21369677 -0.70788092 0 0 Z " fill="#5CA4A8" transform="translate(766,1267)"/>
<path d="M0 0 C-2.73677277 1.36838639 -5.26495542 1.41693502 -8.3125 1.75 C-27.9584589 4.15646671 -47.34717296 10.24445854 -66.1796875 16.16796875 C-68.67675761 16.90463902 -71.13681038 17.48897333 -73.6875 18 C-77.92238009 18.86410237 -81.71590999 20.44493726 -85.69140625 22.11328125 C-88.42915165 23.1648349 -91.08697003 23.69336527 -94 24 C-91.42881281 20.14321922 -89.65670075 19.96198924 -85.2734375 18.58203125 C-84.58576797 18.36358551 -83.89809845 18.14513977 -83.18959045 17.92007446 C-80.92176578 17.20501812 -78.64895386 16.50779914 -76.375 15.8125 C-75.21183762 15.45141647 -75.21183762 15.45141647 -74.025177 15.08303833 C-28.96901806 1.10847196 -28.96901806 1.10847196 -9.125 -0.6875 C-8.24070312 -0.77386719 -7.35640625 -0.86023437 -6.4453125 -0.94921875 C-4.07600491 -0.99842162 -2.25290262 -0.69682802 0 0 Z " fill="#73C2C4" transform="translate(524,12)"/>
<path d="M0 0 C7.44751734 1.61902551 14.55526051 3.82835353 21.75 6.3125 C32.51601199 10.00842734 43.44770917 12.74026676 54.51074219 15.38525391 C57.70152576 16.17324852 60.8493509 17.06533669 64 18 C64 18.33 64 18.66 64 19 C57.27862667 19.45000648 51.33803206 17.79431984 44.875 16.0625 C43.71242676 15.75473633 42.54985352 15.44697266 41.35205078 15.12988281 C32.80429453 12.83149879 24.29488389 10.40361631 15.82330322 7.83883667 C14.5263692 7.44686364 13.22830676 7.05860468 11.92913818 6.67410278 C10.11296998 6.13406383 8.30240807 5.57527716 6.4921875 5.015625 C4.93540283 4.54044434 4.93540283 4.54044434 3.34716797 4.05566406 C2.57260254 3.70729492 1.79803711 3.35892578 1 3 C0.67 2.01 0.34 1.02 0 0 Z " fill="#78B6B9" transform="translate(435,1245)"/>
<path d="M0 0 C0.99 0.33 1.98 0.66 3 1 C-0.55299372 4.57794452 -4.10943651 8.15241386 -7.66894531 11.72387695 C-8.87625065 12.93617248 -10.08265234 14.1493687 -11.28808594 15.36352539 C-17.68212481 21.80263005 -24.07751498 28.12348898 -31 34 C-31.80050781 34.7425 -32.60101562 35.485 -33.42578125 36.25 C-34.04839844 36.8275 -34.67101563 37.405 -35.3125 38 C-35.94800781 38.598125 -36.58351563 39.19625 -37.23828125 39.8125 C-38.11033203 40.4003125 -38.11033203 40.4003125 -39 41 C-39.99 40.67 -40.98 40.34 -42 40 C-39.54333758 37.68571962 -37.08464289 35.37361241 -34.625 33.0625 C-33.88765625 32.36954834 -33.1503125 31.67659668 -32.390625 30.96264648 C-28.63725862 27.44345395 -24.86340068 23.96123049 -21 20.5625 C-13.68189337 14.04913362 -6.88286322 6.96623745 0 0 Z " fill="#36989A" transform="translate(1101,1081)"/>
<path d="M0 0 C15.60868036 -0.74327049 30.61325717 1.52707189 46 4 C46 4.66 46 5.32 46 6 C46.66 6.33 47.32 6.66 48 7 C32.99003366 5.18878455 32.99003366 5.18878455 25.6875 4 C17.16771109 2.64457904 8.58179422 1.85183596 0 1 C0 0.67 0 0.34 0 0 Z " fill="#70BEC1" transform="translate(704,4)"/>
<path d="M0 0 C0.66 0.33 1.32 0.66 2 1 C-8.89 11.89 -19.78 22.78 -31 34 C-31 31 -31 31 -29.05859375 28.80078125 C-28.19363281 27.97964844 -27.32867188 27.15851563 -26.4375 26.3125 C-23.26641513 23.24399593 -20.21676995 20.18833808 -17.375 16.8125 C-14.47902654 13.42591457 -11.32838612 10.55440636 -7.93359375 7.67578125 C-5.14014185 5.2547896 -2.58061576 2.64513116 0 0 Z " fill="#E1F1F2" transform="translate(705,481)"/>
<path d="M0 0 C-2.7966908 6.42521783 -9.21395579 12.19774238 -15 16 C-15.99 15.67 -16.98 15.34 -18 15 C-15.38257379 12.49196673 -12.75485598 9.99499157 -10.125 7.5 C-9.37863281 6.78457031 -8.63226562 6.06914063 -7.86328125 5.33203125 C-7.14785156 4.65527344 -6.43242188 3.97851562 -5.6953125 3.28125 C-5.03547363 2.65283203 -4.37563477 2.02441406 -3.69580078 1.37695312 C-2 0 -2 0 0 0 Z " fill="#39999B" transform="translate(1077,1106)"/>
<path d="M0 0 C0.99 0.66 1.98 1.32 3 2 C1.21118264 3.00508801 -0.58114696 4.00392736 -2.375 5 C-3.37273438 5.556875 -4.37046875 6.11375 -5.3984375 6.6875 C-8 8 -8 8 -10 8 C-10 7.01 -10 6.02 -10 5 C-6.7 3.35 -3.4 1.7 0 0 Z " fill="#3C8D90" transform="translate(928,1209)"/>
<path d="M0 0 C3.30044826 3.077445 5.75816419 6.36878825 8.25 10.125 C8.95640625 11.17945313 9.6628125 12.23390625 10.390625 13.3203125 C12 16 12 16 12 18 C11.34 18 10.68 18 10 18 C8.2734375 15.6640625 8.2734375 15.6640625 6.375 12.625 C5.74335937 11.62726563 5.11171875 10.62953125 4.4609375 9.6015625 C3 7 3 7 3 5 C2.01 4.67 1.02 4.34 0 4 C0 2.68 0 1.36 0 0 Z " fill="#68BABC" transform="translate(1164,273)"/>
<path d="M0 0 C4.95998472 0.61632946 8.93671966 2.79835629 13.3125 5.0625 C14.05306641 5.43955078 14.79363281 5.81660156 15.55664062 6.20507812 C17.37387522 7.13128157 19.18732404 8.06490629 21 9 C16.89656051 10.36781316 15.27629158 9.03307782 11.49609375 7.2578125 C7.59504742 5.29202702 3.78348416 3.18243531 0 1 C0 0.67 0 0.34 0 0 Z " fill="#7FC8CA" transform="translate(917,63)"/>
<path d="M0 0 C1.21236328 0.01353516 1.21236328 0.01353516 2.44921875 0.02734375 C3.37154297 0.04474609 3.37154297 0.04474609 4.3125 0.0625 C0.15110105 2.83676597 -3.01799088 4.24800101 -8.0625 3.6875 C-8.92875 3.48125 -9.795 3.275 -10.6875 3.0625 C-6.91890928 0.55010618 -4.42510751 -0.06413199 0 0 Z " fill="#47969B" transform="translate(836.6875,1247.9375)"/>
<path d="M0 0 C3.61497739 1.47158371 5.40591511 3.41462331 7.75 6.5 C8.36359375 7.2940625 8.9771875 8.088125 9.609375 8.90625 C11 11 11 11 11 13 C10.34 13 9.68 13 9 13 C7.37257193 11.05237399 5.8635524 9.11158541 4.375 7.0625 C3.95476562 6.49853516 3.53453125 5.93457031 3.1015625 5.35351562 C0 1.14928724 0 1.14928724 0 0 Z " fill="#88CACC" transform="translate(136,1035)"/>
<path d="M0 0 C0.33 0.99 0.66 1.98 1 3 C1.66 3 2.32 3 3 3 C3.8723412 5.99480917 4.10829766 8.63575911 4.0625 11.75 C4.05347656 12.54921875 4.04445313 13.3484375 4.03515625 14.171875 C4.01775391 15.07679688 4.01775391 15.07679688 4 16 C2.60025314 13.36518239 1.58775959 10.89629292 0.875 8 C0.70742188 7.34 0.53984375 6.68 0.3671875 6 C0 4 0 4 0 0 Z " fill="#7CC6C8" transform="translate(16,785)"/>
<path d="M0 0 C4.62 0 9.24 0 14 0 C14 0.66 14 1.32 14 2 C14.66 2.33 15.32 2.66 16 3 C10.72 2.34 5.44 1.68 0 1 C0 0.67 0 0.34 0 0 Z " fill="#62B7BA" transform="translate(736,8)"/>
<path d="M0 0 C0.97582031 0.10183594 1.95164062 0.20367188 2.95703125 0.30859375 C3.69308594 0.39238281 4.42914062 0.47617188 5.1875 0.5625 C5.1875 0.8925 5.1875 1.2225 5.1875 1.5625 C-0.34217941 2.27283431 -5.31233036 2.86517176 -10.8125 1.5625 C-10.8125 1.2325 -10.8125 0.9025 -10.8125 0.5625 C-7.01982808 -0.3735342 -3.87575435 -0.42026252 0 0 Z " fill="#6AA6AA" transform="translate(547.8125,1271.4375)"/>
<path d="M0 0 C2.29903669 4.10542266 4.35523153 8.69099505 3.625 13.4375 C3.41875 13.953125 3.2125 14.46875 3 15 C0.31780178 9.63560356 -0.3152595 5.98993047 0 0 Z " fill="#58B2B4" transform="translate(1255,464)"/>
<path d="M0 0 C7 8.44827586 7 8.44827586 7 12 C6.34 12 5.68 12 5 12 C2.95830515 9.09451118 2 7.59857954 2 4 C1.34 4 0.68 4 0 4 C0 2.68 0 1.36 0 0 Z " fill="#5EB6B8" transform="translate(1185,305)"/>
<path d="M0 0 C2.94721162 2.74395564 5.19168608 5.38337216 7 9 C6.67 9.66 6.34 10.32 6 11 C3.66475218 8.74259377 1.81294927 6.7194239 0 4 C0 2.68 0 1.36 0 0 Z " fill="#5FB5B8" transform="translate(1178,294)"/>
<path d="M0 0 C0.99 0.33 1.98 0.66 3 1 C0.69 3.31 -1.62 5.62 -4 8 C-4.66 7.01 -5.32 6.02 -6 5 C-1.60546875 0.99609375 -1.60546875 0.99609375 0 0 Z " fill="#2B8B8D" transform="translate(1082,1100)"/>
<path d="M0 0 C-2.88087546 2.40072955 -5.56404834 4.47291037 -9 6 C-9.33 5.01 -9.66 4.02 -10 3 C-6.48812804 0.59185923 -4.27343092 -0.36629408 0 0 Z " fill="#3A9094" transform="translate(981,1182)"/>
<path d="M0 0 C3 1 3 1 4.75 3.3125 C6.14972335 6.32190521 5.95287489 6.98041673 5 10 C4.16121545 8.71186658 3.32913217 7.41936744 2.5 6.125 C2.0359375 5.40570312 1.571875 4.68640625 1.09375 3.9453125 C0 2 0 2 0 0 Z " fill="#83C9CB" transform="translate(93,973)"/>
<path d="M0 0 C2.97 0.33 5.94 0.66 9 1 C9 1.33 9 1.66 9 2 C5.37 2.33 1.74 2.66 -2 3 C-1.34 2.01 -0.68 1.02 0 0 Z " fill="#509599" transform="translate(739,1270)"/>
<path d="M0 0 C0.8353125 0.556875 0.8353125 0.556875 1.6875 1.125 C-0.9525 2.115 -3.5925 3.105 -6.3125 4.125 C-6.6425 3.135 -6.9725 2.145 -7.3125 1.125 C-2.88173077 -1.09038462 -2.88173077 -1.09038462 0 0 Z " fill="#429397" transform="translate(887.3125,1229.875)"/>
<path d="M0 0 C0.99 0.33 1.98 0.66 3 1 C-0.465 3.97 -0.465 3.97 -4 7 C-3.04065919 3.16263678 -2.76390737 2.40339772 0 0 Z " fill="#2D9294" transform="translate(1101,1081)"/>
<path d="M0 0 C1.35158203 0.15275391 1.35158203 0.15275391 2.73046875 0.30859375 C3.41753906 0.39238281 4.10460937 0.47617188 4.8125 0.5625 C4.8125 0.8925 4.8125 1.2225 4.8125 1.5625 C3.39816794 1.7861337 1.98082382 1.99076476 0.5625 2.1875 C-0.22640625 2.30351563 -1.0153125 2.41953125 -1.828125 2.5390625 C-4.50902459 2.56569395 -5.91444089 1.92842084 -8.1875 0.5625 C-4.98734144 -0.50421952 -3.30205706 -0.38595472 0 0 Z " fill="#67A8AA" transform="translate(504.1875,1263.4375)"/>
<path d="M0 0 C3.16115776 1.36983503 3.9927092 1.9890638 6 5 C5.67 5.99 5.34 6.98 5 8 C4.16382818 6.8562364 3.33113541 5.70992861 2.5 4.5625 C2.0359375 3.92441406 1.571875 3.28632812 1.09375 2.62890625 C0 1 0 1 0 0 Z " fill="#89CACC" transform="translate(120,1014)"/>
</svg>
