<?xml version="1.0" encoding="UTF-8"?>
<svg version="1.1" xmlns="http://www.w3.org/2000/svg" width="1024" height="1024">
<path d="M0 0 C1.12619928 -0.00384115 2.25239856 -0.00768229 3.41272509 -0.01163983 C5.25355939 -0.01034011 5.25355939 -0.01034011 7.13158226 -0.00901413 C8.44314588 -0.01198525 9.7547095 -0.01495637 11.10601747 -0.01801753 C14.74060472 -0.02606693 18.37517219 -0.02787595 22.00976729 -0.028615 C25.93222375 -0.03046916 29.85467004 -0.03801834 33.77712059 -0.04475021 C42.35167631 -0.05831962 50.92622735 -0.06435614 59.50079203 -0.06876087 C64.85754463 -0.07152576 70.21429544 -0.07576358 75.57104683 -0.08026505 C90.41011059 -0.0924561 105.24917292 -0.1027556 120.08824158 -0.10614014 C121.03758293 -0.1063597 121.98692428 -0.10657927 122.96503355 -0.10680549 C123.91661269 -0.10702377 124.86819183 -0.10724204 125.84860671 -0.10746694 C127.77678402 -0.1079104 129.70496134 -0.10835696 131.63313866 -0.10880661 C132.58957588 -0.10902804 133.5460131 -0.10924947 134.53143327 -0.10947761 C150.0232307 -0.1134242 165.51498106 -0.1308747 181.00676031 -0.15416613 C196.92210473 -0.1779007 212.83742555 -0.19034295 228.75278795 -0.19150805 C237.68454578 -0.19242365 246.61624227 -0.1981469 255.54798317 -0.21632767 C263.15473627 -0.23175711 270.76140908 -0.23683239 278.36817487 -0.22858956 C282.24612399 -0.22469305 286.12391154 -0.22556353 290.00184059 -0.23964691 C293.55883599 -0.25244611 297.11554942 -0.25113612 300.67254476 -0.2390562 C302.55427233 -0.23619437 304.43600505 -0.24798925 306.31769335 -0.26047826 C320.26060947 -0.18001061 333.0192587 2.96839195 343.45393944 12.56892776 C352.58410272 22.39927421 356.65128708 35.27539435 360.70784569 47.80720901 C361.20139427 49.30356482 361.69596435 50.79958402 362.19147301 52.2952919 C363.48911654 56.22031054 364.7744265 60.1492498 366.05653954 64.07936478 C368.06756041 70.23574247 370.09888453 76.38548143 372.12651634 82.53640366 C372.64216841 84.10134616 373.15740194 85.66642663 373.67223167 87.23163986 C377.70725161 99.49852972 381.83403085 111.73179477 386.02034569 123.94783401 C391.13136067 138.86224456 396.20063223 153.78995172 401.22737694 168.73299026 C401.56559975 169.73831173 401.90382256 170.74363319 402.25229454 171.77941895 C403.99527535 176.96081156 405.73750149 182.1424575 407.47923851 187.32426834 C411.21965784 198.45221834 414.96388546 209.57888746 418.70784569 220.70564651 C419.07983526 221.81125742 419.45182484 222.91686832 419.83508682 224.05598259 C426.39955222 243.56599762 432.98205625 263.06985315 439.57893944 282.56892776 C441.48404394 288.20038522 443.38902548 293.83188425 445.29378319 299.46345901 C445.64947947 300.5150791 445.64947947 300.5150791 446.01236153 301.58794403 C452.56863453 320.9729684 459.10429894 340.36494514 465.64143944 359.75642776 C468.10489153 367.06374963 470.56841507 374.37104741 473.03206444 381.67830276 C473.33571733 382.57894896 473.63937023 383.47959515 473.95222473 384.40753365 C480.42620695 403.6091091 486.90773567 422.80813311 493.39143944 442.00642776 C493.92626051 443.59005593 494.46108106 445.17368427 494.99590111 446.75731277 C495.53066059 448.34075802 496.06542011 449.92420325 496.60017967 451.50764847 C497.40245833 453.88322973 498.20473616 456.25881128 499.00701141 458.63439369 C499.5417316 460.21772913 500.07645424 461.80106373 500.61117935 463.38439751 C506.97795901 482.23672162 513.34115246 501.09025579 519.70393944 519.94392776 C520.26841262 521.61651494 520.83288609 523.28910201 521.39735985 524.961689 C523.6576781 531.65923147 525.91797787 538.35678018 528.17824364 545.05434036 C532.12547002 556.75065666 536.07284827 568.44692169 540.02034569 580.14314651 C540.43782727 581.38012252 540.43782727 581.38012252 540.86374283 582.64208794 C542.26914192 586.80620902 543.67454363 590.97032921 545.07994652 595.13444901 C547.61085473 602.63337396 550.14173968 610.13230676 552.6726265 617.63123894 C554.07889653 621.79796886 555.48516806 625.96469829 556.89143944 630.13142776 C557.45393945 631.79809443 558.01643945 633.4647611 558.57893944 635.13142776 C558.85737694 635.95642776 559.13581444 636.78142776 559.42268944 637.63142776 C560.26643944 640.13142776 561.11018944 642.63142776 561.95393944 645.13142776 C562.23238229 645.9564435 562.51082514 646.78145924 562.79770565 647.63147545 C563.36015189 649.29798307 563.92259785 650.96449079 564.48504353 652.63099861 C565.89211365 656.80009941 567.29918876 660.96919853 568.70627403 665.13829422 C571.22773594 672.60922605 573.74916503 680.08016895 576.27040386 687.55117607 C577.66358866 691.67949757 579.05680319 695.80780903 580.45003319 699.93611526 C580.72640554 700.75504131 581.0027779 701.57396736 581.28752518 702.41770935 C585.11177029 713.74924047 588.93739474 725.08030513 592.76402855 736.41102982 C594.90203114 742.74171108 597.03965184 749.07252128 599.17719269 755.40335846 C600.62410417 759.68863615 602.07122154 763.97384405 603.51888084 768.25886917 C606.37743579 776.72040296 609.23354294 785.18274702 612.08237457 793.64756012 C613.54981919 798.0070692 615.02180818 802.36501182 616.49690533 806.72193718 C617.43998585 809.51056597 618.37922688 812.30047689 619.31744766 815.09074402 C619.96073751 817.00013238 620.60857788 818.90798576 621.256567 820.81578445 C621.64001778 821.95876999 622.02346855 823.10175552 622.41853905 824.27937698 C622.75308601 825.27009201 623.08763298 826.26080704 623.43231773 827.28154373 C626.93361453 839.24417434 625.80963369 851.70602742 620.07893944 862.81892776 C613.18369408 874.14683085 603.88205483 881.20197379 591.26643944 885.13142776 C584.58977755 886.42519137 577.92398089 886.276614 571.14264488 886.27186966 C569.80189541 886.27445612 568.46114671 886.27747006 567.12039906 886.28087306 C563.44632613 886.28891339 559.77227278 886.29073097 556.0981921 886.29147053 C552.1314065 886.29332628 548.16463094 886.30087627 544.19785118 886.30760574 C535.52818208 886.32116881 526.85851762 886.32721071 518.18883967 886.3316164 C512.77126006 886.33438243 507.35368223 886.33862046 501.93610382 886.34312057 C486.92457854 886.35531093 471.91305467 886.36561049 456.90152454 886.36899567 C455.94135099 886.36921523 454.98117744 886.3694348 453.99190772 886.36966102 C453.02948781 886.3698793 452.06706789 886.37009757 451.07548374 886.37032247 C449.12538238 886.37076593 447.17528103 886.37121249 445.22517967 886.37166214 C443.77421533 886.37199428 443.77421533 886.37199428 442.29393858 886.37233314 C426.62895987 886.37627903 410.96402774 886.39372771 395.29906701 886.41702166 C379.20061929 886.44076617 363.10219491 886.45319894 347.0037294 886.45436358 C337.97131853 886.45527864 328.93896835 886.46098808 319.90657425 886.4791832 C312.21353201 886.4946261 304.52056921 886.49968004 296.8275144 886.49144509 C292.90678058 886.48755329 288.98620653 886.48839576 285.06549263 886.50250244 C281.4671076 886.51533025 277.86900096 886.51396706 274.27061582 886.50191173 C272.37152543 886.49905924 270.47242982 886.51082288 268.5733785 886.52333379 C249.57613961 886.41533274 237.82604918 880.95862063 224.26643944 868.13142776 C223.28240488 867.22339453 222.29666295 866.31720881 221.30940819 865.41267776 C213.92199282 858.64116923 206.61548406 851.78339328 199.30940819 844.92439651 C195.44721866 841.29913978 191.57723565 837.6823121 187.70393944 834.06892776 C187.08921776 833.49545609 186.47449608 832.92198441 185.84114647 832.3311348 C184.60258335 831.17581456 183.36397667 830.02054102 182.12532616 828.86531448 C179.00497641 825.95479125 175.88576842 823.0430449 172.76643944 820.13142776 C171.51644485 818.9647553 170.26644485 817.79808863 169.01643944 816.63142776 C71.51643944 725.63142777 71.51643944 725.63142777 69.63850975 723.87849808 C68.39853555 722.72131819 67.15830452 721.56441343 65.91780663 720.40779495 C62.6371652 717.34828154 59.36217302 714.2829859 56.09456444 711.20955276 C55.41200584 710.5688887 54.72944725 709.92822464 54.02620506 709.26814651 C52.71596589 708.03812607 51.40729357 706.8064338 50.10042381 705.57283401 C49.21580467 704.7433223 49.21580467 704.7433223 48.31331444 703.89705276 C47.79607811 703.41010941 47.27884178 702.92316605 46.74593163 702.42146683 C45.08572212 700.91797249 45.08572212 700.91797249 42.26643944 699.13142776 C34.76224093 721.02484156 27.30479553 742.93348695 19.92659569 764.86970901 C19.575481 765.91350597 19.2243663 766.95730293 18.86261177 768.0327301 C15.98300329 776.59424483 13.10545708 785.15645233 10.22859764 793.71889114 C8.05600289 800.18514712 5.88241193 806.65106647 3.70744705 813.11652565 C2.71459753 816.06919407 1.72315741 819.022333 0.73178673 821.9754982 C-0.78208902 826.48141221 -2.30586498 830.98387634 -3.83614159 835.4842453 C-4.44502533 837.28031425 -5.05051847 839.07753553 -5.65295219 840.8757782 C-6.55514226 843.56696459 -7.46853989 846.25412371 -8.38419533 848.94075394 C-8.64764464 849.7348306 -8.91109396 850.52890726 -9.18252659 851.34704685 C-13.50852107 863.92127242 -20.39131312 874.36051559 -32.21402931 880.91658401 C-40.91789624 885.11333225 -49.31833067 886.28263823 -58.89170265 886.26514053 C-60.26088258 886.26853887 -60.26088258 886.26853887 -61.65772271 886.27200586 C-64.71133523 886.27832766 -67.76490316 886.27751765 -70.8185215 886.27669144 C-73.0100504 886.27968408 -75.20157878 886.28308686 -77.39310646 886.28686905 C-83.34364887 886.29570304 -89.2941769 886.29804693 -95.24472523 886.29868484 C-98.96388778 886.29939574 -102.68304668 886.30153084 -106.40220833 886.30418205 C-118.71171105 886.31295644 -131.02120498 886.31760201 -143.33071086 886.31685158 C-143.99377821 886.31681162 -144.65684557 886.31677167 -145.34000587 886.3167305 C-146.00388747 886.31668962 -146.66776907 886.31664874 -147.35176829 886.31660662 C-158.10494627 886.31620038 -168.8580892 886.32576515 -179.61125705 886.33986887 C-190.66527941 886.3542522 -201.71928385 886.36095506 -212.77331567 886.36027509 C-218.97414802 886.36002035 -225.17494071 886.36285832 -231.37576485 886.37345314 C-237.20997503 886.38314934 -243.04410775 886.38320281 -248.87832069 886.37593651 C-251.01560263 886.37489253 -253.15288943 886.37724245 -255.29016304 886.38329697 C-258.216027 886.39104635 -261.14162541 886.38635258 -264.0674839 886.37866592 C-265.32501083 886.38638127 -265.32501083 886.38638127 -266.60794234 886.39425248 C-280.46847328 886.31422426 -292.60333912 881.98058725 -302.76481056 872.33455276 C-311.10398621 863.00261811 -315.16264358 851.4333043 -314.93831825 838.99856949 C-314.18198811 828.40797473 -309.82978944 818.00393616 -306.46402931 807.99470901 C-305.94099459 806.42868071 -305.41832389 804.86253079 -304.89599037 803.29626846 C-303.79844569 800.00821943 -302.69798953 796.72116561 -301.59513283 793.43489456 C-300.22785214 789.36065227 -298.86541744 785.28481428 -297.50499153 781.20827866 C-291.42909863 763.00387235 -285.27651672 744.82663782 -279.06196213 726.66913033 C-272.14303114 706.44978555 -265.32955126 686.19523724 -258.52076149 665.93858719 C-254.78034216 654.81063719 -251.03611454 643.68396807 -247.29215431 632.55720901 C-246.92016474 631.45159811 -246.54817516 630.34598721 -246.16491318 629.20687294 C-239.60044778 609.69685791 -233.01794375 590.19300238 -226.42106056 570.69392776 C-224.51595606 565.06247031 -222.61097452 559.43097128 -220.70621681 553.79939651 C-220.46908596 553.09831646 -220.23195511 552.3972364 -219.98763847 551.6749115 C-213.43136547 532.28988713 -206.89570106 512.89791039 -200.35856056 493.50642776 C-197.89510847 486.1991059 -195.43158493 478.89180812 -192.96793556 471.58455276 C-192.66428267 470.68390657 -192.36062977 469.78326038 -192.04777527 468.85532188 C-185.57379305 449.65374643 -179.09226433 430.45472242 -172.60856056 411.25642776 C-172.07373949 409.6727996 -171.53891894 408.08917126 -171.00409889 406.50554276 C-170.46933941 404.92209751 -169.93457989 403.33865228 -169.39982033 401.75520706 C-168.59754167 399.3796258 -167.79526384 397.00404425 -166.99298859 394.62846184 C-166.4582684 393.0451264 -165.92354576 391.4617918 -165.38882065 389.87845802 C-159.30456222 371.86269214 -153.22354987 353.84583104 -147.14309502 335.82878113 C-146.29661859 333.32058126 -145.45013398 330.81238416 -144.60364723 328.30418777 C-140.64686582 316.57996341 -136.6901994 304.85570024 -132.73356056 293.13142776 C-128.21280437 279.7355684 -123.69199888 266.33972567 -119.17106056 252.94392776 C-118.89183376 252.11655987 -118.61260696 251.28919197 -118.32491875 250.43675232 C-111.95328096 231.55720728 -105.58089922 212.67791378 -99.20621681 193.79939651 C-98.93831778 193.00601191 -98.67041874 192.2126273 -98.39440155 191.39520073 C-95.70867263 183.44143967 -93.02280365 175.48772595 -90.33654881 167.53414249 C-84.678389 150.7810877 -79.02305656 134.0270864 -73.37388039 117.27099991 C-71.54690204 111.85228911 -69.71942748 106.43374563 -67.89197731 101.01519394 C-66.44018231 96.71029296 -64.98875453 92.40526895 -63.53824806 88.09993362 C-62.98878263 86.469151 -62.43930364 84.83837295 -61.88981056 83.20759964 C-61.62236031 82.41385689 -61.35491005 81.62011414 -61.07935524 80.80231857 C-59.02884614 74.71929383 -56.96923295 68.6393824 -54.90644264 62.56051254 C-53.4657172 58.30981422 -52.04035071 54.05436267 -50.62802315 49.79414749 C-49.74317582 47.13096356 -48.84901175 44.47096674 -47.95293617 41.81154251 C-47.35367159 40.02262057 -46.76641809 38.22968859 -46.17972755 36.43660355 C-41.51186861 22.64666924 -34.14804116 10.77551137 -20.73356056 4.13142776 C-13.95868297 1.37300231 -7.33215943 0.00942825 0 0 Z M155.26643944 364.13142776 C151.14168081 373.40344977 147.91784055 382.87905294 144.76802635 392.51460648 C143.2250495 397.23077399 141.66464215 401.94115121 140.10237694 406.65095901 C139.78051414 407.62133102 139.45865135 408.59170303 139.12703514 409.59148026 C136.30700582 418.06477491 133.36243138 426.49100675 130.38857079 434.91127396 C121.78748376 459.27229242 113.66249797 483.79120444 105.53090096 508.31192589 C104.45336864 511.56099212 103.37517436 514.80983824 102.29661369 518.05856323 C101.76827917 519.64999705 101.24012518 521.24149081 100.7121563 522.83304596 C97.85914854 531.42901868 94.97753822 540.01385166 92.02229881 548.57527542 C91.76275036 549.32733796 91.5032019 550.0794005 91.23578835 550.85425282 C90.00571607 554.41419151 88.77058783 557.97228629 87.52858543 561.52807999 C87.09821983 562.76721649 86.66785423 564.006353 86.22444725 565.28303909 C85.84475792 566.36934113 85.46506859 567.45564316 85.07387352 568.57486343 C84.16605124 571.0024453 84.16605124 571.0024453 84.26643944 573.13142776 C131.12643944 573.13142776 177.98643944 573.13142776 226.26643944 573.13142776 C223.7512918 563.89339386 223.7512918 563.89339386 220.87581444 554.80842972 C220.65482771 554.15334742 220.43384098 553.49826511 220.20615768 552.82333183 C219.47928143 550.67108578 218.74787592 548.5204091 218.01643944 546.36970901 C217.48902034 544.81093327 216.96189857 543.25205689 216.43504906 541.69308853 C215.01247749 537.48615188 213.58603435 533.28053739 212.15890312 529.07514572 C210.65251883 524.63392816 209.149774 520.19147968 207.64681053 515.74910355 C205.76793 510.19626495 203.88873082 504.64353517 202.00798607 499.09132767 C197.63886609 486.1926794 193.2808497 473.29032499 188.93050194 460.38533401 C188.33063683 458.60616135 187.730763 456.82699162 187.13088036 455.04782486 C184.83584247 448.24082926 182.54090793 441.43379894 180.24690819 434.6264534 C172.31985993 411.10523169 164.3192844 387.60987975 156.26643944 364.13142776 C155.93643944 364.13142776 155.60643944 364.13142776 155.26643944 364.13142776 Z " fill="#0B59A2" transform="translate(356.7335605621338,68.86857223510742)"/>
<path d="M0 0 C3.64252127 -0.03774196 7.28507748 -0.06476006 10.92770344 -0.09012651 C12.54014749 -0.1043869 14.15255618 -0.12398217 15.76485711 -0.1497674 C31.21370301 -0.39606694 45.24812953 1.74271758 56.96899956 12.52662516 C66.09916285 22.3569716 70.16634721 35.23309174 74.22290581 47.76490641 C74.7164544 49.26126221 75.21102448 50.75728141 75.70653313 52.25298929 C77.00417667 56.17800793 78.28948663 60.1069472 79.57159966 64.03706217 C81.58262054 70.19343986 83.61394465 76.34317882 85.64157647 82.49410105 C86.15722853 84.05904355 86.67246207 85.62412403 87.1872918 87.18933725 C91.22231174 99.45622711 95.34909098 111.68949216 99.53540581 123.90553141 C104.6464208 138.81994195 109.71569235 153.74764912 114.74243706 168.69068766 C115.08065987 169.69600912 115.41888268 170.70133059 115.76735467 171.73711634 C117.51033548 176.91850896 119.25256161 182.10015489 120.99429864 187.28196573 C124.73471797 198.40991573 128.47894559 209.53658485 132.22290581 220.66334391 C132.59489539 221.76895481 132.96688496 222.87456572 133.35014695 224.01367998 C139.91461234 243.52369501 146.49711638 263.02755054 153.09399956 282.52662516 C154.99910406 288.15808261 156.90408561 293.78958164 158.80884331 299.42115641 C159.04597417 300.12223646 159.28310502 300.82331652 159.52742165 301.54564142 C166.08369466 320.93066579 172.61935907 340.32264253 179.15649956 359.71412516 C181.61995166 367.02144702 184.08347519 374.3287448 186.54712456 381.63600016 C186.85077746 382.53664635 187.15443036 383.43729254 187.46728486 384.36523104 C193.94126707 403.56680649 200.4227958 422.7658305 206.90649956 441.96412516 C207.44132063 443.54775332 207.97614119 445.13138166 208.51096123 446.71501017 C209.04572072 448.29845541 209.58048024 449.88190064 210.1152398 451.46534586 C210.91751846 453.84092712 211.71979629 456.21650867 212.52207154 458.59209108 C213.05679172 460.17542652 213.59151437 461.75876113 214.12623948 463.3420949 C220.49301914 482.19441901 226.85621258 501.04795318 233.21899956 519.90162516 C233.78347275 521.57421233 234.34794622 523.24679941 234.91241997 524.91938639 C237.17273823 531.61692886 239.433038 538.31447757 241.69330376 545.01203775 C245.64053015 556.70835405 249.5879084 568.40461908 253.53540581 580.10084391 C253.9528874 581.33781991 253.9528874 581.33781991 254.37880296 582.59978533 C255.78420204 586.76390641 257.18960375 590.9280266 258.59500664 595.0921464 C261.12591486 602.59107135 263.6567998 610.09000416 266.18768662 617.58893633 C267.59395666 621.75566626 269.00022819 625.92239568 270.40649956 630.08912516 C270.96899957 631.75579182 271.53149957 633.42245849 272.09399956 635.08912516 C272.37243706 635.91412516 272.65087456 636.73912516 272.93774956 637.58912516 C273.78149956 640.08912516 274.62524956 642.58912516 275.46899956 645.08912516 C275.74744241 645.91414089 276.02588526 646.73915663 276.31276578 647.58917284 C276.87521202 649.25568046 277.43765798 650.92218819 278.00010365 652.588696 C279.40717378 656.7577968 280.81424888 660.92689592 282.22133416 665.09599161 C284.74279607 672.56692344 287.26422516 680.03786634 289.78546399 687.50887346 C291.17864878 691.63719496 292.57186331 695.76550642 293.96509331 699.89381266 C294.24146567 700.7127387 294.51783803 701.53166475 294.8025853 702.37540674 C298.62683041 713.70693787 302.45245487 725.03800253 306.27908868 736.36872721 C308.41709126 742.69940847 310.55471196 749.03021867 312.69225281 755.36105585 C314.1391643 759.64633354 315.58628167 763.93154144 317.03394097 768.21656656 C319.89249592 776.67810036 322.74860307 785.14044442 325.5974347 793.60525751 C327.06487932 797.96476659 328.53686831 802.32270921 330.01196545 806.67963457 C330.95504597 809.46826336 331.89428701 812.25817428 332.83250779 815.04844141 C333.47579764 816.95782977 334.12363801 818.86568315 334.77162713 820.77348185 C335.1550779 821.91646738 335.53852868 823.05945292 335.93359917 824.23707438 C336.26814614 825.2277894 336.60269311 826.21850443 336.94737786 827.23924112 C340.44867465 839.20187173 339.32469382 851.66372481 333.59399956 862.77662516 C326.69875421 874.10452824 317.39711496 881.15967118 304.78149956 885.08912516 C298.29681075 886.332622 291.86544355 886.22419452 285.27979058 886.20435953 C283.9938217 886.20433435 282.70785283 886.20430918 281.3829152 886.20428324 C277.76883942 886.2037484 274.15480396 886.19644538 270.54073948 886.1878438 C267.38786842 886.18108512 264.23499718 886.17800492 261.0821209 886.17472076 C213.52847953 886.12256799 165.97487732 885.86671057 118.42180949 885.64374399 C105.22584451 885.58193282 92.02987076 885.5220961 78.83389622 885.46236753 C51.81642092 885.34003778 24.79895666 885.21540843 -2.21850044 885.08912516 C0.18381705 882.59411236 2.50591788 880.98203843 5.53149956 879.27662516 C16.25546644 872.91706341 23.03243602 865.12559233 26.78149956 853.08912516 C29.60095241 838.35817695 26.43963272 827.0975511 21.65649956 813.27662516 C21.09860961 811.61645526 20.54261672 809.95564665 19.98853081 808.29420328 C18.36653677 803.45420596 16.71314265 798.62535597 15.05478448 793.7977128 C12.42824724 786.14762331 9.81449517 778.4931553 7.19946831 770.83912516 C6.9010044 769.96577398 6.60254048 769.09242281 6.2950322 768.19260645 C-0.47214672 748.38714169 -7.15739332 728.55434025 -13.83308631 708.71789026 C-16.77620232 699.97385458 -19.72202995 691.23073173 -22.66771919 682.48756266 C-22.99118072 681.5274144 -23.31464225 680.56726614 -23.64790565 679.57802248 C-27.93896289 666.84141314 -32.23777962 654.10746785 -36.55053169 641.37818766 C-36.7925261 640.66392555 -37.03452052 639.94966345 -37.28384811 639.21375704 C-39.71136972 632.04956229 -42.1410594 624.88610542 -44.5722602 617.72315836 C-45.34757101 615.43759574 -46.12288031 613.15203261 -46.89818794 610.86646891 C-47.26365226 609.79063044 -47.62911659 608.71479197 -48.00565559 607.60635233 C-49.83387994 602.21518603 -51.64203338 596.8183213 -53.41869575 591.40992594 C-53.77553443 590.32675592 -54.13237312 589.24358591 -54.50002509 588.12759256 C-55.16664759 586.10000379 -55.82948024 584.07116283 -56.48751289 582.04077005 C-57.84440894 577.91606874 -59.24685362 573.9068138 -61.08471137 569.97071695 C-64.31462419 562.91178597 -66.5827994 555.4589683 -69.03881294 548.10475016 C-69.61181519 546.39980455 -70.18522038 544.69499431 -70.75899726 542.99030924 C-71.98497969 539.34529012 -73.2082794 535.69938623 -74.42943794 532.0527482 C-76.3625594 526.28019659 -78.3017248 520.50968705 -80.24193794 514.73951578 C-82.58124052 507.7813274 -84.91929221 500.82272158 -87.25559074 493.86352396 C-93.01522543 476.70793418 -98.79889958 459.5604875 -104.58904487 442.41517496 C-105.9084046 438.50813197 -107.22658895 434.60069381 -108.54432327 430.69310236 C-109.78921427 427.00196774 -111.03507882 423.31116199 -112.28100044 419.62037516 C-112.52037204 418.91092501 -112.75974365 418.20147486 -113.00636894 417.47052622 C-115.90703515 408.87619909 -118.83204298 400.29066563 -121.78490669 391.71412516 C-122.38443926 389.97059646 -122.9839673 388.2270662 -123.58349067 386.48353434 C-124.72887962 383.15316511 -125.87875665 379.82439206 -127.03124458 376.49647379 C-127.55474908 374.97597637 -128.07811239 373.45543032 -128.60131294 371.93482828 C-128.83721641 371.25772806 -129.07311988 370.58062784 -129.31617194 369.88300943 C-130.65830336 365.96897982 -131.75263766 362.05650035 -132.72369605 358.03523684 C-133.50671412 354.95555393 -134.51267082 351.96008851 -135.51830512 348.94679117 C-135.73994834 348.27996317 -135.96159156 347.61313517 -136.18995124 346.92610025 C-136.92050349 344.7307576 -137.65535834 342.53688284 -138.39037544 340.34303141 C-138.91470481 338.77124113 -139.4388086 337.19937559 -139.9627021 335.62743998 C-141.06710776 332.31578654 -142.17351679 329.00481171 -143.28148872 325.69434977 C-144.65568455 321.5882926 -146.02617959 317.48101407 -147.39525062 313.37324572 C-153.49657684 295.06988966 -159.67010165 276.79242508 -165.91829139 258.53869677 C-172.72240291 238.65797685 -179.42499612 218.74341875 -186.12133247 198.8261857 C-189.73447256 188.07962996 -193.35159276 177.33441332 -196.96850044 166.58912516 C-197.32635627 165.52591547 -197.68421211 164.46270578 -198.05291206 163.36727762 C-202.57987512 149.91789058 -207.11118904 136.46999234 -211.65600044 123.02662516 C-211.89737172 122.31263685 -212.13874301 121.59864855 -212.38742858 120.86302423 C-214.86803387 113.52642826 -217.35255794 106.19117806 -219.84374458 98.85816813 C-220.68877827 96.37007103 -221.53375014 93.88195293 -222.37865669 91.39381266 C-222.78366904 90.20125864 -223.1886814 89.00870462 -223.60596687 87.78001261 C-226.06018803 80.54154026 -228.48493425 73.29388483 -230.88729316 66.03803873 C-232.43862116 61.35605784 -234.00050671 56.67763279 -235.56347114 51.99952555 C-236.27725924 49.85305705 -236.98582464 47.7048428 -237.68847114 45.55470133 C-243.03847003 29.18636196 -248.15268352 14.65118563 -264.34350044 6.27662516 C-267.89533256 4.61033354 -271.44323229 3.18196594 -275.21850044 2.08912516 C-275.21850044 1.75912516 -275.21850044 1.42912516 -275.21850044 1.08912516 C-241.99552509 0.96085175 -208.77254677 0.83337935 -175.54956439 0.70694289 C-171.6041674 0.69192725 -167.65877043 0.67690516 -163.71337348 0.66187906 C-162.92810006 0.65888845 -162.14282664 0.65589783 -161.33375705 0.65281659 C-148.71157674 0.60473131 -136.08939849 0.55612605 -123.46722095 0.50731975 C-110.461722 0.45704316 -97.45622092 0.40734594 -84.45071781 0.35815811 C-77.16850636 0.33060035 -69.8862961 0.30278427 -62.60408813 0.27432108 C-60.49459491 0.26610791 -58.38510167 0.25790352 -56.2756084 0.24970478 C-54.89196729 0.24431421 -53.50832628 0.23889867 -52.12468537 0.23345762 C-44.87509943 0.20499614 -37.62551954 0.17884704 -30.37590152 0.15965891 C-27.91172175 0.15302746 -25.44754208 0.14636264 -22.9833625 0.13966227 C-21.21216669 0.13492246 -21.21216669 0.13492246 -19.40518916 0.1300869 C-12.93642542 0.10999925 -6.46842713 0.0689397 0 0 Z " fill="#32AFE9" transform="translate(643.2185004353523,68.91087484359741)"/>
<path d="M0 0 C2.18625893 5.38209413 4.33454138 10.75016696 6.15966797 16.26782227 C6.53461395 17.39603897 6.90955994 18.52425568 7.29586792 19.68666077 C7.69065338 20.88447678 8.08543884 22.08229279 8.4921875 23.31640625 C8.92343897 24.61647412 9.35501702 25.9164337 9.78689575 27.21629333 C10.92497262 30.64375534 12.05972804 34.07230628 13.19342041 37.5012207 C15.18497996 43.52423037 17.18067449 49.54586643 19.1796875 55.56640625 C19.40728256 56.25204021 19.63487762 56.93767418 19.86936951 57.64408493 C24.06321334 70.26882859 28.35184019 82.86029482 32.66034317 95.4462986 C37.23912934 108.82287116 41.7842061 122.21035047 46.296875 135.609375 C46.75153295 136.95922359 46.75153295 136.95922359 47.2153759 138.33634186 C49.07632273 143.86209204 50.93614275 149.38822103 52.79571915 154.91443253 C55.73577584 163.65057042 58.67816203 172.38592401 61.62109375 181.12109375 C62.10075624 182.54490891 62.10075624 182.54490891 62.59010887 183.99748802 C66.68136574 196.14030418 70.78405749 208.27913343 74.91015625 220.41015625 C75.12823566 221.05143085 75.34631508 221.69270546 75.57100296 222.35341263 C77.72229082 228.67862472 79.87714706 235.00260687 82.03613281 241.32519531 C82.37438583 242.31764755 82.71263885 243.31009979 83.06114197 244.33262634 C83.67544651 246.13498993 84.29102318 247.93692074 84.90821838 249.73829651 C85.17287399 250.51535446 85.4375296 251.29241241 85.71020508 252.09301758 C85.93726639 252.75723221 86.1643277 253.42144684 86.39826965 254.10578918 C89.93845124 265.25006716 88.67596467 277.46050854 83.875 288 C77.94157764 299.12516692 69.09182091 305.45408955 58 311 C132.58 311.33 207.16 311.66 284 312 C284 312.33 284 312.66 284 313 C252.00761185 313.06852968 220.0152447 313.12157637 188.02280023 313.15319599 C184.24046045 313.15694783 180.45812081 313.16083082 176.67578125 313.16479492 C175.92282806 313.16558185 175.16987487 313.16636878 174.39410491 313.16717956 C162.22383755 313.18021134 150.05361296 313.20385283 137.88337092 313.23145839 C125.38310881 313.25957474 112.88286901 313.27618939 100.38257658 313.28226548 C92.67755965 313.28636905 84.97266367 313.29930036 77.267684 313.3237494 C71.34613572 313.34157508 65.42464854 313.34334997 59.50307274 313.33932304 C57.08365957 313.34014488 54.66424161 313.34606538 52.24485588 313.35761642 C29.15989925 313.46237857 14.25219319 311.3203229 -3 295 C-3.98403456 294.09196676 -4.96977649 293.18578105 -5.95703125 292.28125 C-13.34444662 285.50974147 -20.65095538 278.65196552 -27.95703125 271.79296875 C-31.81922077 268.16771201 -35.68920379 264.55088433 -39.5625 260.9375 C-40.17722168 260.36402832 -40.79194336 259.79055664 -41.42529297 259.19970703 C-42.66385609 258.0443868 -43.90246277 256.88911326 -45.14111328 255.73388672 C-48.26146303 252.82336349 -51.38067102 249.91161713 -54.5 247 C-55.74999459 245.83332754 -56.99999459 244.66666087 -58.25 243.5 C-90.75 213.16666667 -123.25 182.83333333 -155.75 152.5 C-156.36875 151.92258057 -156.9875 151.34516113 -157.625 150.75024414 C-158.8753248 149.58311153 -160.12532473 148.41563079 -161.375 147.24780273 C-164.49246421 144.33532803 -167.61528019 141.42905774 -170.75 138.53515625 C-177.94196776 131.88209488 -184.95652866 125.09371352 -191.84960938 118.13110352 C-195.54427127 114.41234173 -199.30601379 110.85354008 -203.3125 107.46875 C-205.74274016 105.35354097 -207.96233789 103.04743778 -210.21875 100.75 C-212.08389674 98.91757513 -214.01927746 97.20646865 -216 95.5 C-219.22956367 92.71760668 -222.23322653 89.78980571 -225.21875 86.75 C-227.08389674 84.91757513 -229.01927746 83.20646865 -231 81.5 C-234.22956367 78.71760668 -237.23322653 75.78980571 -240.21875 72.75 C-242.08389674 70.91757513 -244.01927746 69.20646865 -246 67.5 C-249.22956367 64.71760668 -252.23322653 61.78980571 -255.21875 58.75 C-257.08389674 56.91757513 -259.01927746 55.20646865 -261 53.5 C-264.22918504 50.71793289 -267.23586547 47.7958822 -270.2109375 44.74609375 C-272.1006591 42.90175847 -274.0894559 41.24353923 -276.125 39.5625 C-280.50041378 35.8072905 -285.48486748 30.07039137 -286.23828125 24.1171875 C-286.43467642 18.18398618 -285.53475092 13.84064501 -282 9 C-277.76099591 4.50908788 -274.26052065 1.28710384 -267.94225693 0.8613348 C-266.83458151 0.85165597 -266.83458151 0.85165597 -265.70452881 0.84178162 C-264.84727266 0.83199248 -263.99001652 0.82220335 -263.10678291 0.81211758 C-262.16887854 0.80636243 -261.23097416 0.80060728 -260.26464844 0.79467773 C-259.26351454 0.78478097 -258.26238064 0.7748842 -257.23090935 0.76468754 C-253.85708898 0.73276774 -250.48325716 0.70805498 -247.109375 0.68359375 C-244.68207562 0.66283793 -242.2547787 0.6417937 -239.82748413 0.6204834 C-233.88260906 0.56989387 -227.93771461 0.52465658 -221.99277651 0.48234785 C-217.14293548 0.44781522 -212.29311514 0.41109379 -207.44329834 0.37332153 C-138.29636302 -0.1613042 -69.14845565 -0.10182336 0 0 Z " fill="#0074CD" transform="translate(584,642)"/>
<path d="M0 0 C2.98762071 0.10626165 5.95251171 0.15486137 8.94059753 0.15821838 C9.86604364 0.16315636 10.79148975 0.16809434 11.74497968 0.17318195 C14.85887457 0.18859088 17.97274879 0.19692677 21.08666992 0.20532227 C23.31368696 0.21489812 25.54070217 0.22490803 27.76771545 0.23532104 C33.82518419 0.26240787 39.88266074 0.28339698 45.9401567 0.30332303 C52.26629682 0.3251593 58.59241272 0.35255951 64.91853333 0.37937927 C75.5403238 0.42365693 86.16212193 0.46448678 96.78393555 0.50268555 C107.72502614 0.54204193 118.66610566 0.5834685 129.60717773 0.62768555 C130.28145056 0.63040982 130.95572339 0.63313409 131.65042873 0.63594092 C135.03301707 0.64962042 138.41560524 0.66334069 141.79819334 0.67708123 C169.86543916 0.7910415 197.93270915 0.89777856 226 1 C226 1.33 226 1.66 226 2 C147.13 2 68.26 2 -13 2 C-13 1.67 -13 1.34 -13 1 C-11.39796533 0.63631108 -9.79325797 0.28438048 -8.1875 -0.0625 C-7.29417969 -0.25972656 -6.40085937 -0.45695313 -5.48046875 -0.66015625 C-3 -1 -3 -1 0 0 Z " fill="#1477C2" transform="translate(642,953)"/>
<path d="M0 0 C1.45706917 0.11349848 2.91844959 0.17601475 4.37963867 0.20532227 C5.70066841 0.2352401 5.70066841 0.2352401 7.04838562 0.26576233 C7.99534805 0.28247482 8.94231049 0.29918732 9.91796875 0.31640625 C10.89034988 0.33718735 11.86273102 0.35796844 12.86457825 0.37937927 C15.97214665 0.44478748 19.07979985 0.50371929 22.1875 0.5625 C24.29362858 0.60569351 26.39974856 0.64930807 28.50585938 0.69335938 C33.67048591 0.80045999 38.83519778 0.90175219 44 1 C44 1.33 44 1.66 44 2 C25.19 2 6.38 2 -13 2 C-13 1.67 -13 1.34 -13 1 C-11.39796533 0.63631108 -9.79325797 0.28438048 -8.1875 -0.0625 C-7.29417969 -0.25972656 -6.40085937 -0.45695313 -5.48046875 -0.66015625 C-3 -1 -3 -1 0 0 Z " fill="#1581CF" transform="translate(642,953)"/>
<path d="M0 0 C0 0.33 0 0.66 0 1 C-7.26 1 -14.52 1 -22 1 C-22 0.67 -22 0.34 -22 0 C-14.18326735 -2.24817532 -7.89161968 -1.76273292 0 0 Z " fill="#1888D9" transform="translate(651,954)"/>
</svg>
