<?xml version="1.0" encoding="UTF-8"?>
<svg version="1.1" xmlns="http://www.w3.org/2000/svg" width="1200" height="739">
<path d="M0 0 C0.86435669 -0.00705963 1.72871338 -0.01411926 2.6192627 -0.02139282 C38.70773202 -0.24924246 38.70773202 -0.24924246 53.76953125 3.203125 C54.6807373 3.40711914 55.59194336 3.61111328 56.53076172 3.82128906 C89.11309503 11.30134353 119.89404103 24.80775943 145.76953125 46.203125 C146.33623535 46.66831543 146.90293945 47.13350586 147.48681641 47.61279297 C188.54134768 81.49098765 214.18701154 127.00413074 223.76953125 179.203125 C223.90230469 179.90195801 224.03507812 180.60079102 224.171875 181.32080078 C233.64388777 233.5632083 218.85833517 291.02164122 189.33203125 334.390625 C181.67212916 345.43306008 172.97273357 355.43758096 163.76953125 365.203125 C162.73505859 366.30140625 162.73505859 366.30140625 161.6796875 367.421875 C156.42950326 372.83310784 150.7078471 377.56687334 144.76953125 382.203125 C144.23505371 382.62464844 143.70057617 383.04617188 143.14990234 383.48046875 C113.45268999 406.73451595 78.02204466 420.96347329 40.76953125 426.203125 C39.53525391 426.3774707 38.30097656 426.55181641 37.02929688 426.73144531 C32.66064885 427.26839702 28.33170504 427.39828948 23.93359375 427.44140625 C23.10510422 427.4512001 22.27661469 427.46099396 21.42301941 427.47108459 C2.51702654 427.64835551 -15.69281929 427.35822595 -34.23046875 423.203125 C-35.15698242 422.99945312 -36.08349609 422.79578125 -37.03808594 422.5859375 C-71.91679856 414.64168239 -103.54622859 397.83272188 -130.23046875 374.203125 C-131.6071875 373.01009766 -131.6071875 373.01009766 -133.01171875 371.79296875 C-137.49540002 367.85624257 -141.63505878 363.83504338 -145.47265625 359.265625 C-146.69030915 357.83691227 -147.94905354 356.44259946 -149.23828125 355.078125 C-177.10976182 325.50838217 -194.25288733 285.05106998 -200.23046875 245.203125 C-200.3476123 244.42437012 -200.46475586 243.64561523 -200.58544922 242.84326172 C-208.32393444 188.67386519 -194.19643789 131.15546566 -161.66015625 87.07568359 C-139.41647607 57.90824705 -111.69557561 34.45684093 -78.23046875 19.203125 C-77.50424316 18.86829102 -76.77801758 18.53345703 -76.02978516 18.18847656 C-52.49138437 7.45024703 -26.00131672 0.14113598 0 0 Z M-58.23046875 128.203125 C-59.0915625 128.91210938 -59.95265625 129.62109375 -60.83984375 130.3515625 C-81.22555371 147.88833784 -95.90905087 174.16709973 -98.23046875 201.203125 C-100.09571965 234.7197541 -91.15950996 263.84298087 -68.63671875 289.11328125 C-47.2683986 311.4557454 -18.31875703 323.61736399 12.45703125 324.390625 C42.59824751 323.87013304 69.23109045 312.05780577 90.76953125 291.203125 C91.58164062 290.41679687 92.39375 289.63046875 93.23046875 288.8203125 C110.65290631 270.84827123 121.84360807 245.28356587 122.76953125 220.203125 C122.80949219 219.22472656 122.84945312 218.24632812 122.890625 217.23828125 C123.49584838 187.86714645 113.20603613 159.86691098 93.07373047 138.48388672 C72.06696496 116.95322543 45.04087268 103.5170239 14.58129883 102.96166992 C-12.23806234 102.8568717 -37.48441286 110.95426139 -58.23046875 128.203125 Z " fill="#E87009" transform="translate(739.23046875,155.796875)"/>
<path d="M0 0 C-1.57064379 5.78410737 -4.48447939 10.48397356 -7.5625 15.5625 C-8.74286862 17.53474877 -9.92251912 19.50742745 -11.1015625 21.48046875 C-11.73223633 22.53282715 -12.36291016 23.58518555 -13.01269531 24.66943359 C-16.15693083 29.93892511 -19.25761621 35.23373533 -22.35720825 40.52957153 C-23.43973798 42.37882306 -24.52333624 44.22744477 -25.60717773 46.07592773 C-29.06579912 51.97640471 -32.51550014 57.88185608 -35.94921875 63.796875 C-36.57062744 64.86631348 -37.19203613 65.93575195 -37.83227539 67.03759766 C-38.98062291 69.01526383 -40.12711803 70.99400748 -41.27124023 72.97412109 C-45.01720899 79.42438646 -48.95333595 85.73424636 -53 92 C-60.44211985 86.48801478 -60.44211985 86.48801478 -63.08984375 84.171875 C-84.16560855 65.94819085 -113.11099858 58.35978063 -140.52734375 60.2421875 C-170.15335812 63.14263646 -196.55076787 76.81598903 -216 99.44140625 C-231.75921943 119.60212642 -240.43461946 143.10316916 -240.3125 168.75 C-240.30686035 169.98919189 -240.3012207 171.22838379 -240.29541016 172.50512695 C-240.17760674 181.38528865 -239.57524656 189.45486369 -237 198 C-236.80664062 198.65935547 -236.61328125 199.31871094 -236.4140625 199.99804688 C-231.6467817 215.90369671 -224.05642478 229.58972729 -213 242 C-212.24203125 242.91265625 -211.4840625 243.8253125 -210.703125 244.765625 C-193.42761748 264.97683968 -166.79619614 276.23477701 -140.6328125 278.72265625 C-109.11496068 281.12885784 -80.87277813 270.12277651 -57 250 C-55.67532975 248.98855227 -54.34606775 247.98279163 -53 247 C-45.32869628 259.01955421 -38.11823203 271.28328124 -30.96533203 283.61669922 C-27.81119984 289.0465084 -24.64124804 294.46701766 -21.46728516 299.88525391 C-20.74157644 301.12418175 -20.01615127 302.36327572 -19.29101562 303.60253906 C-14.07586418 312.51372797 -8.80466576 321.38936868 -3.40185547 330.18847656 C-2.9482666 330.93452148 -2.49467773 331.68056641 -2.02734375 332.44921875 C-1.63281006 333.09205811 -1.23827637 333.73489746 -0.83178711 334.3972168 C0 336 0 336 0 338 C-1.98616619 339.61892437 -3.96441072 341.10017857 -6.0625 342.5625 C-7.01588257 343.23067749 -7.01588257 343.23067749 -7.98852539 343.91235352 C-54.81064259 376.33651155 -112.8248628 389.98031385 -169.140625 379.96484375 C-202.58568164 373.53607618 -233.81177165 360.66790588 -261 340 C-261.94101562 339.29101562 -262.88203125 338.58203125 -263.8515625 337.8515625 C-306.64783941 304.56556935 -333.63087957 256.0883423 -343 203 C-343.19698486 201.8857666 -343.19698486 201.8857666 -343.39794922 200.74902344 C-352.39412992 146.46912246 -337.14152668 89.26306892 -305.72265625 44.75390625 C-298.86749517 35.20950509 -291.04717661 26.53888189 -283 18 C-282.31035156 17.2678125 -281.62070312 16.535625 -280.91015625 15.78125 C-275.66276638 10.37289725 -269.95998878 5.6008726 -264 1 C-263.37367676 0.51370117 -262.74735352 0.02740234 -262.10205078 -0.47363281 C-183.74795538 -60.72866516 -78.54325765 -56.27276434 0 0 Z " fill="#E87009" transform="translate(580,200)"/>
<path d="M0 0 C0.86435669 -0.00705963 1.72871338 -0.01411926 2.6192627 -0.02139282 C38.70773202 -0.24924246 38.70773202 -0.24924246 53.76953125 3.203125 C54.6807373 3.40711914 55.59194336 3.61111328 56.53076172 3.82128906 C96.09272478 12.90368459 134.4243934 31.5512964 162.76953125 61.203125 C161.46958429 64.06668597 160.09575052 66.12538681 157.87155151 68.34161377 C157.2798114 68.93610321 156.68807129 69.53059265 156.07839966 70.14309692 C155.43103851 70.78326752 154.78367737 71.42343811 154.11669922 72.08300781 C153.43365723 72.76634186 152.75061523 73.4496759 152.046875 74.15371704 C149.78986487 76.40933476 147.52585495 78.65778722 145.26171875 80.90625 C143.69472439 82.46951392 142.12817126 84.03322023 140.56204224 85.59735107 C136.44004983 89.71170945 132.31208641 93.8200262 128.18286133 97.92712402 C123.96985541 102.11966666 119.76250967 106.31788088 115.5546875 110.515625 C107.29850635 118.75036028 99.03600768 126.97872565 90.76953125 135.203125 C87.52598571 133.67515937 84.92726505 131.80206275 82.15283203 129.5222168 C58.99133467 110.49968738 30.38954691 101.62940247 0.42724609 104.42138672 C-21.34758282 107.04914444 -41.32424492 115.17507089 -58.23046875 129.203125 C-59.07996094 129.88890625 -59.92945313 130.5746875 -60.8046875 131.28125 C-80.88252782 148.30171118 -94.96634302 174.91595936 -97.23046875 201.203125 C-99.30555747 233.16525539 -90.97509914 261.49720841 -70.23046875 286.203125 C-68.91735101 287.55637197 -67.59166735 288.89825186 -66.23046875 290.203125 C-67.53730574 293.08643143 -68.92769012 295.14876608 -71.16641235 297.37957764 C-71.76656662 297.98248123 -72.36672089 298.58538483 -72.98506165 299.20655823 C-73.64177353 299.85607956 -74.29848541 300.50560089 -74.97509766 301.17480469 C-75.66789322 301.8678923 -76.36068878 302.56097992 -77.07447815 303.27507019 C-79.36395349 305.56315299 -81.66043005 307.84407151 -83.95703125 310.125 C-85.54644584 311.7106842 -87.13541923 313.29681074 -88.72396851 314.88336182 C-92.9051446 319.05690354 -97.09229221 323.22440417 -101.28070068 327.39068604 C-105.55402938 331.64355219 -109.82169848 335.90208919 -114.08984375 340.16015625 C-122.46451456 348.51338059 -130.84550318 356.86023548 -139.23046875 365.203125 C-140.01834778 364.41411301 -140.80622681 363.62510101 -141.61798096 362.81217957 C-143.08001038 361.35207149 -144.54674041 359.89650623 -146.03027344 358.45825195 C-150.23206632 354.36713242 -153.93450872 350.057957 -157.48046875 345.390625 C-158.03694092 344.65924316 -158.59341309 343.92786133 -159.16674805 343.17431641 C-165.12431485 335.20546691 -170.27467242 326.82094781 -175.23046875 318.203125 C-175.60010742 317.57229004 -175.96974609 316.94145508 -176.35058594 316.29150391 C-204.09886635 268.65908708 -208.72581807 208.65660851 -194.8828125 156.02734375 C-179.69011709 101.19218796 -143.11244457 55.74749403 -94.23046875 27.203125 C-89.01484504 24.28044177 -83.66888741 21.68200826 -78.23046875 19.203125 C-77.50424316 18.86829102 -76.77801758 18.53345703 -76.02978516 18.18847656 C-52.49138437 7.45024703 -26.00131672 0.14113598 0 0 Z " fill="#F9AB00" transform="translate(739.23046875,155.796875)"/>
<path d="M0 0 C0.75713287 0.00215515 1.51426575 0.0043103 2.29434204 0.00653076 C50.43197361 0.22487063 93.04589665 16.49316772 131.875 44.3125 C130.30435621 50.09660737 127.39052061 54.79647356 124.3125 59.875 C123.13213138 61.84724877 121.95248088 63.81992745 120.7734375 65.79296875 C120.14276367 66.84532715 119.51208984 67.89768555 118.86230469 68.98193359 C115.71806917 74.25142511 112.61738379 79.54623533 109.51779175 84.84207153 C108.43526202 86.69132306 107.35166376 88.53994477 106.26782227 90.38842773 C102.80920088 96.28890471 99.35949986 102.19435608 95.92578125 108.109375 C95.30437256 109.17881348 94.68296387 110.24825195 94.04272461 111.35009766 C92.89437709 113.32776383 91.74788197 115.30650748 90.60375977 117.28662109 C86.85779101 123.73688646 82.92166405 130.04674636 78.875 136.3125 C71.43288015 130.80051478 71.43288015 130.80051478 68.78515625 128.484375 C47.70939145 110.26069085 18.76400142 102.67228063 -8.65234375 104.5546875 C-35.27185712 107.1607937 -57.64323815 118.2257285 -77.125 136.3125 C-81.68278294 132.49611567 -86.03007675 128.55328766 -90.22460938 124.34228516 C-90.78984818 123.77879868 -91.35508698 123.21531219 -91.93745422 122.63475037 C-93.78372259 120.79284133 -95.62635772 118.94734801 -97.46875 117.1015625 C-98.76462478 115.80636256 -100.06064786 114.51131099 -101.35681152 113.21640015 C-104.06486012 110.50982059 -106.77110556 107.80145444 -109.47607422 105.09179688 C-112.92555902 101.63662103 -116.37950682 98.18594712 -119.83483124 94.73661232 C-122.50995641 92.0651191 -125.18267254 89.39122589 -127.85469055 86.71662521 C-129.12647832 85.44417516 -130.39899603 84.1724542 -131.67228699 82.90150833 C-144.39664007 70.19545265 -144.39664007 70.19545265 -150.125 63.3125 C-138.87301138 39.18341185 -98.48349782 22.02812998 -75.125 13.3125 C-74.03856201 12.90161133 -74.03856201 12.90161133 -72.93017578 12.48242188 C-63.96855708 9.14468639 -54.89475531 6.6400341 -45.5625 4.5625 C-44.67788086 4.36374268 -43.79326172 4.16498535 -42.88183594 3.96020508 C-28.67170248 0.96054517 -14.48726084 -0.07516454 0 0 Z " fill="#F9AA00" transform="translate(448.125,155.6875)"/>
<path d="M0 0 C3.04180989 2.82521425 5.11067332 5.58756073 7.14453125 9.19921875 C7.73113525 10.23062988 8.31773926 11.26204102 8.92211914 12.32470703 C9.54594482 13.43442871 10.16977051 14.54415039 10.8125 15.6875 C12.15761455 18.05558384 13.50817037 20.42054315 14.859375 22.78515625 C15.37504784 23.68914154 15.37504784 23.68914154 15.90113831 24.61138916 C19.36540939 30.66989479 22.95352358 36.65171777 26.5625 42.625 C32.21249782 51.98827722 37.76990689 61.40080604 43.25805664 70.85986328 C43.79293701 71.78138184 44.32781738 72.70290039 44.87890625 73.65234375 C45.39211426 74.53776855 45.90532227 75.42319336 46.43408203 76.33544922 C48.54287001 79.92374232 50.72188853 83.46807173 52.91381836 87.00610352 C54 89 54 89 54 91 C52.01383381 92.61892437 50.03558928 94.10017857 47.9375 95.5625 C47.30191162 96.00795166 46.66632324 96.45340332 46.01147461 96.91235352 C-0.81064259 129.33651155 -58.8248628 142.98031385 -115.140625 132.96484375 C-148.58568164 126.53607618 -179.81177165 113.66790588 -207 93 C-207.94101562 92.29101562 -208.88203125 91.58203125 -209.8515625 90.8515625 C-216.5754202 85.6218954 -222.78187471 79.81213085 -229 74 C-224.96551052 69.172044 -220.75568828 64.59485543 -216.32373047 60.13085938 C-215.68554382 59.48449524 -215.04735718 58.8381311 -214.38983154 58.17218018 C-212.30194459 56.05971359 -210.21013677 53.95120062 -208.1171875 51.84375 C-207.39953342 51.12077225 -206.68187935 50.39779449 -205.94247818 49.65290833 C-202.15447863 45.83831703 -198.36290735 42.02731321 -194.56884766 38.21875 C-191.42899829 35.06548528 -188.29660631 31.90508158 -185.17041016 28.73828125 C-181.38790331 24.90666289 -177.59346091 21.08727176 -173.78989029 17.27656555 C-172.34311563 15.82305694 -170.90061607 14.3652803 -169.46245956 12.90324402 C-167.45894231 10.86832851 -165.44046466 8.84952145 -163.41748047 6.83398438 C-162.8241391 6.22423767 -162.23079773 5.61449097 -161.61947632 4.98626709 C-159.94625854 3.33825684 -159.94625854 3.33825684 -157 1 C-153.32399241 1.45559038 -151.67078057 3.0042824 -149.0625 5.5625 C-129.6846946 23.26489971 -100.95361114 32.87728826 -74.87109375 32.1796875 C-47.08538391 30.4407179 -19.55042086 20.56867195 0 0 Z " fill="#F9AA00" transform="translate(526,447)"/>
</svg>
