<?xml version="1.0" encoding="UTF-8"?>
<svg version="1.1" xmlns="http://www.w3.org/2000/svg" width="2400" height="3243">
<path d="M0 0 C0.66 0 1.32 0 2 0 C4.74748401 2.95882893 7.18509851 6.17584086 9.68505859 9.34521484 C10.96758614 10.95920884 12.27151358 12.55322368 13.58203125 14.14453125 C25.86725193 29.20925472 35.97117105 45.81814203 45 63 C45.44585449 63.84256348 45.89170898 64.68512695 46.35107422 65.55322266 C65.84952129 102.64599824 77.67301668 142.67292865 84 184 C84.16661133 185.06025391 84.33322266 186.12050781 84.50488281 187.21289062 C89.79742025 222.51838882 89.24260006 260.72652939 84 296 C83.82307617 297.22541504 83.64615234 298.45083008 83.46386719 299.71337891 C71.46184601 381.16751053 38.25908805 456.54884579 -5 526 C-5.95253662 527.53309814 -5.95253662 527.53309814 -6.92431641 529.09716797 C-14.10381616 540.61970463 -21.53412515 551.90631234 -29.48925781 562.90820312 C-31.06079017 565.084171 -32.62091546 567.2680014 -34.1796875 569.453125 C-41.57883702 579.79791277 -49.20412279 589.95142612 -57 600 C-57.46615723 600.60263672 -57.93231445 601.20527344 -58.41259766 601.82617188 C-69.38100025 615.9876071 -80.83229766 629.74938527 -92.54101562 643.30273438 C-94.01035548 645.01204674 -95.46763872 646.73095199 -96.921875 648.453125 C-103.31873045 656.01208115 -109.94407604 663.30856896 -116.734375 670.515625 C-119.51520544 673.47005642 -122.2384334 676.47043544 -124.9375 679.5 C-127.92947121 682.85145019 -131.01780795 686.0503724 -134.22605896 689.19361877 C-135.95297063 690.9521106 -137.55386392 692.76917146 -139.15258789 694.64428711 C-143.21890616 699.31727896 -147.54926722 703.69328749 -151.93359375 708.06640625 C-152.77036148 708.90413071 -153.60712921 709.74185516 -154.46925354 710.60496521 C-156.22868104 712.36506935 -157.98935653 714.12392677 -159.7512207 715.8815918 C-162.42969411 718.55470972 -165.10278873 721.23312251 -167.77539062 723.91210938 C-169.49447115 725.63052903 -171.21386189 727.34863842 -172.93359375 729.06640625 C-173.72342148 729.85825821 -174.51324921 730.65011017 -175.32701111 731.46595764 C-179.5265585 735.64803215 -183.80244851 739.67289906 -188.30628967 743.526474 C-190.65649159 745.57114692 -192.82761653 747.76890346 -195 750 C-198.44436943 753.48090062 -201.95324895 756.77503619 -205.671875 759.95703125 C-208.84266862 762.73945585 -211.9170843 765.62091009 -215 768.5 C-219.30528004 772.51611099 -223.62968 776.49129529 -228.08984375 780.3359375 C-230.36204511 782.31540126 -232.58459872 784.3458317 -234.8125 786.375 C-239.18285684 790.32371445 -243.70303079 794.0462721 -248.28125 797.75 C-250.92147729 799.93501569 -253.4672972 802.19171391 -256 804.5 C-260.24651686 808.36533345 -264.6301311 812.01398246 -269.09375 815.625 C-272.20392904 818.16665169 -275.25895587 820.76600854 -278.3125 823.375 C-283.27402594 827.6018116 -288.34261966 831.66300684 -293.48754883 835.66357422 C-298.22696928 839.36114212 -302.87145041 843.16487152 -307.5 847 C-312.61471265 851.23651534 -317.75922034 855.42039193 -323 859.5 C-334.2883187 868.30026116 -345.28667324 877.45821733 -356.11547852 886.81665039 C-359.50365249 889.73971383 -362.94215456 892.57975321 -366.4375 895.375 C-371.69337381 899.63567877 -376.61506503 904.21315379 -381.52319336 908.86474609 C-384.55335968 911.7343058 -387.60971149 914.55262296 -390.76513672 917.28442383 C-394.72659395 920.74163967 -398.59988668 924.28091694 -402.43359375 927.87890625 C-403.11659042 928.51985733 -403.7995871 929.16080841 -404.50328064 929.82118225 C-411.77388573 936.67951068 -418.86511451 943.71368161 -425.92163086 950.79125977 C-428.08917642 952.96424335 -430.262125 955.13172363 -432.43554688 957.29882812 C-433.84407127 958.70801229 -435.252286 960.11750606 -436.66015625 961.52734375 C-437.2956691 962.16083237 -437.93118195 962.79432098 -438.58595276 963.44700623 C-442.3578298 967.23842198 -445.94548576 971.14301142 -449.43458557 975.19647217 C-451.84198536 977.97005879 -454.36283365 980.63420856 -456.875 983.3125 C-461.35742274 988.13101711 -465.6143573 993.07182933 -469.734375 998.20703125 C-471.75887274 1000.7027483 -473.83266253 1003.14705763 -475.9309082 1005.58081055 C-482.68314411 1013.43316335 -488.8840653 1021.64662086 -495 1030 C-495.53947266 1030.73444336 -496.07894531 1031.46888672 -496.63476562 1032.22558594 C-508.6728272 1048.64176744 -519.73950061 1065.4135598 -530 1083 C-530.433125 1083.74088867 -530.86625 1084.48177734 -531.3125 1085.24511719 C-577.00195985 1163.95235076 -591.30815164 1253.17670986 -568.12548828 1341.32519531 C-555.22527379 1389.03296529 -533.32099246 1433.75179141 -508 1476 C-507.41573242 1476.97743164 -506.83146484 1477.95486328 -506.22949219 1478.96191406 C-498.11599306 1492.50531983 -489.7045897 1505.82942524 -481 1519 C-480.57299805 1519.64807617 -480.14599609 1520.29615234 -479.70605469 1520.96386719 C-462.32227607 1547.32623461 -444.1216211 1573.14303549 -426 1599 C-421.94231486 1604.78973702 -417.88686737 1610.58102227 -413.8359375 1616.37548828 C-412.58690998 1618.16099969 -411.33687136 1619.94580413 -410.0859375 1621.72998047 C-399.84056209 1636.34545749 -389.82020188 1651.09543472 -380 1666 C-379.42121094 1666.87785156 -378.84242188 1667.75570313 -378.24609375 1668.66015625 C-360.77905344 1695.2051943 -344.36017323 1722.30217835 -329.8125 1750.5625 C-329.44838013 1751.26918823 -329.08426025 1751.97587646 -328.70910645 1752.70397949 C-318 1773.5374404 -318 1773.5374404 -318 1777 C-321.006818 1775.66000502 -322.99762609 1774.20154709 -325.25 1771.8125 C-331.27227354 1765.6240066 -337.85857575 1760.24548804 -344.703125 1754.9921875 C-347.15968821 1752.86149492 -348.99586349 1750.55365781 -351 1748 C-352.21693343 1746.8393114 -353.46681457 1745.71199593 -354.75 1744.625 C-355.44222656 1744.03203125 -356.13445312 1743.4390625 -356.84765625 1742.828125 C-357.91306641 1741.92320312 -357.91306641 1741.92320312 -359 1741 C-360.39845498 1739.79470178 -361.7943543 1738.58643105 -363.1875 1737.375 C-363.79980469 1736.84648438 -364.41210938 1736.31796875 -365.04296875 1735.7734375 C-367.44580953 1733.59601292 -369.70713701 1731.29286299 -372 1729 C-373.95017915 1727.17747881 -375.90663247 1725.36505893 -377.875 1723.5625 C-383.99356674 1717.93665649 -390.07650663 1712.27376169 -396.1484375 1706.59765625 C-398.77460531 1704.14276026 -401.40519902 1701.69273079 -404.0390625 1699.24609375 C-404.70244629 1698.62911621 -405.36583008 1698.01213867 -406.04931641 1697.37646484 C-407.30325611 1696.21041077 -408.55806718 1695.04529265 -409.81396484 1693.88134766 C-412.74802515 1691.15048393 -415.62502986 1688.38355989 -418.4375 1685.52734375 C-420.85202762 1683.090921 -423.33750196 1680.79972976 -425.9375 1678.5625 C-430.88994174 1674.28755992 -435.42177931 1669.62857657 -440 1664.9609375 C-440.66 1664.29320312 -441.32 1663.62546875 -442 1662.9375 C-442.86625 1662.05384766 -442.86625 1662.05384766 -443.75 1661.15234375 C-445.57260266 1659.40884711 -447.42188041 1657.78574446 -449.34155273 1656.15405273 C-456.0580596 1650.30862471 -462.24790889 1643.89558142 -468.53515625 1637.59765625 C-469.94170304 1636.19178434 -471.34839815 1634.7860608 -472.75523376 1633.38047791 C-475.69269764 1630.44448232 -478.62836082 1627.50670131 -481.56274414 1624.56762695 C-485.3070206 1620.81765377 -489.05576934 1617.07218869 -492.80588627 1613.32805729 C-495.7083344 1610.42923828 -498.60837735 1607.52802245 -501.50771904 1604.62609673 C-502.88835895 1603.24479405 -504.26973012 1601.86422185 -505.65187263 1600.48442268 C-518.69149056 1587.46206912 -518.69149056 1587.46206912 -523.73094177 1581.48924255 C-525.6893844 1579.19100593 -527.83920648 1577.10677368 -530 1575 C-534.29103552 1570.81261268 -538.33662259 1566.51106306 -542.25 1561.96875 C-543.93798286 1560.06976929 -545.68769734 1558.27994012 -547.5 1556.5 C-550.48893201 1553.55735676 -553.24652298 1550.47644293 -555.984375 1547.30078125 C-558.44480715 1544.49226471 -560.96994278 1541.7455632 -563.5 1539 C-570.79476286 1531.0684608 -577.80855788 1522.91022546 -584.8125 1514.72265625 C-586.91232 1512.26836295 -589.01652637 1509.8179562 -591.125 1507.37109375 C-597.18863443 1500.32957796 -603.14590887 1493.21750323 -609 1486 C-610.00721634 1484.77424947 -611.01507076 1483.54902308 -612.0234375 1482.32421875 C-619.09584672 1473.71183231 -625.89492611 1464.93889719 -632.52490234 1455.98242188 C-633.98046436 1454.02625445 -635.45023189 1452.08174836 -636.92578125 1450.140625 C-648.53363549 1434.84908324 -659.5435498 1419.10115417 -670 1403 C-670.45020508 1402.30680664 -670.90041016 1401.61361328 -671.36425781 1400.89941406 C-721.47715442 1323.37727037 -761.48942174 1231.16153759 -745 1137 C-744.8443457 1136.08041504 -744.68869141 1135.16083008 -744.52832031 1134.21337891 C-739.98905815 1108.35045709 -730.78609508 1083.39248399 -719 1060 C-718.61440918 1059.22897949 -718.22881836 1058.45795898 -717.83154297 1057.66357422 C-706.73454883 1035.81409253 -691.85144625 1015.42148036 -677 996 C-676.50951172 995.35788574 -676.01902344 994.71577148 -675.51367188 994.05419922 C-669.75044215 986.54435804 -663.75150875 979.2582843 -657.59765625 972.06640625 C-655.27347258 969.34229014 -653.04076416 966.55330007 -650.8125 963.75 C-646.11103829 957.96031569 -640.99557661 952.58070952 -635.84692383 947.18847656 C-635.19361084 946.50366211 -634.54029785 945.81884766 -633.8671875 945.11328125 C-633.29081543 944.51298096 -632.71444336 943.91268066 -632.12060547 943.29418945 C-630.31936985 941.34551214 -628.58745971 939.36202913 -626.85766602 937.35058594 C-622.58333948 932.44975793 -618.01224643 927.86856981 -613.41015625 923.27734375 C-612.50680038 922.37303116 -611.60344452 921.46871857 -610.67271423 920.53700256 C-608.77203932 918.63565057 -606.87040392 916.73532447 -604.96704102 914.83666992 C-602.54881608 912.42414139 -600.13511042 910.00714919 -597.72272587 907.58878231 C-595.39181599 905.25335425 -593.05706044 902.92177823 -590.72265625 900.58984375 C-589.86720718 899.73237045 -589.01175812 898.87489716 -588.13038635 897.99143982 C-583.7788493 893.65667809 -579.36000648 889.47212976 -574.7028656 885.46705627 C-572.67516013 883.72014328 -570.72045954 881.90686786 -568.78125 880.0625 C-567.72357422 879.06089844 -567.72357422 879.06089844 -566.64453125 878.0390625 C-565.93683594 877.36617187 -565.22914063 876.69328125 -564.5 876 C-559.1052328 870.87054922 -553.64241348 865.85635484 -548 861 C-547.43974121 860.51756836 -546.87948242 860.03513672 -546.30224609 859.53808594 C-544.682857 858.14780498 -543.06059256 856.76095476 -541.4375 855.375 C-536.41934013 851.08317969 -531.42195893 846.76839662 -526.4375 842.4375 C-516.09295619 833.45861219 -505.62632285 824.64461506 -495 816 C-493.27049133 814.58375089 -491.54133183 813.16707527 -489.8125 811.75 C-480.11291995 803.81524325 -470.40393298 795.89063584 -460.60546875 788.078125 C-458.5848396 786.46646876 -456.56690561 784.85165142 -454.55078125 783.234375 C-446.64727978 776.89673931 -438.70894025 770.60619946 -430.73388672 764.35888672 C-427.82033173 762.07546697 -424.91035807 759.78749197 -422 757.5 C-420.83335027 756.58331177 -419.66668361 755.6666451 -418.5 754.75 C-417.9225 754.29625 -417.345 753.8425 -416.75 753.375 C-355.5 705.25 -355.5 705.25 -353.75048828 703.87548828 C-352.58205848 702.95736646 -351.41376452 702.03907174 -350.24560547 701.12060547 C-347.35699494 698.84977631 -344.46620452 696.58185054 -341.5703125 694.3203125 C-333.86536044 688.29658011 -326.25224333 682.16794938 -318.671875 675.98828125 C-315.79387546 673.64278467 -312.90344164 671.31398453 -310 669 C-294.10129221 656.31288427 -278.28811678 643.48650162 -262.89282227 630.19165039 C-259.41303919 627.19162887 -255.88728526 624.26213208 -252.3125 621.375 C-247.57022513 617.52538863 -243.05071039 613.47287329 -238.5546875 609.33984375 C-235.75115278 606.7720803 -232.89655125 604.27103125 -230.02734375 601.77734375 C-226.88335711 599.02105488 -223.78690618 596.21246911 -220.6875 593.40625 C-218.52542336 591.47043719 -216.34656124 589.55976006 -214.15625 587.65625 C-210.18778645 584.18941808 -206.33095409 580.61752911 -202.5 577 C-201.08350231 575.66518525 -199.66683106 574.33055465 -198.25 572.99609375 C-197.5384375 572.32562012 -196.826875 571.65514648 -196.09375 570.96435547 C-194.15450244 569.14495413 -192.2050887 567.33750365 -190.25 565.53515625 C-181.79841246 557.72355529 -173.58378293 549.69006331 -165.4375 541.5625 C-164.92026367 541.04785187 -164.40302734 540.53320374 -163.87011719 540.00296021 C-158.56012929 534.71399171 -153.31751508 529.4102579 -148.47094727 523.68530273 C-146.88829799 521.87202009 -145.21812496 520.18476575 -143.5 518.5 C-140.48586418 515.53264677 -137.70082667 512.42654708 -134.94140625 509.22265625 C-132.71195939 506.67023117 -130.41998618 504.18112486 -128.125 501.6875 C-124.03562213 497.20337072 -120.15380979 492.59732762 -116.34375 487.875 C-114.24983811 485.30646808 -112.11829314 482.77968393 -109.96337891 480.26269531 C-104.55828188 473.94387502 -99.37246548 467.48508707 -94.37939453 460.83447266 C-93.43114921 459.57339029 -92.47876345 458.31541395 -91.52294922 457.06005859 C-75.31127965 435.74763182 -60.24554116 413.27702089 -47 390 C-46.52723633 389.17258301 -46.05447266 388.34516602 -45.56738281 387.49267578 C-14.43739641 332.64707349 5.93369493 273.48667178 14.71289062 211.02276611 C14.97866052 209.15034261 15.25826118 207.27989631 15.5390625 205.40966797 C21.31059399 165.74756616 20.33995474 121.66383935 15 82 C14.80453912 80.4983917 14.60923265 78.9967633 14.4140625 77.49511719 C11.2994474 53.87702456 6.62725302 30.67547258 1.21893311 7.48199463 C0 2.21092843 0 2.21092843 0 0 Z " fill="#E66F00" transform="translate(1522,3)"/>
<path d="M0 0 C0 0.66 0 1.32 0 2 C-0.76368896 1.99202393 -1.52737793 1.98404785 -2.31420898 1.97583008 C-62.12702608 1.62925871 -121.30337353 14.66398972 -177.85754395 33.29431152 C-179.96770522 33.98936265 -182.07902522 34.68080651 -184.19042969 35.37207031 C-257.94855137 57.70032877 -257.94855137 57.70032877 -312 108 C-313.84176005 113.52528016 -313.8432331 118.88112416 -311.3125 124.1875 C-299.47615032 146.54504939 -263.88675579 154.62324658 -242 162 C-240.81019531 162.40331543 -239.62039063 162.80663086 -238.39453125 163.22216797 C-139.62015895 196.33827847 -32.95053078 209.1727907 352.375 236.6875 C353.31603703 236.71824867 354.25707405 236.74899734 355.22662735 236.7806778 C368.20700101 237.20411774 381.1880903 237.58735923 394.17095947 237.92595291 C396.04219408 237.97493046 397.91341048 238.02460936 399.78460693 238.07502365 C444.90972035 239.28917751 490.04609382 239.20093763 535.18385792 239.18822432 C538.270183 239.18749523 541.35650778 239.18724808 544.44283295 239.1871376 C605.12217872 239.18382757 665.76756448 239.00567756 726.42181396 237.08084869 C729.96773167 236.96965314 733.5137922 236.86343569 737.05986214 236.75722313 C763.04549143 235.9782536 789.02414196 235.05518404 815 234 C816.30137657 233.9472076 816.30137657 233.9472076 817.62904358 233.89334869 C911.57924934 230.07119883 1005.41646045 224.19857486 1668.97265625 88.4765625 C1679.03343369 76.18651838 1685.11219504 63.62944462 1683.78515625 47.3671875 C1681.71409757 35.09863034 1675.75461195 25.50746276 1668 16 C1667.44183594 15.31164063 1666.88367187 14.62328125 1666.30859375 13.9140625 C1665.22224667 12.59558998 1664.11474936 11.29454765 1663 10 C1668.21517901 10.58881053 1672.44187228 13.06969082 1677 15.5 C1677.84433594 15.94851318 1678.68867188 16.39702637 1679.55859375 16.85913086 C1686.76696835 20.75475263 1693.45530652 25.05434378 1700 30 C1700.97582031 30.72960938 1701.95164062 31.45921875 1702.95703125 32.2109375 C1713.23062119 40.2218079 1723.75958847 51.6062354 1726 65 C1727.08209175 81.74581337 1723.75079689 94.34614876 1712.8984375 107.55859375 C1710.65545432 110.09879202 1708.34703011 112.55582461 1706 115 C1704.89398437 116.20076172 1704.89398437 116.20076172 1703.765625 117.42578125 C1645.74088615 178.46858537 1539.54779466 204.25580624 1312 260 C1310.96435913 260.20304749 1309.92871826 260.40609497 1308.86169434 260.61529541 C1216.42087205 278.73233019 1123.13282976 291.96516837 707.5625 324.6875 C706.69405834 324.71831539 705.82561668 324.74913078 704.93085861 324.78087997 C663.73273909 326.23818409 622.55226739 327.16166142 581.32729769 327.16725707 C578.27911365 327.16798608 575.23093369 327.17015362 572.1827507 327.17275429 C561.38778156 327.18192146 550.59282447 327.18610134 539.79785156 327.18530273 C531.076804 327.18477374 522.35580169 327.19175711 513.63476562 327.20581055 C439.6511486 327.32228729 365.75951349 326.19913944 291.84375 322.90234375 C291.0733287 322.86837934 290.30290741 322.83441494 289.50914001 322.79942131 C194.19342805 318.58706841 98.98353161 311.98875059 -342 259 C-343.10114136 258.82553345 -344.20228271 258.65106689 -345.33679199 258.47131348 C-478.73758429 237.29320397 -478.73758429 237.29320397 -511.69140625 196.87109375 C-519.36229221 185.90287173 -521.16423852 175.1127393 -519 162 C-508.75905163 124.98810774 -468.76661295 100.13680032 -437.46411133 82.15063477 C-428.29320126 76.96618515 -418.94603859 72.1154139 -409.56835938 67.31787109 C-407.4086456 66.20968336 -405.25733066 65.08774537 -403.109375 63.95703125 C-380.57315613 52.31662745 -356.79620567 42.70666286 -333 34 C-332.38396912 33.77352783 -331.76793823 33.54705566 -331.13323975 33.3137207 C-247.79434521 2.68707835 -155.433869 -22.65918588 0 0 Z " fill="#5382A0" transform="translate(524,2759)"/>
<path d="M0 0 C-7.84459545 4.93351511 -15.79995872 9.65758873 -23.8125 14.3125 C-69.22797812 40.71575561 -114.10684847 68.0644623 -158.4375 96.25 C-159.25186523 96.76771973 -160.06623047 97.28543945 -160.90527344 97.81884766 C-175.75712904 107.28580274 -190.49633422 116.92426762 -205.20239258 126.61572266 C-208.06156993 128.49938726 -210.92236111 130.38058364 -213.78320312 132.26171875 C-224.02915672 139.00700837 -234.21891812 145.82075665 -244.29550171 152.81677246 C-245.89557292 153.92750887 -247.49811685 155.03468081 -249.10083008 156.14160156 C-261.17128875 164.4791305 -273.14516413 172.93547859 -285.01123047 181.56103516 C-287.46628465 183.33737806 -289.93613384 185.09218136 -292.40820312 186.84472656 C-300.72248048 192.7422828 -308.87594583 198.84383033 -317 205 C-317.83547363 205.63276855 -318.67094727 206.26553711 -319.53173828 206.91748047 C-339.25146092 221.86566016 -358.63625544 237.12257241 -377.47338867 253.17456055 C-380.72996898 255.94528214 -384.03637366 258.64159893 -387.375 261.3125 C-393.36599041 266.18072793 -398.93535885 271.47159208 -404.546875 276.765625 C-407.12775709 279.19648811 -409.74663266 281.56551543 -412.4375 283.875 C-415.80504905 286.76978298 -418.90103546 289.88399725 -422.015625 293.046875 C-423.8677947 294.86987667 -425.7717518 296.56603666 -427.75 298.25 C-435.35723449 304.80692598 -442.46628406 312.03754007 -448.96875 319.6875 C-451.26043893 322.29649971 -453.63341191 324.81726737 -456.01660156 327.3425293 C-462.31099004 334.01481262 -468.29363122 340.81273967 -474 348 C-474.91762459 349.11593906 -475.83699795 350.23044167 -476.7578125 351.34375 C-504.46376937 385.0518242 -526.70541473 424.13647093 -536 467 C-536.17789062 467.81436523 -536.35578125 468.62873047 -536.5390625 469.46777344 C-546.81712412 518.92074849 -531.02706575 567.24545457 -509 611 C-508.58669434 611.83305664 -508.17338867 612.66611328 -507.74755859 613.52441406 C-494.87122248 639.40568891 -478.38811601 663.25811108 -462 687 C-461.31067383 687.9988623 -460.62134766 688.99772461 -459.91113281 690.02685547 C-453.3041086 699.5746665 -446.56934479 709.02652377 -439.75195312 718.42504883 C-436.12847206 723.42278253 -432.55030833 728.45006292 -429 733.5 C-424.87612404 739.36493206 -420.70549349 745.19333525 -416.5 751 C-415.40482701 752.51814195 -414.30977433 754.03637071 -413.21484375 755.5546875 C-411.15896578 758.40413807 -409.08762594 761.2411804 -407.00390625 764.0703125 C-370.49279041 814.10294348 -351.08366282 873.7454247 -359.96875 935.78515625 C-369.23637338 994.26864068 -400.9163873 1045.57778089 -440 1089 C-440.77915771 1089.8674585 -441.55831543 1090.73491699 -442.36108398 1091.62866211 C-449.02017693 1098.97254463 -455.9039399 1106.05974979 -462.92602539 1113.05639648 C-464.69991003 1114.82487219 -466.46831777 1116.59870044 -468.23632812 1118.37304688 C-473.9878578 1124.12829555 -479.76877619 1129.7591576 -486 1135 C-487.0830766 1135.93759589 -488.1651381 1136.8763659 -489.24609375 1137.81640625 C-503.63667291 1150.22539796 -518.24323678 1162.1631803 -533.64892578 1173.29736328 C-535.92801339 1174.94786764 -538.19750139 1176.6107545 -540.46484375 1178.27734375 C-561.99403477 1194.04872787 -584.44508626 1208.42382096 -607.5625 1221.75 C-608.449375 1222.26385254 -609.33625 1222.77770508 -610.25 1223.30712891 C-611.07628906 1223.77812012 -611.90257812 1224.24911133 -612.75390625 1224.734375 C-613.47908447 1225.14913086 -614.2042627 1225.56388672 -614.95141602 1225.99121094 C-616.96459076 1226.98256334 -618.80860097 1227.54722396 -621 1228 C-617.73682468 1223.96396737 -614.41770634 1220.40698225 -610.5 1217 C-599.98334465 1207.704736 -590.65240829 1197.02664187 -582 1186 C-581.24847656 1185.06671875 -580.49695312 1184.1334375 -579.72265625 1183.171875 C-541.14878246 1134.40749647 -515.19634085 1074.04322687 -521.6875 1010.9375 C-526.56012131 970.32774719 -544.16349191 931.53445852 -570 900 C-570.72445313 899.09636719 -571.44890625 898.19273437 -572.1953125 897.26171875 C-576.86916429 891.47384853 -581.70449605 885.83018951 -586.5559082 880.19165039 C-594.52242479 870.91914747 -602.13557644 861.37425902 -609.64892578 851.73339844 C-610.91865265 850.10436685 -612.19163775 848.47787634 -613.46484375 846.8515625 C-670.72483471 773.16528564 -722.76261998 679.82764802 -723.203125 583.8671875 C-723.21013931 582.84012695 -723.21715363 581.81306641 -723.22438049 580.75488281 C-723.24177949 577.4615434 -723.24823197 574.16838367 -723.25 570.875 C-723.25067474 569.75095764 -723.25134949 568.62691528 -723.25204468 567.46881104 C-723.23673028 551.44078623 -722.95609482 535.79852431 -720 520 C-719.82839355 519.03739258 -719.65678711 518.07478516 -719.47998047 517.08300781 C-708.39481946 455.96107445 -680.46643756 400.4110821 -642 352 C-641.23985596 351.04262939 -641.23985596 351.04262939 -640.46435547 350.06591797 C-634.33479824 342.37403296 -628.1178539 334.82624589 -621.4140625 327.625 C-619.50794334 325.55232674 -617.6621804 323.45350458 -615.82543945 321.32055664 C-612.16486355 317.13227931 -608.31710718 313.17222729 -604.37890625 309.24609375 C-603.67531479 308.54154556 -602.97172333 307.83699738 -602.24681091 307.11109924 C-600.76985352 305.63346633 -599.29165258 304.15707543 -597.81225586 302.68188477 C-595.56834915 300.44333519 -593.32983296 298.19949527 -591.09179688 295.95507812 C-589.64615382 294.51009596 -588.20020055 293.06542408 -586.75390625 291.62109375 C-586.0953212 290.96048447 -585.43673615 290.29987518 -584.75819397 289.61924744 C-580.87377458 285.75403521 -576.88064592 282.06914357 -572.72955322 278.49143982 C-570.5102696 276.57769243 -568.35027953 274.60218199 -566.1875 272.625 C-561.92119411 268.77949818 -557.548307 265.10268734 -553.08203125 261.4921875 C-550.86080631 259.69606391 -548.65099623 257.88991464 -546.44921875 256.0703125 C-536.65476321 248.00104524 -526.60865492 240.30946016 -516.39941406 232.77294922 C-514.25802339 231.19065586 -512.12466176 229.59817443 -509.9921875 228.00390625 C-459.6369917 190.70953094 -404.73318504 159.43023719 -349 131 C-348.32050293 130.65306091 -347.64100586 130.30612183 -346.94091797 129.94866943 C-326.21163954 119.37261635 -305.32935858 109.25899064 -284.0625 99.80908203 C-280.71177742 98.31966016 -277.36854414 96.81424267 -274.02726746 95.30377197 C-192.32514497 58.40599894 -106.9242929 27.95514227 -16.125 2.6875 C-15.05409119 2.38806488 -15.05409119 2.38806488 -13.96154785 2.08258057 C-11.97901755 1.53028193 -9.99405945 0.98797496 -8.0078125 0.44921875 C-6.33162842 -0.00964722 -6.33162842 -0.00964722 -4.62158203 -0.4777832 C-2 -1 -2 -1 0 0 Z " fill="#E66F00" transform="translate(1929,665)"/>
<path d="M0 0 C-0.9178125 0.64066406 -1.835625 1.28132813 -2.78125 1.94140625 C-15.92449164 11.17196598 -30.61282271 21.51040826 -34.4921875 38.10546875 C-35.6573798 45.01339451 -34.35970552 50.4694943 -30.47265625 56.28515625 C0.0849174 93.94914238 76.40676247 93.19272587 120.6875 97.875 C122.31018086 98.0474733 123.93286152 98.21994851 125.55554199 98.39242554 C179.91766137 104.15415318 234.38125787 108.59768085 289 111 C290.55680823 111.07118318 292.113612 111.14246412 293.67041016 111.21386719 C407.11063054 116.29634916 520.40675371 105.38987265 712.24346924 74.1860199 C714.60917598 73.76070899 716.97574942 73.34018826 719.34320068 72.92469788 C724.86035233 71.95291324 730.35848603 70.94243095 735.8381424 69.77517986 C737.79889479 69.36121927 739.76377064 68.9669504 741.72860718 68.5728302 C744.18458531 68.07974631 746.63482568 67.55669179 749.0765686 66.99736023 C759.61333697 64.94830982 765.87088999 68.41882076 774.64746094 73.99316406 C775.48051758 74.61932617 776.31357422 75.24548828 777.171875 75.890625 C782.88775561 80.00744285 788.8345927 83.35088579 795.0625 86.625 C797.06919369 87.70148134 799.07570512 88.77830252 801.08203125 89.85546875 C803.05402318 90.90489513 805.02666895 91.95309387 807 93 C807.93634277 93.49709473 808.87268555 93.99418945 809.83740234 94.50634766 C816.53414176 98.05154286 823.26019222 101.5374955 830 105 C831.0401123 105.53705566 832.08022461 106.07411133 833.15185547 106.62744141 C853.08897181 116.89099822 873.43801452 126.06900708 894 135 C894.68370667 135.29729004 895.36741333 135.59458008 896.07183838 135.90087891 C909.63412067 141.79556015 923.21045306 147.65303282 937 153 C934.30673915 156.33909381 930.71557626 157.57824745 926.84375 159.1171875 C926.12248428 159.41042908 925.40121857 159.70367065 924.65809631 160.00579834 C922.27547295 160.9709108 919.88814649 161.92364356 917.5 162.875 C916.67523163 163.20602722 915.85046326 163.53705444 915.0007019 163.87811279 C897.45619356 170.9197302 879.79741768 177.62559771 862 184 C861.27180054 184.26127686 860.54360107 184.52255371 859.79333496 184.79174805 C767.64947445 217.78924596 671.43995918 239.83420171 491 262 C490.14198792 262.06940796 489.28397583 262.13881592 488.39996338 262.21032715 C417.74503901 267.87164793 346.77882996 268.75978537 276 265 C274.56059052 264.92362305 274.56059052 264.92362305 273.09210205 264.84570312 C179.72641036 259.80376032 84.58668623 246.84955322 -126 157 C-126.84046875 156.29359375 -127.6809375 155.5871875 -128.546875 154.859375 C-141.27228882 143.8728376 -154.21688513 128.44928265 -156.23193359 110.99047852 C-157.3840749 93.44356855 -152.18503082 79.81389367 -140.65966797 66.4453125 C-108.26198354 30.37413578 -55.90577078 14.7033962 -11 1 C-9.76233887 0.62109619 -8.52467773 0.24219238 -7.24951172 -0.14819336 C-4.18827526 -0.9506467 -2.8748991 -1.14995964 0 0 Z " fill="#5382A0" transform="translate(774,2508)"/>
<path d="M0 0 C1.04905518 -0.00475342 2.09811035 -0.00950684 3.17895508 -0.0144043 C9.4692551 -0.00065779 15.62999491 0.36870835 21.875 1.125 C19.20016592 2.90822272 17.80808181 3.54310315 14.80493164 4.27563477 C13.97540482 4.4815625 13.14587799 4.68749023 12.29121399 4.8996582 C11.38171494 5.11968506 10.47221588 5.33971191 9.53515625 5.56640625 C7.53212375 6.06346935 5.52919949 6.56096874 3.52636719 7.05883789 C1.92118225 7.45499802 1.92118225 7.45499802 0.28356934 7.85916138 C-43.1550699 18.61264524 -86.2503269 30.87469493 -128.90118408 44.42041016 C-131.15927568 45.13585984 -133.41899711 45.84593559 -135.67919922 46.5546875 C-221.55971264 72.72192607 -221.55971264 72.72192607 -298.125 118.125 C-298.88425781 118.71925781 -299.64351562 119.31351563 -300.42578125 119.92578125 C-306.44514351 124.85689722 -312.29688419 131.31770682 -313.43359375 139.2890625 C-313.75110229 145.35058917 -312.7460924 149.17728753 -309.06640625 154.03515625 C-258.48977316 208.47881561 -109.40600874 199.44139009 -42.125 202.125 C-41.46150543 202.15168007 -40.79801086 202.17836014 -40.1144104 202.20584869 C55.77703435 206.04742724 151.97117733 205.04753327 247.875 202.125 C248.72097496 202.09946045 249.56694992 202.0739209 250.43856049 202.04760742 C344.12478083 199.21718257 437.75220326 194.22772317 1007.0625 130.4375 C1008.41723545 130.22108667 1008.41723545 130.22108667 1009.79933929 130.00030136 C1024.72522571 127.61330585 1039.6514066 125.22492356 1054.54150391 122.62255859 C1055.22368264 122.50355163 1055.90586138 122.38454466 1056.6087122 122.26193142 C1059.77470945 121.70862831 1062.93948254 121.1494124 1066.10282898 120.58113098 C1067.73862663 120.2919001 1067.73862663 120.2919001 1069.4074707 119.99682617 C1070.34919632 119.82753098 1071.29092194 119.65823578 1072.26118469 119.48381042 C1074.83584058 119.13037559 1077.279942 119.05948371 1079.875 119.125 C1077.08150024 121.35282908 1074.37213719 122.94643515 1071.11328125 124.40234375 C1070.17226562 124.82700928 1069.23125 125.2516748 1068.26171875 125.68920898 C1067.24722656 126.14239502 1066.23273438 126.59558105 1065.1875 127.0625 C1052.31997137 132.88821893 1039.57249068 138.93812069 1026.875 145.125 C1025.86405273 145.61613281 1024.85310547 146.10726563 1023.81152344 146.61328125 C1009.74284282 153.46899318 996.05792561 160.83384742 982.49267578 168.63476562 C979.37943823 170.40712172 976.23652911 172.11984491 973.08837891 173.82910156 C962.83118586 179.41292652 952.95299515 185.57439761 943.078125 191.8046875 C942.15789551 192.38452393 941.23766602 192.96436035 940.28955078 193.56176758 C938.42333671 194.76999495 936.60924074 196.05894258 934.8203125 197.37890625 C930.59165952 199.88581326 926.24088231 200.97133421 921.5 202.1875 C920.39479004 202.47713623 919.28958008 202.76677246 918.15087891 203.06518555 C827.50702145 226.36351759 734.80468013 241.9443234 266.0625 283.8125 C264.78537832 283.85862301 264.78537832 283.85862301 263.48245621 283.9056778 C251.79519025 284.32707266 240.10715798 284.71100916 228.41723251 285.05095291 C226.73167074 285.10004793 225.046126 285.1497316 223.36059952 285.20002365 C186.61340174 286.29333304 149.86410745 286.31294777 113.10429066 286.31011146 C107.38534301 286.31041208 101.66644335 286.3185221 95.94750977 286.33081055 C59.81793215 286.40661441 23.71914271 286.19104995 -12.3984375 285.1953125 C-13.16559263 285.1742399 -13.93274776 285.1531673 -14.72315001 285.13145614 C-31.48016459 284.66819298 -48.23281508 284.10631318 -64.98339844 283.45068359 C-65.99055849 283.4113179 -65.99055849 283.4113179 -67.01806521 283.37115693 C-155.13785997 279.90281911 -243.38539666 273.3569786 -540.125 196.125 C-545.67761791 189.33050625 -548.50261553 183.06606419 -548.0625 174.25 C-546.20388317 160.59229879 -535.60832966 150.2186189 -525.125 142.125 C-481.00449835 108.83574494 -421.5592889 89.76169583 -370.21130371 70.8927002 C-368.21809853 70.1592576 -366.2265196 69.42156939 -364.23535156 68.68261719 C-325.92124425 54.51934619 -286.70644208 43.14390476 -247.125 33.125 C-246.30380676 32.91637329 -245.48261353 32.70774658 -244.63653564 32.49279785 C-164.9741996 12.29410631 -82.24863664 0.29849004 0 0 Z " fill="#5382A0" transform="translate(812.125,1783.875)"/>
<path d="M0 0 C-2.03995513 1.89770306 -4.08189835 3.79318945 -6.125 5.6875 C-6.97964844 6.48317383 -6.97964844 6.48317383 -7.8515625 7.29492188 C-10.56129422 9.80450295 -13.28177956 12.25424704 -16.15625 14.57421875 C-20.76779238 18.50796576 -24.28852592 23.2316994 -28 28 C-28.71929688 28.91523438 -29.43859375 29.83046875 -30.1796875 30.7734375 C-38.37885232 41.57158287 -45.32689928 55.06755759 -44 69 C-41.48504581 81.86818225 -33.98205558 90.35536879 -23.4921875 97.7734375 C-2.97011591 110.69474184 22.16023936 115.78789349 45.76953125 119.4609375 C46.79897543 119.62144183 46.79897543 119.62144183 47.84921646 119.78518867 C62.91696117 122.11779087 78.03867494 123.77289164 93.21376419 125.22942734 C95.43049118 125.44284241 97.64689808 125.65935109 99.86325073 125.87661743 C158.47910378 131.61436603 217.1727169 136.13149193 276 139 C277.21802307 139.06058594 278.43604614 139.12117188 279.690979 139.18359375 C350.55587474 142.6812356 422.14457918 142.72334283 493 139 C494.25061218 138.93447937 495.50122437 138.86895874 496.78973389 138.80145264 C578.48948395 134.46317645 659.89500104 126.35431943 753 113 C753.66036255 112.90399002 754.3207251 112.80798004 755.00109863 112.70906067 C811.35915243 104.50705261 867.70911488 95.40527945 923.53295898 84.09521484 C924.30595337 83.94159485 925.07894775 83.78797485 925.87536621 83.62969971 C927.87842223 83.23116044 929.87962049 82.82331355 931.88061523 82.41455078 C934.74948688 82.03329195 936.35354547 81.92706197 939 83 C941.3046875 84.8984375 941.3046875 84.8984375 943.875 87.375 C950.25434655 93.36157217 957.03677181 98.71213498 964 104 C964.71720215 104.5470459 965.4344043 105.0940918 966.17333984 105.65771484 C982.62606629 118.15698632 999.77049228 129.08182809 1017.95214844 138.88574219 C1019.80563331 139.89424302 1021.6422126 140.93366244 1023.4765625 141.9765625 C1038.52062403 150.38048652 1054.81725493 157.12448042 1071 163 C1071 163.66 1071 164.32 1071 165 C1056.28914699 169.09395942 1041.57234135 173.16592925 1026.84924316 177.21563721 C1024.38308231 177.89454199 1021.91748932 178.57544974 1019.45214844 179.25732422 C935.32863726 202.47810779 849.17104983 219.29983264 490.24017334 259.84570312 C487.08893078 259.99576512 483.93827025 260.15486206 480.78759766 260.31640625 C410.14088844 263.8823062 338.53722513 264.06777402 267.90551758 260.15820312 C264.89376844 259.99421578 261.88161164 259.84151913 258.86914062 259.69140625 C162.9168851 254.87542745 65.53711105 244.52912516 -108 190 C-108.70656738 189.66790527 -109.41313477 189.33581055 -110.14111328 188.99365234 C-136.18003582 176.71021973 -163.18753519 159.96943378 -174 132 C-177.97024628 120.21570213 -174.65903961 106.89751657 -169.66796875 96.125 C-142.4672166 44.34027692 -64.89263547 20.99473653 -14 3 C-12.8538623 2.59120605 -11.70772461 2.18241211 -10.52685547 1.76123047 C-9.4442041 1.38498535 -8.36155273 1.00874023 -7.24609375 0.62109375 C-6.28243896 0.28392334 -5.31878418 -0.05324707 -4.32592773 -0.40063477 C-2 -1 -2 -1 0 0 Z " fill="#5382A0" transform="translate(697,2153)"/>
<path d="M0 0 C0.33 0 0.66 0 1 0 C-0.24047162 32.19023849 -15.93321454 62.39869333 -37.7109375 85.55859375 C-39.65727262 87.63446312 -41.49142453 89.75310651 -43.3125 91.9375 C-52.3008404 102.22788971 -63.11273205 110.82146007 -74 119 C-75.01489502 119.76763672 -75.01489502 119.76763672 -76.05029297 120.55078125 C-87.56168217 129.21396452 -99.51350816 136.825343 -112 144 C-112.72058594 144.41813965 -113.44117187 144.8362793 -114.18359375 145.26708984 C-149.67456501 165.79666703 -187.42203737 181.3439982 -226 195 C-226.70562073 195.25009827 -227.41124146 195.50019653 -228.13824463 195.75787354 C-331.67753163 232.34555404 -441.13701652 252.58847591 -741 290 C-742.01015923 290.09013493 -742.01015923 290.09013493 -743.04072571 290.18209076 C-830.25402186 297.95002137 -917.80051268 302.54528742 -1005.3125 305.1875 C-1006.53064392 305.22442963 -1007.74878784 305.26135925 -1009.00384521 305.29940796 C-1016.51571771 305.52214738 -1024.02806321 305.71571647 -1031.5411377 305.89285278 C-1034.66569693 305.96685435 -1037.79007547 306.04615538 -1040.91442871 306.12838745 C-1081.73527114 307.19337794 -1122.55593956 307.20111208 -1163.38766623 307.18822432 C-1166.14497606 307.18749471 -1168.90228556 307.18724802 -1171.65959549 307.1871376 C-1225.9048746 307.1838284 -1280.12004641 307.01703147 -1334.33935547 305.15820312 C-1339.11401665 304.99483796 -1343.88901231 304.84289454 -1348.6640625 304.69140625 C-1439.16906514 301.79769217 -1529.74963151 296.7725435 -1841 253 C-1842.14221008 252.7286322 -1842.14221008 252.7286322 -1843.30749512 252.45178223 C-1944.85877214 228.21184179 -1944.85877214 228.21184179 -1957 210 C-1949.01743359 210.56723813 -1941.16965135 211.48474181 -1933.26953125 212.75 C-1930.95608106 213.11079904 -1928.64251728 213.47087023 -1926.32885742 213.83032227 C-1924.50068985 214.1156633 -1924.50068985 214.1156633 -1922.6355896 214.4067688 C-1839.59065697 227.29290287 -1755.79529138 235.83355806 -1672 242 C-1671.31370262 242.05065109 -1670.62740524 242.10130219 -1669.92031097 242.15348816 C-1619.6526762 245.86078566 -1569.35168978 248.71588995 -1519 251 C-1517.74920654 251.05694031 -1516.49841309 251.11388062 -1515.2097168 251.17254639 C-1499.74268519 251.87035756 -1484.27391141 252.41857796 -1468.79821777 252.8828125 C-1465.51098223 252.98423452 -1462.2240123 253.09163725 -1458.93708134 253.20244026 C-1371.91809027 256.13325967 -1284.63568108 256.0817997 -1138.56463623 253.16143799 C-1133.80261841 252.99172456 -1129.04025115 252.83327374 -1124.27783203 252.67529297 C-1046.97625258 250.09556009 -969.73730919 245.92443027 -16 19 C-15.25878906 18.31164063 -14.51757812 17.62328125 -13.75390625 16.9140625 C-9.03678872 12.40843367 -5.28480935 7.48066474 -1.56640625 2.125 C-1.04949219 1.42375 -0.53257813 0.7225 0 0 Z " fill="#5382A1" transform="translate(2392,2934)"/>
<path d="M0 0 C1.65242203 0.00323273 1.65242203 0.00323273 3.33822632 0.00653076 C19.53838713 0.05735595 35.3934117 0.42257185 51.375 3.3125 C52.5098584 3.51117676 53.6447168 3.70985352 54.81396484 3.91455078 C110.0100553 13.81203644 160.80265614 37.2921744 201.375 76.3125 C201.86629395 76.78187988 202.35758789 77.25125977 202.86376953 77.73486328 C209.587933 84.18779999 215.68033428 90.9383905 221.375 98.3125 C222.00873535 99.12364258 222.00873535 99.12364258 222.65527344 99.95117188 C250.45077297 135.72594921 265.11110096 178.23871402 267.375 223.3125 C267.43558594 224.48425781 267.49617188 225.65601563 267.55859375 226.86328125 C267.62997854 230.03360576 267.53896198 233.14489414 267.375 236.3125 C267.33391113 237.12525391 267.29282227 237.93800781 267.25048828 238.77539062 C263.87006213 300.07666491 236.98948137 356.69713569 196.86523438 402.55126953 C195.74139056 403.87948207 194.64888568 405.23430331 193.57226562 406.60107422 C187.38079193 414.41846013 180.55059062 421.44310289 173.48291016 428.46533203 C171.50318576 430.4343315 169.53439246 432.41380727 167.56640625 434.39453125 C161.19552458 440.77170658 154.80032684 446.88221061 147.70117188 452.45166016 C145.27859395 454.38962079 143.01449554 456.44306293 140.75 458.5625 C133.68832385 464.97917266 126.00880182 470.60315913 118.375 476.3125 C117.60414063 476.89225586 116.83328125 477.47201172 116.0390625 478.06933594 C104.74065255 486.55721949 93.23606037 494.63117417 81.375 502.3125 C80.64410156 502.78864746 79.91320313 503.26479492 79.16015625 503.75537109 C-0.91177859 555.77046585 -91.44489862 592.29761409 -248.625 638.3125 C-247.227659 635.19961162 -245.55476075 632.94354989 -243.25 630.4375 C-241.13683178 628.13814955 -239.54356173 626.1626938 -238.04296875 623.40234375 C-234.56703424 618.96055991 -230.32444766 617.17683345 -225.3125 614.75 C-223.22092145 613.69875702 -221.13112406 612.64396398 -219.04296875 611.5859375 C-217.97481934 611.04678711 -216.90666992 610.50763672 -215.80615234 609.95214844 C-210.83722372 607.39103373 -205.97898044 604.64637317 -201.125 601.875 C-200.17633057 601.33399658 -199.22766113 600.79299316 -198.25024414 600.2355957 C-196.33009132 599.13950372 -194.41041229 598.04258132 -192.49121094 596.94482422 C-189.6496657 595.32654726 -186.79940391 593.72493774 -183.9453125 592.12890625 C-157.28739013 577.20806862 -130.85421391 561.56010805 -105.625 544.3125 C-103.95726361 543.18194882 -102.28926794 542.05178008 -100.62109375 540.921875 C-81.88095722 528.21056113 -63.54421518 515.16232394 -45.625 501.3125 C-44.93712402 500.78205078 -44.24924805 500.25160156 -43.54052734 499.70507812 C-36.09976104 493.95704321 -28.84424377 488.02921769 -21.69921875 481.91796875 C-18.92800845 479.55385813 -16.09572811 477.27406042 -13.25 475 C-7.97673913 470.714993 -3.03118061 466.11945987 1.89794922 461.44799805 C4.90289557 458.60230001 7.9320666 455.8182722 11.078125 453.12890625 C16.23360757 448.64880624 21.03074508 443.80647501 25.84790039 438.9699707 C27.43459946 437.37791034 29.02657742 435.7912701 30.61914062 434.20507812 C36.08216247 428.7459458 41.37037673 423.1988251 46.375 417.3125 C47.39608144 416.15546858 48.41949648 415.0004921 49.4453125 413.84765625 C57.54888039 404.66545197 65.06945302 395.13788054 72.375 385.3125 C72.91656738 384.59191406 73.45813477 383.87132813 74.01611328 383.12890625 C98.62145586 350.33152654 117.80725319 313.09904435 127.125 273.0625 C127.32383789 272.21244385 127.52267578 271.3623877 127.72753906 270.48657227 C130.72791931 256.97070843 131.7912967 243.66974964 131.75 229.875 C131.74845917 229.08980988 131.74691833 228.30461975 131.74533081 227.49563599 C131.6094833 198.24696403 124.9883538 169.87540113 110.375 144.3125 C110.02469727 143.6848877 109.67439453 143.05727539 109.31347656 142.41064453 C101.72121428 128.87349763 92.49740591 116.99717828 81.78710938 105.79199219 C80.8506544 104.8108516 79.91957769 103.82454753 78.99414062 102.83300781 C65.74737608 88.66139863 50.12333474 77.94911444 33.375 68.3125 C32.7547998 67.94817871 32.13459961 67.58385742 31.49560547 67.20849609 C-22.39544864 35.7190976 -81.84986505 37.61118649 -140.24627686 52.67480469 C-147.89299239 54.72475937 -155.440286 57.13738996 -162.94384766 59.65673828 C-164.03874512 60.02009277 -165.13364258 60.38344727 -166.26171875 60.7578125 C-167.20748779 61.08281738 -168.15325684 61.40782227 -169.12768555 61.74267578 C-171.74386834 62.33962276 -173.12821334 62.20810642 -175.625 61.3125 C-144.4131821 23.77930125 -103.46581845 12.15762732 -56.25 4.0625 C-55.37303467 3.91127686 -54.49606934 3.76005371 -53.5925293 3.60424805 C-35.75876345 0.72542211 -18.04199366 -0.06368464 0 0 Z " fill="#5382A0" transform="translate(2124.625,1753.6875)"/>
</svg>
