<?xml version="1.0" encoding="UTF-8"?>
<svg version="1.1" xmlns="http://www.w3.org/2000/svg" width="800" height="1068">
<path d="M0 0 C30.36 0 60.72 0 92 0 C92 209.22 92 418.44 92 634 C61.64 634 31.28 634 0 634 C0 424.78 0 215.56 0 0 Z " fill="#130653" transform="translate(136,320)"/>
<path d="M0 0 C30.36 0 60.72 0 92 0 C92 208.89 92 417.78 92 633 C61.64 633 31.28 633 0 633 C0 424.11 0 215.22 0 0 Z " fill="#130753" transform="translate(572,114)"/>
<path d="M0 0 C30.69 0 61.38 0 93 0 C93 63.36 93 126.72 93 192 C62.31 192 31.62 192 0 192 C0 128.64 0 65.28 0 0 Z " fill="#130654" transform="translate(427,711)"/>
<path d="M0 0 C30.69 0 61.38 0 93 0 C93 63.36 93 126.72 93 192 C62.31 192 31.62 192 0 192 C0 128.64 0 65.28 0 0 Z " fill="#130653" transform="translate(283,554)"/>
<path d="M0 0 C30.69 0 61.38 0 93 0 C93 63.36 93 126.72 93 192 C62.31 192 31.62 192 0 192 C0 128.64 0 65.28 0 0 Z " fill="#130753" transform="translate(283,163)"/>
<path d="M0 0 C30.69 0 61.38 0 93 0 C93 63.03 93 126.06 93 191 C62.31 191 31.62 191 0 191 C0 127.97 0 64.94 0 0 Z " fill="#130654" transform="translate(427,320)"/>
<path d="M0 0 C30.69 0 61.38 0 93 0 C93 30.03 93 60.06 93 91 C62.31 91 31.62 91 0 91 C0 60.97 0 30.94 0 0 Z " fill="#E70487" transform="translate(427,566)"/>
<path d="M0 0 C30.69 0 61.38 0 93 0 C93 30.03 93 60.06 93 91 C62.31 91 31.62 91 0 91 C0 60.97 0 30.94 0 0 Z " fill="#FFC900" transform="translate(283,409)"/>
</svg>
