<?xml version="1.0" encoding="UTF-8"?>
<svg version="1.1" xmlns="http://www.w3.org/2000/svg" width="390" height="211">
<path d="M0 0 C0.85078125 0.47179688 1.7015625 0.94359375 2.578125 1.4296875 C20.70324297 12.44819447 31.09097248 31.34114679 36.421875 51.33203125 C41.56421976 75.06325742 36.97387916 98.5700746 29 121 C28.50729125 122.60005921 28.02676525 124.20395744 27.5625 125.8125 C26.62531554 129.04360688 25.58696836 132.22471239 24.484375 135.40234375 C24.21036865 136.19858154 23.9363623 136.99481934 23.65405273 137.81518555 C23.1040119 139.40658597 22.54653341 140.99544027 21.98071289 142.58129883 C20.5028012 146.87325884 19.6697859 150.39167883 20 155 C21.78170578 155.81949655 21.78170578 155.81949655 24 156 C26.1631155 154.5871254 26.1631155 154.5871254 28.125 152.5625 C31.81996086 149 31.81996086 149 34 149 C34.00257813 148.46375 34.00515625 147.9275 34.0078125 147.375 C34.43063294 138.80583914 36.80715621 130.4772381 41 123 C44.03767889 120.9604156 46.41037876 120.80855353 50 121 C51.98 121 53.96 121 56 121 C54.68 125.62 53.36 130.24 52 135 C52.72445312 134.24074219 53.44890625 133.48148438 54.1953125 132.69921875 C55.17146209 131.694911 56.14804795 130.69102717 57.125 129.6875 C57.599375 129.18798828 58.07375 128.68847656 58.5625 128.17382812 C62.71088729 123.94135191 66.58846988 121.29104674 72.625 120.5625 C76 121 76 121 78.4375 122.5625 C80.58624076 125.91453558 80.25360082 128.04302206 80 132 C79.38118845 134.68857063 78.52314313 137.26821731 77.625 139.875 C77.1626546 141.28036135 76.70299765 142.68661013 76.24609375 144.09375 C76.02808105 144.7640625 75.81006836 145.434375 75.58544922 146.125 C74.29428197 150.2601812 73 154.64942742 73 159 C78.45222381 155.94242536 82.19419896 152.95907408 86 148 C86.33 148 86.66 148 87 148 C87.61010486 155.19923737 87.61010486 155.19923737 85 158.625 C83.515 159.800625 83.515 159.800625 82 161 C81.37222656 161.51691406 80.74445313 162.03382813 80.09765625 162.56640625 C75.01769019 166.61282835 71.01689099 169.15340124 64.3125 168.8125 C61.06779111 168.01662801 59.86239415 167.69012488 58 165 C55.86497331 158.59491992 57.28061185 153.14196975 59.375 147 C59.82111362 145.64609704 60.26643278 144.29193203 60.7109375 142.9375 C60.92717773 142.28652344 61.14341797 141.63554687 61.36621094 140.96484375 C62.32331554 137.997672 63.16319264 135.00312175 64 132 C52.31524893 141.67353307 52.31524893 141.67353307 47.5859375 155.6484375 C47.51632812 156.87820312 47.44671875 158.10796875 47.375 159.375 C47.189375 162.654375 47.189375 162.654375 47 166 C42.71 166.99 38.42 167.98 34 169 C33.01 163.555 33.01 163.555 32 158 C30.659375 159.258125 29.31875 160.51625 27.9375 161.8125 C22.88212772 166.27451872 19.28643225 169 12.3125 169 C8.32774203 167.7970542 7.16412941 166.49590135 5 163 C4.67 162.01 4.34 161.02 4 160 C3.21238281 160.83402344 2.42476562 161.66804687 1.61328125 162.52734375 C-19.04888857 184.03921484 -43.88269374 193.75558125 -73 198 C-73.90363281 198.13277344 -74.80726563 198.26554688 -75.73828125 198.40234375 C-100.25488537 201.25674901 -138.66789795 201.44448992 -159.13671875 185.31640625 C-176.78806542 165.3530444 -175.25982177 129.95124016 -174 105 C-171.26321011 72.29202328 -158.01583285 42.09630074 -132.875 20.5 C-116.22259662 6.5903742 -97.82043471 -3.00756396 -77 -9 C-75.86046875 -9.34160156 -74.7209375 -9.68320313 -73.546875 -10.03515625 C-48.26453731 -16.35574067 -22.35918145 -12.74865609 0 0 Z " fill="#F79839" transform="translate(303,12)"/>
<path d="M0 0 C16.5710697 13.85741121 24.06877013 29.55172823 26.95849609 50.70117188 C28.23847097 65.43576638 28.33587857 85.88536808 19.51708984 98.47070312 C11.93704049 106.72829879 -2.67004397 107.52336724 -13.30712891 108.04492188 C-35.44454354 108.66413439 -56.62078885 103.8882337 -73.15087891 88.33789062 C-78.46557454 82.6718846 -82.70709508 76.47375952 -86.58056641 69.75585938 C-87.27472656 68.5725 -87.27472656 68.5725 -87.98291016 67.36523438 C-95.99052695 52.66432087 -97.94503495 35.41506458 -94.88525391 19.03320312 C-93.98851788 16.11315936 -92.93367246 13.49167068 -91.58056641 10.75585938 C-91.16806641 9.89089844 -90.75556641 9.0259375 -90.33056641 8.13476562 C-84.2412021 -3.23089446 -74.55518015 -9.97782293 -62.58056641 -14.24414062 C-41.33079188 -20.12476005 -17.10559435 -13.46464455 0 0 Z " fill="#3399CD" transform="translate(95.58056640625,101.244140625)"/>
<path d="M0 0 C3.15355197 4.73032795 2.5212137 9.46210441 2 15 C-0.99439599 28.37270025 -8.35271938 40.35271938 -18 50 C-18.15251793 52.26723769 -18.2219194 54.54031164 -18.25 56.8125 C-18.27578125 58.05644531 -18.3015625 59.30039063 -18.328125 60.58203125 C-17.98686764 64.13679543 -17.42665143 65.46478785 -15 68 C-8.67877826 67.39797888 -5.11380494 64.68143575 -0.25 60.8125 C1.98986887 58.01266391 2.34889997 57.10094078 2.9375 53.75 C4.44225522 45.36238295 10.48105203 38.26365821 17 33 C21.47609112 30.19870466 25.754863 29.42780324 31 30 C34.98066095 31.57724302 36.60667274 32.41000911 39 36 C39.45859453 40.05091837 39.27272199 42.43182919 37.5 46.125 C32.49991616 51.87509641 26.15325904 54.6964081 19 57 C18.01 57 17.02 57 16 57 C16.42492126 58.29585916 16.86545882 59.5866044 17.3125 60.875 C17.55613281 61.59429687 17.79976562 62.31359375 18.05078125 63.0546875 C18.96335547 65.33994905 18.96335547 65.33994905 22 67 C26.61568013 67.75609236 30.11850916 67.47464892 34.25 65.25 C35.1575 64.5075 36.065 63.765 37 63 C37.886875 62.46375 38.77375 61.9275 39.6875 61.375 C42.18136698 58.81373121 42.55178261 57.61778589 43.4375 54.25 C45.99619661 44.60894427 53.49996114 37.02383358 61.88671875 31.83203125 C65.94289652 29.89053492 69.56990636 29.50776737 74 30 C78.6 32.2 78.6 32.2 80 35 C82.72754868 33.98691049 85.09798083 32.93786582 87.5625 31.375 C90 30 90 30 94 30 C93.11808122 34.40959389 92.1161402 38.71004059 90.75390625 42.99609375 C88.17270651 51.15607494 86.15642426 58.32054296 87 67 C95.87815994 64.29795132 102.58956199 56.99033899 107 49 C105.68 48.34 104.36 47.68 103 47 C102.54763538 40.55380413 103.27794218 37.31722545 107 32 C110.8503105 29.43312633 112.58569763 30.16711276 117 31 C117.16682272 35.92127034 117.24828052 39.50343896 115 44 C122.18272277 40.97006732 126.86206921 37.41692732 130 30 C131.98 30 133.96 30 136 30 C134.60727608 34.86231685 133.12313385 39.68240391 131.46484375 44.4609375 C131.19365723 45.24871582 130.9224707 46.03649414 130.64306641 46.84814453 C130.09699034 48.42730278 129.54348221 50.00391406 128.98193359 51.57763672 C127.50360862 55.87102033 126.66967587 59.39014332 127 64 C128.78170578 64.81949655 128.78170578 64.81949655 131 65 C133.1631155 63.5871254 133.1631155 63.5871254 135.125 61.5625 C138.81996086 58 138.81996086 58 141 58 C141.00257813 57.46375 141.00515625 56.9275 141.0078125 56.375 C141.43063294 47.80583914 143.80715621 39.4772381 148 32 C151.03767889 29.9604156 153.41037876 29.80855353 157 30 C158.98 30 160.96 30 163 30 C161.02 36.93 161.02 36.93 159 44 C159.72445312 43.24074219 160.44890625 42.48148438 161.1953125 41.69921875 C162.17146209 40.694911 163.14804795 39.69102717 164.125 38.6875 C164.599375 38.18798828 165.07375 37.68847656 165.5625 37.17382812 C169.71088729 32.94135191 173.58846988 30.29104674 179.625 29.5625 C183 30 183 30 185.4375 31.5625 C187.58624076 34.91453558 187.25360082 37.04302206 187 41 C186.38118845 43.68857063 185.52314313 46.26821731 184.625 48.875 C184.1626546 50.28036135 183.70299765 51.68661013 183.24609375 53.09375 C183.02808105 53.7640625 182.81006836 54.434375 182.58544922 55.125 C181.29428197 59.2601812 180 63.64942742 180 68 C185.45222381 64.94242536 189.19419896 61.95907408 193 57 C193.33 57 193.66 57 194 57 C194.61010486 64.19923737 194.61010486 64.19923737 192 67.625 C191.01 68.40875 190.02 69.1925 189 70 C188.37222656 70.51691406 187.74445313 71.03382813 187.09765625 71.56640625 C182.01769019 75.61282835 178.01689099 78.15340124 171.3125 77.8125 C168.06779111 77.01662801 166.86239415 76.69012488 165 74 C162.86497331 67.59491992 164.28061185 62.14196975 166.375 56 C166.82111362 54.64609704 167.26643278 53.29193203 167.7109375 51.9375 C167.92717773 51.28652344 168.14341797 50.63554687 168.36621094 49.96484375 C169.32331554 46.997672 170.16319264 44.00312175 171 41 C159.31524893 50.67353307 159.31524893 50.67353307 154.5859375 64.6484375 C154.51632812 65.87820312 154.44671875 67.10796875 154.375 68.375 C154.189375 71.654375 154.189375 71.654375 154 75 C149.71 75.99 145.42 76.98 141 78 C140.01 72.555 140.01 72.555 139 67 C137.659375 68.258125 136.31875 69.51625 134.9375 70.8125 C129.88212772 75.27451872 126.28643225 78 119.3125 78 C115.2387636 76.77019279 114.02474159 75.72552453 112 72 C110.70226887 63.88918042 114.76265292 55.72633319 119 49 C115.33335606 49.52380628 112.97192418 49.95932996 110.3984375 52.71484375 C109.28342543 54.23356708 108.17743821 55.75893736 107.078125 57.2890625 C100.6612612 65.6599337 92.02590707 75.82901549 81.25 77.625 C78 77 78 77 75.625 75.0625 C73.50589447 71.06880111 73.19464959 67.46720803 73 63 C72.49210937 63.67546875 71.98421875 64.3509375 71.4609375 65.046875 C62.89458659 76.1478391 62.89458659 76.1478391 56.83984375 77.47265625 C53.3337516 77.79458458 50.99993981 77.77914631 48.16015625 75.56640625 C45.55556915 72.60520086 43.69179408 69.55670197 42 66 C41.35933594 66.54269531 40.71867187 67.08539063 40.05859375 67.64453125 C32.18579634 74.15630854 26.31105717 77.7013057 15.87890625 77.4140625 C11.5794165 76.7956827 8.86361992 75.24041202 6 72 C4.0625 68.6875 4.0625 68.6875 3 66 C0.07235095 67.35973034 -2.34414908 68.94026223 -4.875 70.9375 C-10.77646958 75.37445047 -15.17457942 77.60630206 -22.6640625 77.34765625 C-27.26986378 76.66217746 -29.16095183 74.12837513 -31.8125 70.5625 C-38.12297312 51.63108064 -27.67947186 26.39885583 -19.75 9.3125 C-16.53368188 3.74893818 -12.73165393 1.66675198 -6.76953125 -0.4609375 C-3.98713859 -1.00250335 -2.57114194 -1.15159794 0 0 Z " fill="#060402" transform="translate(196,103)"/>
<path d="M0 0 C2.49498754 2.49498754 2.35223401 3.41420382 2.4375 6.875 C2.29087446 14.8451453 -0.72930095 22.23599766 -5.375 28.6875 C-8.62506593 31.55065332 -10.70516665 32 -15 32 C-17.64727542 29.35272458 -17.42244102 27.95478584 -17.5625 24.25 C-17.46216222 16.0587884 -14.48484561 9.76373057 -10 3 C-6.66645256 -0.07171708 -4.53385077 -0.49280987 0 0 Z " fill="#F29537" transform="translate(270,138)"/>
<path d="M0 0 C0.66 0 1.32 0 2 0 C4.08963447 4.17926893 3.15278649 8.45601293 1.93359375 12.796875 C1.45061604 14.12042606 0.95131353 15.43811185 0.4375 16.75 C0.17227539 17.44230713 -0.09294922 18.13461426 -0.36621094 18.84790039 C-6.50795538 34.25397769 -6.50795538 34.25397769 -12 37 C-11.43639938 30.3508546 -10.18273908 24.31651511 -8.25 17.9375 C-8.01023438 17.09123047 -7.77046875 16.24496094 -7.5234375 15.37304688 C-5.8564356 9.80062043 -3.7812717 4.5081371 0 0 Z " fill="#E68E35" transform="translate(191,108)"/>
<path d="M0 0 C0.94875 0.04125 1.8975 0.0825 2.875 0.125 C4.65826161 3.69152323 3.99864814 7.38996846 2.875 11.125 C-0.49166922 15.53042116 -4.76880597 17.81861121 -10.125 19.125 C-10.85141371 12.44199385 -8.55241688 7.80620313 -5.125 2.125 C-3.125 0.125 -3.125 0.125 0 0 Z " fill="#EC9236" transform="translate(221.125,137.875)"/>
<path d="M0 0 C0.99 0 1.98 0 3 0 C3.33 3.96 3.66 7.92 4 12 C5.98 10.02 7.96 8.04 10 6 C10.99 6.33 11.98 6.66 13 7 C11.68 8.32 10.36 9.64 9 11 C10.16763633 14.95199987 11.46414855 17.7725527 14 21 C14 21.66 14 22.32 14 23 C11.46089803 22.61479436 10.27248877 22.29902057 8.515625 20.37109375 C7.88914062 19.41396484 7.88914062 19.41396484 7.25 18.4375 C6.60804688 17.47650391 6.60804688 17.47650391 5.953125 16.49609375 C5.63859375 16.00238281 5.3240625 15.50867188 5 15 C3.03177114 16.96822886 3.33751619 20.34808709 3 23 C2.01 23 1.02 23 0 23 C0 15.41 0 7.82 0 0 Z " fill="#FEF5EC" transform="translate(257,92)"/>
<path d="M0 0 C1.9375 1.375 1.9375 1.375 3 3 C3 3.66 3 4.32 3 5 C2.01 5 1.02 5 0 5 C0 4.34 0 3.68 0 3 C-2.31 3 -4.62 3 -7 3 C-6.363603 6.0836385 -6.363603 6.0836385 -4.1875 6.9140625 C-3.465625 7.14867188 -2.74375 7.38328125 -2 7.625 C1.93048128 8.93048128 1.93048128 8.93048128 3 10 C3.25 12.9375 3.25 12.9375 3 16 C-0.69486103 18.46324069 -2.63293092 18.38991688 -7 18 C-8.9375 16.6875 -8.9375 16.6875 -10 15 C-10 14.01 -10 13.02 -10 12 C-9.01 12 -8.02 12 -7 12 C-6.67 12.66 -6.34 13.32 -6 14 C-4.02 14 -2.04 14 0 14 C0 13.34 0 12.68 0 12 C-0.63808594 11.76925781 -1.27617187 11.53851563 -1.93359375 11.30078125 C-8.69087225 8.63371189 -8.69087225 8.63371189 -10.25 5.4375 C-10 3 -10 3 -9 1.1875 C-5.9238434 -0.63896798 -3.49590968 -0.37456175 0 0 Z " fill="#FEF5ED" transform="translate(227,98)"/>
<path d="M0 0 C3.4375 0.5 3.4375 0.5 5.375 1.8125 C6.4375 3.5 6.4375 3.5 6.4375 6.5 C5.4475 6.5 4.4575 6.5 3.4375 6.5 C2.7775 5.51 2.1175 4.52 1.4375 3.5 C-1.14630177 3.24969023 -1.14630177 3.24969023 -3.5625 3.5 C-3.58938151 5.14574566 -3.60884123 6.79161413 -3.625 8.4375 C-3.63660156 9.35402344 -3.64820313 10.27054688 -3.66015625 11.21484375 C-3.82199049 13.46593327 -3.82199049 13.46593327 -2.5625 14.5 C-0.10457971 14.83343551 -0.10457971 14.83343551 2.4375 14.5 C3.0975 13.51 3.7575 12.52 4.4375 11.5 C5.0975 11.5 5.7575 11.5 6.4375 11.5 C6.125 13.875 6.125 13.875 5.4375 16.5 C1.94184664 18.83043558 0.5509271 19.08763244 -3.5625 18.5 C-6.05619699 16.40004464 -7.30595547 14.79842946 -7.9453125 11.5625 C-8.15377287 7.89359754 -7.71940079 5.80124951 -6 2.5 C-3.5625 0.5 -3.5625 0.5 0 0 Z " fill="#FEF4EA" transform="translate(240.5625,97.5)"/>
<path d="M0 0 C0.66 0 1.32 0 2 0 C2 1.32 2 2.64 2 4 C2.99 4 3.98 4 5 4 C5 4.66 5 5.32 5 6 C4.01 6 3.02 6 2 6 C2.11344376 8.1464753 2.24106345 10.29220592 2.375 12.4375 C2.47941406 14.22994141 2.47941406 14.22994141 2.5859375 16.05859375 C2.72257812 17.02925781 2.85921875 17.99992187 3 19 C3.66 19.33 4.32 19.66 5 20 C5 20.66 5 21.32 5 22 C3.35 21.67 1.7 21.34 0 21 C0 16.05 0 11.1 0 6 C-0.66 6 -1.32 6 -2 6 C-2 5.34 -2 4.68 -2 4 C-1.34 4 -0.68 4 0 4 C0 2.68 0 1.36 0 0 Z " fill="#FEFBF8" transform="translate(282,94)"/>
<path d="M0 0 C0.99 0 1.98 0 3 0 C3 5.61 3 11.22 3 17 C2.01 17 1.02 17 0 17 C0 11.39 0 5.78 0 0 Z " fill="#FDEFE1" transform="translate(274,98)"/>
<path d="M0 0 C0.99 0 1.98 0 3 0 C3 5.61 3 11.22 3 17 C2.01 17 1.02 17 0 17 C0 11.39 0 5.78 0 0 Z " fill="#FEF3E8" transform="translate(250,98)"/>
<path d="M0 0 C0.99 0 1.98 0 3 0 C3.33 0.66 3.66 1.32 4 2 C6.52733235 2.65555119 6.52733235 2.65555119 9 3 C9.33 3.99 9.66 4.98 10 6 C3.539801 6.36567164 3.539801 6.36567164 1.0625 4.6875 C0 3 0 3 0 0 Z " fill="#FDEEDE" transform="translate(217,110)"/>
</svg>
